STARTFONT 2.1
COMMENT
COMMENT Converted from OpenType font "ipaexg.ttf" by "otf2bdf 3.0".
COMMENT
FONT -FreeType-IPAexGothic-Medium-R-Normal--24-240-72-72-P-210-ISO10646-1
SIZE 24 72 72
FONTBOUNDINGBOX 30 29 -6 -7
STARTPROPERTIES 19
FOUNDRY "FreeType"
FAMILY_NAME "IPAexGothic"
WEIGHT_NAME "Medium"
SLANT "R"
SETWIDTH_NAME "Normal"
ADD_STYLE_NAME ""
PIXEL_SIZE 24
POINT_SIZE 240
RESOLUTION_X 72
RESOLUTION_Y 72
SPACING "P"
AVERAGE_WIDTH 210
CHARSET_REGISTRY "ISO10646"
CHARSET_ENCODING "1"
FONT_ASCENT 21
FONT_DESCENT 2
COPYRIGHT "Copyright(c) Information-technology Promotion Agency, Japan (IPA), 2003-2019. You must accept "https://opensource.org/licenses/IPA/" to use this product."
_OTF_FONTFILE "ipaexg.ttf"
_OTF_PSNAME "IPAexGothic"
ENDPROPERTIES
CHARS 11691
STARTCHAR 0020
ENCODING 32
SWIDTH 250 0
DWIDTH 6 0
BBX 0 0 0 0
BITMAP
ENDCHAR
STARTCHAR 0021
ENCODING 33
SWIDTH 291 0
DWIDTH 7 0
BBX 3 17 2 0
BITMAP
E0
E0
E0
E0
60
60
60
60
40
40
40
40
40
00
00
E0
E0
ENDCHAR
STARTCHAR 0022
ENCODING 34
SWIDTH 333 0
DWIDTH 8 0
BBX 6 6 1 12
BITMAP
CC
CC
CC
CC
CC
48
ENDCHAR
STARTCHAR 0023
ENCODING 35
SWIDTH 625 0
DWIDTH 15 0
BBX 13 17 1 -1
BITMAP
0420
0460
0C60
0C40
7FF8
0840
08C0
18C0
18C0
FFF8
1080
1080
1180
3180
3180
3100
2100
ENDCHAR
STARTCHAR 0024
ENCODING 36
SWIDTH 625 0
DWIDTH 15 0
BBX 11 21 2 -2
BITMAP
0400
0400
3F80
71C0
6060
C040
E000
6000
7800
3F00
0F80
01C0
00E0
0060
0060
C060
F0E0
3FC0
0E00
0400
0400
ENDCHAR
STARTCHAR 0025
ENCODING 37
SWIDTH 833 0
DWIDTH 20 0
BBX 18 18 1 -1
BITMAP
000100
3C0300
660600
C20400
C30C00
C31800
C33000
662000
7E6000
3CCF00
009880
0198C0
0310C0
0610C0
0418C0
0C18C0
181F80
100F00
ENDCHAR
STARTCHAR 0026
ENCODING 38
SWIDTH 708 0
DWIDTH 17 0
BBX 15 17 1 0
BITMAP
0F80
1FC0
18E0
3060
3060
18C0
1DC0
0F00
1E00
330C
618C
E0D8
C078
E038
70FC
7FCE
1F06
ENDCHAR
STARTCHAR 0027
ENCODING 39
SWIDTH 208 0
DWIDTH 5 0
BBX 2 6 1 12
BITMAP
C0
C0
C0
C0
C0
40
ENDCHAR
STARTCHAR 0028
ENCODING 40
SWIDTH 333 0
DWIDTH 8 0
BBX 5 23 2 -5
BITMAP
18
10
30
20
60
60
C0
C0
C0
C0
C0
C0
C0
C0
C0
C0
40
60
60
30
30
18
08
ENDCHAR
STARTCHAR 0029
ENCODING 41
SWIDTH 333 0
DWIDTH 8 0
BBX 5 23 1 -5
BITMAP
80
40
60
20
30
30
18
18
18
18
18
18
18
18
18
18
30
30
30
60
60
C0
80
ENDCHAR
STARTCHAR 002A
ENCODING 42
SWIDTH 375 0
DWIDTH 9 0
BBX 7 7 1 10
BITMAP
10
D6
7C
38
DE
10
10
ENDCHAR
STARTCHAR 002B
ENCODING 43
SWIDTH 666 0
DWIDTH 16 0
BBX 13 13 2 1
BITMAP
0600
0600
0600
0600
0600
0600
FFF8
0600
0600
0600
0600
0600
0600
ENDCHAR
STARTCHAR 002C
ENCODING 44
SWIDTH 250 0
DWIDTH 6 0
BBX 3 7 1 -4
BITMAP
60
60
60
60
C0
C0
80
ENDCHAR
STARTCHAR 002D
ENCODING 45
SWIDTH 375 0
DWIDTH 9 0
BBX 6 2 1 6
BITMAP
FC
FC
ENDCHAR
STARTCHAR 002E
ENCODING 46
SWIDTH 250 0
DWIDTH 6 0
BBX 2 3 2 0
BITMAP
C0
C0
C0
ENDCHAR
STARTCHAR 002F
ENCODING 47
SWIDTH 500 0
DWIDTH 12 0
BBX 9 21 1 -3
BITMAP
0080
0180
0100
0100
0300
0200
0200
0600
0400
0C00
0800
0800
1800
1000
1000
3000
2000
6000
4000
4000
C000
ENDCHAR
STARTCHAR 0030
ENCODING 48
SWIDTH 625 0
DWIDTH 15 0
BBX 13 17 1 0
BITMAP
0F80
1FC0
38E0
7070
6030
6038
E038
E018
E018
E018
E038
6038
6030
7070
38E0
1FE0
0F80
ENDCHAR
STARTCHAR 0031
ENCODING 49
SWIDTH 625 0
DWIDTH 15 0
BBX 6 17 3 0
BITMAP
0C
7C
EC
0C
0C
0C
0C
0C
0C
0C
0C
0C
0C
0C
0C
0C
0C
ENDCHAR
STARTCHAR 0032
ENCODING 50
SWIDTH 625 0
DWIDTH 15 0
BBX 12 17 2 0
BITMAP
1F80
7FC0
E0E0
C060
0060
0060
0060
00C0
0380
0600
1C00
3000
6000
C000
C000
FFF0
FFF0
ENDCHAR
STARTCHAR 0033
ENCODING 51
SWIDTH 625 0
DWIDTH 15 0
BBX 12 17 1 0
BITMAP
0F80
3FE0
7060
6030
0030
0070
00E0
0FC0
0F80
00E0
0070
0030
0030
4030
F070
7FE0
1F80
ENDCHAR
STARTCHAR 0034
ENCODING 52
SWIDTH 625 0
DWIDTH 15 0
BBX 13 17 1 0
BITMAP
00C0
01C0
0340
0240
0640
0C40
1840
3040
3040
6040
C040
FFF8
FFF8
0040
0040
0040
0040
ENDCHAR
STARTCHAR 0035
ENCODING 53
SWIDTH 625 0
DWIDTH 15 0
BBX 12 17 2 0
BITMAP
7FE0
7FE0
6000
6000
6000
6000
4F80
DFC0
E0E0
C060
0070
0030
0070
4060
E0E0
7FC0
1F00
ENDCHAR
STARTCHAR 0036
ENCODING 54
SWIDTH 625 0
DWIDTH 15 0
BBX 12 17 2 0
BITMAP
0F80
3FE0
3860
6000
E000
C000
CF80
DFC0
F0E0
E060
C030
C030
C030
6060
70E0
3FC0
0F80
ENDCHAR
STARTCHAR 0037
ENCODING 55
SWIDTH 625 0
DWIDTH 15 0
BBX 11 17 2 0
BITMAP
FFE0
FFE0
0060
00C0
00C0
0180
0380
0300
0700
0600
0600
0C00
0C00
1C00
1800
1800
3800
ENDCHAR
STARTCHAR 0038
ENCODING 56
SWIDTH 625 0
DWIDTH 15 0
BBX 13 17 1 0
BITMAP
0FC0
3FE0
7070
6030
6030
6030
78E0
1FC0
0F80
38E0
6030
E018
C018
E038
7070
3FF0
1FC0
ENDCHAR
STARTCHAR 0039
ENCODING 57
SWIDTH 625 0
DWIDTH 15 0
BBX 12 17 1 0
BITMAP
0F80
3FC0
70E0
6070
E030
C030
E030
6070
70F0
3FB0
1F30
0030
0070
0060
60E0
7FC0
1F00
ENDCHAR
STARTCHAR 003A
ENCODING 58
SWIDTH 333 0
DWIDTH 8 0
BBX 2 12 3 0
BITMAP
C0
C0
C0
00
00
00
00
00
00
C0
C0
C0
ENDCHAR
STARTCHAR 003B
ENCODING 59
SWIDTH 333 0
DWIDTH 8 0
BBX 4 16 1 -4
BITMAP
30
30
30
00
00
00
00
00
00
00
30
30
60
60
60
C0
ENDCHAR
STARTCHAR 003C
ENCODING 60
SWIDTH 666 0
DWIDTH 16 0
BBX 12 13 2 1
BITMAP
0010
0070
03C0
0F00
3800
E000
C000
7000
1C00
0700
01C0
0070
0010
ENDCHAR
STARTCHAR 003D
ENCODING 61
SWIDTH 666 0
DWIDTH 16 0
BBX 13 6 2 5
BITMAP
FFF8
0000
0000
0000
0000
FFF8
ENDCHAR
STARTCHAR 003E
ENCODING 62
SWIDTH 666 0
DWIDTH 16 0
BBX 13 13 2 1
BITMAP
C000
F000
1C00
0700
01C0
0070
0018
0070
03C0
0E00
3800
E000
8000
ENDCHAR
STARTCHAR 003F
ENCODING 63
SWIDTH 541 0
DWIDTH 13 0
BBX 11 17 1 0
BITMAP
1F00
7FC0
E1C0
C0E0
0060
00E0
00C0
01C0
0300
0600
0400
0C00
0C00
0000
0000
0C00
0C00
ENDCHAR
STARTCHAR 0040
ENCODING 64
SWIDTH 875 0
DWIDTH 21 0
BBX 18 17 2 0
BITMAP
03F000
0C0C00
19E300
331D00
661980
C61880
C41880
CC18C0
CC1880
CC3080
CC3180
CE7300
47DF00
639C00
300000
1C0F00
03F800
ENDCHAR
STARTCHAR 0041
ENCODING 65
SWIDTH 625 0
DWIDTH 15 0
BBX 15 18 0 0
BITMAP
0100
0380
0380
02C0
06C0
06C0
0C60
0C60
0C70
1830
1830
3FF8
3FF8
3018
700C
600C
600E
C006
ENDCHAR
STARTCHAR 0042
ENCODING 66
SWIDTH 666 0
DWIDTH 16 0
BBX 12 17 2 0
BITMAP
FF80
FFE0
C0E0
C070
C070
C060
C0E0
FFC0
FFC0
C0E0
C030
C030
C030
C030
C0F0
FFE0
FF80
ENDCHAR
STARTCHAR 0043
ENCODING 67
SWIDTH 708 0
DWIDTH 17 0
BBX 15 17 1 0
BITMAP
03F0
0FFC
1C1E
3804
7000
6000
6000
E000
E000
E000
6000
6000
7004
380E
1C1C
0FF8
03E0
ENDCHAR
STARTCHAR 0044
ENCODING 68
SWIDTH 750 0
DWIDTH 18 0
BBX 15 17 2 0
BITMAP
FF80
FFE0
C078
C038
C01C
C00C
C00E
C00E
C00E
C00E
C00E
C00C
C01C
C038
C078
FFE0
FF80
ENDCHAR
STARTCHAR 0045
ENCODING 69
SWIDTH 583 0
DWIDTH 14 0
BBX 11 17 2 0
BITMAP
FFE0
FFE0
C000
C000
C000
C000
C000
FFC0
FFC0
C000
C000
C000
C000
C000
C000
FFE0
FFE0
ENDCHAR
STARTCHAR 0046
ENCODING 70
SWIDTH 583 0
DWIDTH 14 0
BBX 11 17 2 0
BITMAP
FFE0
FFE0
C000
C000
C000
C000
C000
FFC0
FFC0
C000
C000
C000
C000
C000
C000
C000
C000
ENDCHAR
STARTCHAR 0047
ENCODING 71
SWIDTH 750 0
DWIDTH 18 0
BBX 16 17 1 0
BITMAP
03F0
0FFC
1C1E
3804
7000
6000
6000
E000
E03F
E03F
6003
6003
7003
3807
1C0E
0FFC
03F0
ENDCHAR
STARTCHAR 0048
ENCODING 72
SWIDTH 750 0
DWIDTH 18 0
BBX 14 17 2 0
BITMAP
C00C
C00C
C00C
C00C
C00C
C00C
C00C
FFFC
FFFC
C00C
C00C
C00C
C00C
C00C
C00C
C00C
C00C
ENDCHAR
STARTCHAR 0049
ENCODING 73
SWIDTH 291 0
DWIDTH 7 0
BBX 3 17 2 0
BITMAP
E0
E0
E0
E0
E0
E0
E0
E0
E0
E0
E0
E0
E0
E0
E0
E0
E0
ENDCHAR
STARTCHAR 004A
ENCODING 74
SWIDTH 375 0
DWIDTH 9 0
BBX 7 17 0 0
BITMAP
06
06
06
06
06
06
06
06
06
06
06
06
06
06
0E
FC
F8
ENDCHAR
STARTCHAR 004B
ENCODING 75
SWIDTH 666 0
DWIDTH 16 0
BBX 13 17 2 0
BITMAP
C030
C060
C0C0
C180
C300
C600
CC00
DC00
FE00
E600
C300
C180
C1C0
C0E0
C070
C030
C038
ENDCHAR
STARTCHAR 004C
ENCODING 76
SWIDTH 541 0
DWIDTH 13 0
BBX 11 17 2 0
BITMAP
C000
C000
C000
C000
C000
C000
C000
C000
C000
C000
C000
C000
C000
C000
C000
FFE0
FFE0
ENDCHAR
STARTCHAR 004D
ENCODING 77
SWIDTH 916 0
DWIDTH 22 0
BBX 17 17 2 0
BITMAP
F00380
F00380
F00780
D80780
D80D80
DC0D80
CC0D80
CC1980
C61980
C63180
C73180
C33180
C36180
C1E180
C1C180
C0C180
C0C180
ENDCHAR
STARTCHAR 004E
ENCODING 78
SWIDTH 750 0
DWIDTH 18 0
BBX 14 17 2 0
BITMAP
E00C
F00C
D80C
D80C
CC0C
CE0C
C60C
C30C
C38C
C18C
C0CC
C0EC
C06C
C03C
C03C
C01C
C00C
ENDCHAR
STARTCHAR 004F
ENCODING 79
SWIDTH 791 0
DWIDTH 19 0
BBX 17 17 1 0
BITMAP
03F000
0FF800
1C1E00
380E00
700700
600300
600300
E00380
E00380
E00380
600300
600300
700700
380E00
1C1E00
0FF800
07F000
ENDCHAR
STARTCHAR 0050
ENCODING 80
SWIDTH 625 0
DWIDTH 15 0
BBX 12 17 2 0
BITMAP
FF80
FFC0
C0E0
C070
C030
C030
C070
C0E0
FFC0
FF80
C000
C000
C000
C000
C000
C000
C000
ENDCHAR
STARTCHAR 0051
ENCODING 81
SWIDTH 791 0
DWIDTH 19 0
BBX 17 18 1 -1
BITMAP
03E000
0FF800
1C1C00
380E00
700700
600300
600300
E00380
E00380
E00380
600380
600300
70E300
387600
3C1E00
0FFE00
07F700
000180
ENDCHAR
STARTCHAR 0052
ENCODING 82
SWIDTH 666 0
DWIDTH 16 0
BBX 13 17 2 0
BITMAP
FF80
FFC0
C0E0
C070
C030
C030
C060
C0E0
FF80
FF00
C1C0
C0C0
C0E0
C060
C030
C030
C038
ENDCHAR
STARTCHAR 0053
ENCODING 83
SWIDTH 583 0
DWIDTH 14 0
BBX 12 17 1 0
BITMAP
1F80
3FE0
60F0
6000
6000
6000
7800
3E00
0F80
03E0
00E0
0070
0030
4030
F060
7FE0
1F80
ENDCHAR
STARTCHAR 0054
ENCODING 84
SWIDTH 583 0
DWIDTH 14 0
BBX 15 17 0 0
BITMAP
FFFE
FFFE
0300
0300
0300
0300
0300
0300
0300
0300
0300
0300
0300
0300
0300
0300
0300
ENDCHAR
STARTCHAR 0055
ENCODING 85
SWIDTH 750 0
DWIDTH 18 0
BBX 14 17 2 0
BITMAP
C00C
C00C
C00C
C00C
C00C
C00C
C00C
C00C
C00C
C00C
C00C
C00C
C01C
E018
7078
3FF0
0FC0
ENDCHAR
STARTCHAR 0056
ENCODING 86
SWIDTH 625 0
DWIDTH 15 0
BBX 15 17 0 0
BITMAP
E006
600E
600C
700C
301C
3018
1818
1830
1C30
0C60
0C60
0E60
06C0
06C0
0380
0380
0380
ENDCHAR
STARTCHAR 0057
ENCODING 87
SWIDTH 916 0
DWIDTH 22 0
BBX 22 17 0 0
BITMAP
E0300C
60301C
603818
707818
307818
306C30
30CC30
38CC30
18C660
188660
198660
0D8660
0D83C0
0D03C0
0703C0
070180
060180
ENDCHAR
STARTCHAR 0058
ENCODING 88
SWIDTH 666 0
DWIDTH 16 0
BBX 14 17 1 0
BITMAP
E00C
601C
3038
3830
1C60
0CE0
0EC0
0780
0380
0780
0EC0
0CE0
1860
3830
7038
601C
E00C
ENDCHAR
STARTCHAR 0059
ENCODING 89
SWIDTH 625 0
DWIDTH 15 0
BBX 15 17 0 0
BITMAP
E00E
701C
3018
3830
1C70
0C60
0EC0
07C0
0380
0300
0300
0300
0300
0300
0300
0300
0300
ENDCHAR
STARTCHAR 005A
ENCODING 90
SWIDTH 625 0
DWIDTH 15 0
BBX 14 17 1 0
BITMAP
7FF8
7FF8
0030
0070
00E0
01C0
0180
0380
0700
0E00
0C00
1800
3800
7000
E000
FFFC
FFFC
ENDCHAR
STARTCHAR 005B
ENCODING 91
SWIDTH 291 0
DWIDTH 7 0
BBX 4 22 2 -4
BITMAP
F0
C0
C0
C0
C0
C0
C0
C0
C0
C0
C0
C0
C0
C0
C0
C0
C0
C0
C0
C0
C0
F0
ENDCHAR
STARTCHAR 005C
ENCODING 92
SWIDTH 500 0
DWIDTH 12 0
BBX 9 21 2 -3
BITMAP
8000
C000
4000
4000
6000
2000
2000
1000
1000
1800
0800
0800
0C00
0400
0400
0200
0200
0300
0100
0100
0180
ENDCHAR
STARTCHAR 005D
ENCODING 93
SWIDTH 291 0
DWIDTH 7 0
BBX 4 22 1 -4
BITMAP
F0
30
30
30
30
30
30
30
30
30
30
30
30
30
30
30
30
30
30
30
30
F0
ENDCHAR
STARTCHAR 005E
ENCODING 94
SWIDTH 500 0
DWIDTH 12 0
BBX 10 7 1 8
BITMAP
0C00
1E00
3300
2100
6180
C0C0
8040
ENDCHAR
STARTCHAR 005F
ENCODING 95
SWIDTH 500 0
DWIDTH 12 0
BBX 12 1 0 -3
BITMAP
FFF0
ENDCHAR
STARTCHAR 0060
ENCODING 96
SWIDTH 500 0
DWIDTH 12 0
BBX 3 3 4 14
BITMAP
C0
40
60
ENDCHAR
STARTCHAR 0061
ENCODING 97
SWIDTH 541 0
DWIDTH 13 0
BBX 11 12 1 0
BITMAP
1F00
3F80
71C0
00C0
00C0
3FC0
70C0
E0C0
C0C0
E1C0
7F40
3E60
ENDCHAR
STARTCHAR 0062
ENCODING 98
SWIDTH 625 0
DWIDTH 15 0
BBX 12 18 2 0
BITMAP
C000
C000
C000
C000
C000
C000
CF80
DFC0
F0E0
E060
C070
C030
C030
C070
E060
F0E0
FFC0
CF80
ENDCHAR
STARTCHAR 0063
ENCODING 99
SWIDTH 541 0
DWIDTH 13 0
BBX 11 12 1 0
BITMAP
0F80
3FC0
70E0
6000
E000
C000
C000
E000
6000
70E0
3FC0
0F80
ENDCHAR
STARTCHAR 0064
ENCODING 100
SWIDTH 625 0
DWIDTH 15 0
BBX 12 18 1 0
BITMAP
0030
0030
0030
0030
0030
0030
1F30
3FB0
70F0
6070
E030
C030
C030
E030
6070
70F0
3FB0
1F30
ENDCHAR
STARTCHAR 0065
ENCODING 101
SWIDTH 583 0
DWIDTH 14 0
BBX 11 12 1 0
BITMAP
0F80
3FC0
70E0
6060
C060
FFE0
FFE0
C000
6000
7060
3FE0
0F80
ENDCHAR
STARTCHAR 0066
ENCODING 102
SWIDTH 291 0
DWIDTH 7 0
BBX 9 18 0 0
BITMAP
0F80
1F80
1800
3800
3000
3000
FF00
FF00
3000
3000
3000
3000
3000
3000
3000
3000
3000
3000
ENDCHAR
STARTCHAR 0067
ENCODING 103
SWIDTH 541 0
DWIDTH 13 0
BBX 11 18 1 -5
BITMAP
0060
1FE0
3F80
71C0
60C0
60C0
60C0
31C0
3F00
6000
6000
7F80
3FE0
6060
C060
C060
60E0
1F80
ENDCHAR
STARTCHAR 0068
ENCODING 104
SWIDTH 625 0
DWIDTH 15 0
BBX 11 18 2 0
BITMAP
C000
C000
C000
C000
C000
C000
CF80
DFC0
F0C0
E0C0
C0E0
C0E0
C0E0
C0E0
C0E0
C0E0
C0E0
C0E0
ENDCHAR
STARTCHAR 0069
ENCODING 105
SWIDTH 250 0
DWIDTH 6 0
BBX 2 17 2 0
BITMAP
C0
C0
00
00
00
C0
C0
C0
C0
C0
C0
C0
C0
C0
C0
C0
C0
ENDCHAR
STARTCHAR 006A
ENCODING 106
SWIDTH 250 0
DWIDTH 6 0
BBX 5 22 -1 -5
BITMAP
18
18
00
00
00
18
18
18
18
18
18
18
18
18
18
18
18
18
18
38
F0
60
ENDCHAR
STARTCHAR 006B
ENCODING 107
SWIDTH 500 0
DWIDTH 12 0
BBX 10 18 2 0
BITMAP
C000
C000
C000
C000
C000
C000
C180
C300
C600
CC00
D800
F800
EC00
CE00
C700
C300
C180
C1C0
ENDCHAR
STARTCHAR 006C
ENCODING 108
SWIDTH 250 0
DWIDTH 6 0
BBX 2 18 2 0
BITMAP
C0
C0
C0
C0
C0
C0
C0
C0
C0
C0
C0
C0
C0
C0
C0
C0
C0
C0
ENDCHAR
STARTCHAR 006D
ENCODING 109
SWIDTH 875 0
DWIDTH 21 0
BBX 17 12 2 0
BITMAP
CF1E00
FFBF00
F1E380
E1C180
C18180
C18180
C18180
C18180
C18180
C18180
C18180
C18180
ENDCHAR
STARTCHAR 006E
ENCODING 110
SWIDTH 625 0
DWIDTH 15 0
BBX 10 12 2 0
BITMAP
CF80
DFC0
F0C0
E0C0
C0C0
C0C0
C0C0
C0C0
C0C0
C0C0
C0C0
C0C0
ENDCHAR
STARTCHAR 006F
ENCODING 111
SWIDTH 625 0
DWIDTH 15 0
BBX 12 12 1 0
BITMAP
0F80
3FC0
70E0
6070
E030
C030
C030
E030
6070
70E0
3FC0
0F80
ENDCHAR
STARTCHAR 0070
ENCODING 112
SWIDTH 625 0
DWIDTH 15 0
BBX 12 17 2 -5
BITMAP
CF80
DFC0
F0E0
E060
C060
C070
C070
C070
E060
F0E0
FFC0
CF80
C000
C000
C000
C000
C000
ENDCHAR
STARTCHAR 0071
ENCODING 113
SWIDTH 625 0
DWIDTH 15 0
BBX 12 17 1 -5
BITMAP
1F30
3FF0
70F0
6070
E030
C030
C030
E030
6070
70F0
3FB0
1F30
0030
0030
0030
0030
0030
ENDCHAR
STARTCHAR 0072
ENCODING 114
SWIDTH 375 0
DWIDTH 9 0
BBX 7 12 2 0
BITMAP
CE
DC
F0
E0
E0
C0
C0
C0
C0
C0
C0
C0
ENDCHAR
STARTCHAR 0073
ENCODING 115
SWIDTH 458 0
DWIDTH 11 0
BBX 9 12 1 0
BITMAP
3E00
7F80
E100
C000
6000
3800
0700
0180
0180
4180
FF00
3E00
ENDCHAR
STARTCHAR 0074
ENCODING 116
SWIDTH 333 0
DWIDTH 8 0
BBX 7 15 1 1
BITMAP
60
60
60
FE
FE
60
60
60
60
60
60
60
70
3C
3E
ENDCHAR
STARTCHAR 0075
ENCODING 117
SWIDTH 625 0
DWIDTH 15 0
BBX 10 12 2 0
BITMAP
C0C0
C0C0
C0C0
C0C0
C0C0
C0C0
C0C0
C0C0
C0C0
E3C0
7FC0
3CC0
ENDCHAR
STARTCHAR 0076
ENCODING 118
SWIDTH 500 0
DWIDTH 12 0
BBX 11 12 0 0
BITMAP
E060
6060
60E0
30C0
30C0
3180
1980
1900
0F00
0F00
0600
0600
ENDCHAR
STARTCHAR 0077
ENCODING 119
SWIDTH 750 0
DWIDTH 18 0
BBX 18 12 0 0
BITMAP
C0C0C0
60C180
61E180
61E180
312300
333300
333300
1A1200
1E1E00
1E1E00
0C0C00
0C0C00
ENDCHAR
STARTCHAR 0078
ENCODING 120
SWIDTH 500 0
DWIDTH 12 0
BBX 10 12 1 0
BITMAP
C0C0
E180
6380
3300
1E00
1C00
1C00
3E00
3300
6380
E180
C0C0
ENDCHAR
STARTCHAR 0079
ENCODING 121
SWIDTH 500 0
DWIDTH 12 0
BBX 12 17 0 -5
BITMAP
E070
6060
6060
30C0
30C0
1980
1980
1980
0F00
0F00
0600
0600
0600
0C00
1C00
7800
2000
ENDCHAR
STARTCHAR 007A
ENCODING 122
SWIDTH 458 0
DWIDTH 11 0
BBX 9 12 1 0
BITMAP
FF80
FF80
0300
0300
0600
0C00
1800
3000
7000
6000
FF80
FF80
ENDCHAR
STARTCHAR 007B
ENCODING 123
SWIDTH 333 0
DWIDTH 8 0
BBX 6 22 1 -4
BITMAP
1C
38
30
30
30
30
30
30
30
20
C0
60
20
30
30
30
30
30
30
30
38
0C
ENDCHAR
STARTCHAR 007C
ENCODING 124
SWIDTH 208 0
DWIDTH 5 0
BBX 1 22 2 -4
BITMAP
80
80
80
80
80
80
80
80
80
80
80
80
80
80
80
80
80
80
80
80
80
80
ENDCHAR
STARTCHAR 007D
ENCODING 125
SWIDTH 333 0
DWIDTH 8 0
BBX 5 22 1 -4
BITMAP
C0
70
30
30
30
30
30
30
30
10
18
18
30
30
30
30
30
30
30
30
70
C0
ENDCHAR
STARTCHAR 007E
ENCODING 126
SWIDTH 500 0
DWIDTH 12 0
BBX 8 3 2 14
BITMAP
70
D9
0E
ENDCHAR
STARTCHAR 00A0
ENCODING 160
SWIDTH 250 0
DWIDTH 6 0
BBX 0 0 0 0
BITMAP
ENDCHAR
STARTCHAR 00A1
ENCODING 161
SWIDTH 291 0
DWIDTH 7 0
BBX 3 17 2 0
BITMAP
E0
E0
00
00
40
40
40
40
60
60
60
60
60
E0
E0
E0
E0
ENDCHAR
STARTCHAR 00A2
ENCODING 162
SWIDTH 625 0
DWIDTH 15 0
BBX 11 18 2 1
BITMAP
00C0
0180
0180
1F00
3FC0
73C0
E260
C600
C600
C400
CC00
CC60
F8E0
7FC0
3F00
3000
3000
2000
ENDCHAR
STARTCHAR 00A3
ENCODING 163
SWIDTH 833 0
DWIDTH 20 0
BBX 16 18 2 0
BITMAP
03E0
07F8
0E38
0C18
0C00
0400
7FF0
7FF0
0300
0300
0300
7B00
FF02
C703
8383
C7C6
FC7C
7838
ENDCHAR
STARTCHAR 00A4
ENCODING 164
SWIDTH 625 0
DWIDTH 15 0
BBX 11 11 2 3
BITMAP
DF60
71C0
6040
4040
C020
C020
C020
4040
6040
71E0
CF20
ENDCHAR
STARTCHAR 00A5
ENCODING 165
SWIDTH 625 0
DWIDTH 15 0
BBX 14 17 1 0
BITMAP
C01C
E038
7030
3060
18C0
0D80
0700
7FF0
0300
0300
0300
7FF0
0300
0300
0300
0300
0300
ENDCHAR
STARTCHAR 00A6
ENCODING 166
SWIDTH 208 0
DWIDTH 5 0
BBX 1 22 2 -4
BITMAP
80
80
80
80
80
80
80
80
80
00
00
00
00
80
80
80
80
80
80
80
80
80
ENDCHAR
STARTCHAR 00A7
ENCODING 167
SWIDTH 583 0
DWIDTH 14 0
BBX 10 22 2 -2
BITMAP
1E00
3F80
6180
60C0
60C0
6000
7000
3C00
6F00
C380
C0C0
E0C0
70C0
3D80
0F00
0380
01C0
C0C0
E0C0
61C0
7F80
1F00
ENDCHAR
STARTCHAR 00A8
ENCODING 168
SWIDTH 500 0
DWIDTH 12 0
BBX 6 2 3 15
BITMAP
CC
CC
ENDCHAR
STARTCHAR 00A9
ENCODING 169
SWIDTH 1000 0
DWIDTH 24 0
BBX 20 20 2 -1
BITMAP
01F800
070600
0C0100
10F880
23FC40
638E60
460620
C60020
8E0010
8C0010
8C0010
8E0010
4E0030
460720
478E20
23FC40
10F880
080100
060600
01F800
ENDCHAR
STARTCHAR 00AA
ENCODING 170
SWIDTH 458 0
DWIDTH 11 0
BBX 8 10 1 7
BITMAP
3E
62
03
3F
63
43
67
39
00
FF
ENDCHAR
STARTCHAR 00AB
ENCODING 171
SWIDTH 583 0
DWIDTH 14 0
BBX 9 10 3 2
BITMAP
1100
3100
6300
6600
CE00
CC00
C600
6200
3300
3180
ENDCHAR
STARTCHAR 00AC
ENCODING 172
SWIDTH 666 0
DWIDTH 16 0
BBX 12 5 2 5
BITMAP
FFF0
0030
0030
0030
0030
ENDCHAR
STARTCHAR 00AD
ENCODING 173
SWIDTH 666 0
DWIDTH 16 0
BBX 13 1 2 7
BITMAP
FFF8
ENDCHAR
STARTCHAR 00AE
ENCODING 174
SWIDTH 1000 0
DWIDTH 24 0
BBX 20 19 2 0
BITMAP
01F800
070600
1C0300
300080
23F840
63FC60
430E20
C30620
830E10
833C10
83F010
831810
430C20
430E20
230640
3307C0
180180
060600
01F800
ENDCHAR
STARTCHAR 00AF
ENCODING 175
SWIDTH 500 0
DWIDTH 12 0
BBX 6 1 3 15
BITMAP
FC
ENDCHAR
STARTCHAR 00B0
ENCODING 176
SWIDTH 333 0
DWIDTH 8 0
BBX 6 5 1 15
BITMAP
78
C8
84
C8
78
ENDCHAR
STARTCHAR 00B1
ENCODING 177
SWIDTH 666 0
DWIDTH 16 0
BBX 13 14 2 2
BITMAP
0600
0600
0600
0600
0600
FFF8
0600
0600
0600
0600
0600
0600
0000
FFF8
ENDCHAR
STARTCHAR 00B2
ENCODING 178
SWIDTH 416 0
DWIDTH 10 0
BBX 7 8 1 9
BITMAP
3C
66
46
0E
3C
60
40
FE
ENDCHAR
STARTCHAR 00B3
ENCODING 179
SWIDTH 416 0
DWIDTH 10 0
BBX 7 9 1 8
BITMAP
3C
46
06
0C
1C
06
46
C6
7C
ENDCHAR
STARTCHAR 00B4
ENCODING 180
SWIDTH 500 0
DWIDTH 12 0
BBX 3 3 5 14
BITMAP
60
40
C0
ENDCHAR
STARTCHAR 00B6
ENCODING 182
SWIDTH 1000 0
DWIDTH 24 0
BBX 10 21 6 -1
BITMAP
3FC0
7CC0
FCC0
FCC0
FCC0
FCC0
7CC0
3CC0
0CC0
0CC0
0CC0
0CC0
0CC0
0CC0
0CC0
0CC0
0CC0
0CC0
0CC0
0CC0
0CC0
ENDCHAR
STARTCHAR 00B7
ENCODING 183
SWIDTH 250 0
DWIDTH 6 0
BBX 2 3 2 6
BITMAP
C0
C0
C0
ENDCHAR
STARTCHAR 00B8
ENCODING 184
SWIDTH 500 0
DWIDTH 12 0
BBX 5 5 4 -5
BITMAP
40
F0
30
18
F0
ENDCHAR
STARTCHAR 00B9
ENCODING 185
SWIDTH 416 0
DWIDTH 10 0
BBX 4 9 2 9
BITMAP
30
F0
B0
30
30
30
30
30
30
ENDCHAR
STARTCHAR 00BA
ENCODING 186
SWIDTH 458 0
DWIDTH 11 0
BBX 8 10 1 7
BITMAP
3C
63
43
C1
C1
43
63
3E
00
FF
ENDCHAR
STARTCHAR 00BB
ENCODING 187
SWIDTH 583 0
DWIDTH 14 0
BBX 9 11 3 2
BITMAP
8800
CC00
C600
6300
3300
3180
3300
6600
C600
8C00
8000
ENDCHAR
STARTCHAR 00BC
ENCODING 188
SWIDTH 833 0
DWIDTH 20 0
BBX 17 18 2 -1
BITMAP
100200
F00600
F00C00
300800
301000
303000
306000
304000
30C000
318600
030A00
021A00
061200
0C2200
086200
107F80
300200
600200
ENDCHAR
STARTCHAR 00BD
ENCODING 189
SWIDTH 833 0
DWIDTH 20 0
BBX 17 18 2 -1
BITMAP
100200
F00600
F00C00
300800
301000
303000
306000
304000
30C000
318F00
011980
023180
060180
0C0700
080E00
181800
303000
203F80
ENDCHAR
STARTCHAR 00BE
ENCODING 190
SWIDTH 833 0
DWIDTH 20 0
BBX 18 18 1 -1
BITMAP
000100
3C0300
460600
060400
0C0C00
1C1800
063000
462000
C66000
7CC300
018700
010D00
030900
061100
043100
083FC0
180100
300100
ENDCHAR
STARTCHAR 00BF
ENCODING 191
SWIDTH 541 0
DWIDTH 13 0
BBX 11 17 1 0
BITMAP
0600
0600
0000
0000
0600
0600
0600
0C00
1800
7000
6000
E000
E060
E060
70E0
3FC0
1F00
ENDCHAR
STARTCHAR 00C0
ENCODING 192
SWIDTH 625 0
DWIDTH 15 0
BBX 15 22 0 0
BITMAP
0600
0300
0180
0000
0180
0380
0380
02C0
06C0
06C0
0C60
0C60
0C70
1830
1830
3FF8
3FF8
301C
700C
600C
600E
C006
ENDCHAR
STARTCHAR 00C1
ENCODING 193
SWIDTH 625 0
DWIDTH 15 0
BBX 15 22 0 0
BITMAP
00C0
0180
0180
0000
0180
0380
0380
02C0
06C0
06C0
0C60
0C60
0C70
1830
1830
3FF8
3FF8
301C
700C
600C
600E
C006
ENDCHAR
STARTCHAR 00C2
ENCODING 194
SWIDTH 625 0
DWIDTH 15 0
BBX 15 22 0 0
BITMAP
0180
0380
0640
0C60
0000
0380
0380
02C0
06C0
06C0
0C60
0C60
0C70
1830
1830
1FF8
3FF8
301C
700C
600C
600E
C006
ENDCHAR
STARTCHAR 00C3
ENCODING 195
SWIDTH 625 0
DWIDTH 15 0
BBX 15 21 0 0
BITMAP
0F30
18E0
0000
0000
0380
0380
02C0
06C0
06C0
0C60
0C60
0C70
1830
1830
1FF8
3FF8
301C
700C
600C
600E
C006
ENDCHAR
STARTCHAR 00C4
ENCODING 196
SWIDTH 625 0
DWIDTH 15 0
BBX 15 21 0 0
BITMAP
0C60
0C60
0000
0000
0380
0380
02C0
06C0
06C0
0C60
0C60
0C70
1830
1830
1FF8
3FF8
301C
700C
600C
600E
C006
ENDCHAR
STARTCHAR 00C5
ENCODING 197
SWIDTH 625 0
DWIDTH 15 0
BBX 15 22 0 0
BITMAP
0380
0240
0240
0380
0000
0380
0380
02C0
06C0
06C0
0C60
0C60
0C70
1830
1830
1FF8
3FF8
301C
700C
600C
600E
C006
ENDCHAR
STARTCHAR 00C6
ENCODING 198
SWIDTH 875 0
DWIDTH 21 0
BBX 20 17 0 0
BITMAP
01FFF0
01FFF0
03E000
036000
076000
063000
063000
0C3FE0
0C3FE0
183000
1FF000
3FF800
301800
301800
701800
601FF0
E01FF0
ENDCHAR
STARTCHAR 00C7
ENCODING 199
SWIDTH 708 0
DWIDTH 17 0
BBX 15 23 1 -6
BITMAP
03F0
0FFC
1C1E
3804
7000
6000
6000
E000
E000
E000
6000
6000
7006
380E
1C1C
0FF8
01C0
0180
01E0
0060
0060
03E0
0300
ENDCHAR
STARTCHAR 00C8
ENCODING 200
SWIDTH 583 0
DWIDTH 14 0
BBX 11 22 2 0
BITMAP
1800
0C00
0C00
0600
0000
FFE0
FFE0
C000
C000
C000
C000
C000
FFC0
FFC0
C000
C000
C000
C000
C000
C000
FFE0
FFE0
ENDCHAR
STARTCHAR 00C9
ENCODING 201
SWIDTH 583 0
DWIDTH 14 0
BBX 11 22 2 0
BITMAP
0300
0700
0600
0400
0000
FFE0
FFE0
C000
C000
C000
C000
C000
FFC0
FFC0
C000
C000
C000
C000
C000
C000
FFE0
FFE0
ENDCHAR
STARTCHAR 00CA
ENCODING 202
SWIDTH 583 0
DWIDTH 14 0
BBX 11 21 2 0
BITMAP
0E00
1B00
1180
0000
FFE0
FFE0
C000
C000
C000
C000
C000
FFC0
FFC0
C000
C000
C000
C000
C000
C000
FFE0
FFE0
ENDCHAR
STARTCHAR 00CB
ENCODING 203
SWIDTH 583 0
DWIDTH 14 0
BBX 11 21 2 0
BITMAP
3180
3180
3180
0000
FFE0
FFE0
C000
C000
C000
C000
C000
FFC0
FFC0
C000
C000
C000
C000
C000
C000
FFE0
FFE0
ENDCHAR
STARTCHAR 00CC
ENCODING 204
SWIDTH 291 0
DWIDTH 7 0
BBX 4 22 1 0
BITMAP
C0
60
60
00
70
70
70
70
70
70
70
70
70
70
70
70
70
70
70
70
70
70
ENDCHAR
STARTCHAR 00CD
ENCODING 205
SWIDTH 291 0
DWIDTH 7 0
BBX 4 22 2 0
BITMAP
30
60
40
00
E0
E0
E0
E0
E0
E0
E0
E0
E0
E0
E0
E0
E0
E0
E0
E0
E0
E0
ENDCHAR
STARTCHAR 00CE
ENCODING 206
SWIDTH 291 0
DWIDTH 7 0
BBX 6 21 0 0
BITMAP
38
6C
C4
00
38
38
38
38
38
38
38
38
38
38
38
38
38
38
38
38
38
ENDCHAR
STARTCHAR 00CF
ENCODING 207
SWIDTH 291 0
DWIDTH 7 0
BBX 7 21 0 0
BITMAP
C6
C6
00
00
38
38
38
38
38
38
38
38
38
38
38
38
38
38
38
38
38
ENDCHAR
STARTCHAR 00D0
ENCODING 208
SWIDTH 750 0
DWIDTH 18 0
BBX 16 17 1 0
BITMAP
7FC0
7FF0
603C
601C
600E
6006
6007
FE07
FE07
6007
6007
6006
600E
601C
603C
7FF0
7FC0
ENDCHAR
STARTCHAR 00D1
ENCODING 209
SWIDTH 750 0
DWIDTH 18 0
BBX 14 21 2 0
BITMAP
0E20
1B20
00C0
0000
E00C
F00C
D80C
D80C
CC0C
CE0C
C60C
C30C
C38C
C18C
C0CC
C0EC
C06C
C03C
C03C
C01C
C00C
ENDCHAR
STARTCHAR 00D2
ENCODING 210
SWIDTH 791 0
DWIDTH 19 0
BBX 17 22 1 0
BITMAP
030000
018000
018000
00C000
000000
03F000
0FF800
1C1C00
380600
700700
600300
600300
E00380
E00380
E00380
600300
600300
700700
380E00
1C1E00
0FF800
03F000
ENDCHAR
STARTCHAR 00D3
ENCODING 211
SWIDTH 791 0
DWIDTH 19 0
BBX 17 22 1 0
BITMAP
006000
00C000
00C000
018000
000000
03F000
0FF800
1C1C00
380600
700700
600300
600300
E00380
E00380
E00380
600300
600300
700700
380E00
1C1E00
0FF800
03F000
ENDCHAR
STARTCHAR 00D4
ENCODING 212
SWIDTH 791 0
DWIDTH 19 0
BBX 17 21 1 0
BITMAP
01C000
036000
022000
000000
03F000
0FF800
1C1C00
380600
700700
600300
600300
E00380
E00380
E00380
600300
600300
700700
380E00
1C1E00
0FF800
03F000
ENDCHAR
STARTCHAR 00D5
ENCODING 213
SWIDTH 791 0
DWIDTH 19 0
BBX 17 21 1 0
BITMAP
070800
049800
047000
000000
03F000
0FF800
1C1C00
380600
700700
600300
600300
E00380
E00380
E00380
600300
600300
700700
380E00
1C1E00
0FF800
03F000
ENDCHAR
STARTCHAR 00D6
ENCODING 214
SWIDTH 791 0
DWIDTH 19 0
BBX 17 21 1 0
BITMAP
063000
063000
063000
000000
03F000
0FF800
1C1C00
380600
700700
600300
600300
E00380
E00380
E00380
600300
600300
700700
380E00
1C1E00
0FF800
03F000
ENDCHAR
STARTCHAR 00D7
ENCODING 215
SWIDTH 666 0
DWIDTH 16 0
BBX 10 10 3 3
BITMAP
C040
60C0
3180
1B00
0E00
0E00
1B00
3180
60C0
C040
ENDCHAR
STARTCHAR 00D8
ENCODING 216
SWIDTH 791 0
DWIDTH 19 0
BBX 17 18 1 -1
BITMAP
000200
03F200
0FFE00
1C0E00
381E00
701300
602300
606300
E0C380
E18380
E10380
630300
660300
7C0700
380E00
3C1C00
3FF800
67E000
ENDCHAR
STARTCHAR 00D9
ENCODING 217
SWIDTH 750 0
DWIDTH 18 0
BBX 14 22 2 0
BITMAP
0E00
0600
0300
0000
C00C
C00C
C00C
C00C
C00C
C00C
C00C
C00C
C00C
C00C
C00C
C00C
C00C
C01C
6018
7078
3FF0
0FC0
ENDCHAR
STARTCHAR 00DA
ENCODING 218
SWIDTH 750 0
DWIDTH 18 0
BBX 14 22 2 0
BITMAP
0180
0180
0300
0000
C00C
C00C
C00C
C00C
C00C
C00C
C00C
C00C
C00C
C00C
C00C
C00C
C00C
C01C
6018
7078
3FF0
0FC0
ENDCHAR
STARTCHAR 00DB
ENCODING 219
SWIDTH 750 0
DWIDTH 18 0
BBX 14 21 2 0
BITMAP
0780
0480
0840
0000
C00C
C00C
C00C
C00C
C00C
C00C
C00C
C00C
C00C
C00C
C00C
C00C
C01C
E018
7078
3FF0
0FC0
ENDCHAR
STARTCHAR 00DC
ENCODING 220
SWIDTH 750 0
DWIDTH 18 0
BBX 14 21 2 0
BITMAP
1CC0
1CC0
0000
0000
C00C
C00C
C00C
C00C
C00C
C00C
C00C
C00C
C00C
C00C
C00C
C00C
C01C
E018
7078
3FF0
0FC0
ENDCHAR
STARTCHAR 00DD
ENCODING 221
SWIDTH 625 0
DWIDTH 15 0
BBX 15 22 0 0
BITMAP
00C0
0180
0180
0300
0000
E00E
701C
3018
3830
1C70
0C60
0EC0
07C0
0380
0300
0300
0300
0300
0300
0300
0300
0300
ENDCHAR
STARTCHAR 00DE
ENCODING 222
SWIDTH 625 0
DWIDTH 15 0
BBX 12 17 2 0
BITMAP
C000
C000
C000
FF80
FFC0
C0E0
C070
C030
C030
C070
C0E0
FFC0
FF80
C000
C000
C000
C000
ENDCHAR
STARTCHAR 00DF
ENCODING 223
SWIDTH 583 0
DWIDTH 14 0
BBX 10 17 2 0
BITMAP
1F00
7F80
6380
C180
C180
C180
C300
CE00
CF00
C180
C0C0
C0C0
C0C0
C0C0
C1C0
DF80
DF00
ENDCHAR
STARTCHAR 00E0
ENCODING 224
SWIDTH 541 0
DWIDTH 13 0
BBX 11 17 1 0
BITMAP
1800
0C00
0600
0000
0000
1F00
3F80
70C0
00C0
00C0
3FC0
70C0
E0C0
C0C0
E1C0
7F40
3E60
ENDCHAR
STARTCHAR 00E1
ENCODING 225
SWIDTH 541 0
DWIDTH 13 0
BBX 11 17 1 0
BITMAP
0300
0600
0400
0000
0000
1F00
3F80
70C0
00C0
00C0
3FC0
70C0
E0C0
C0C0
E1C0
7F40
3E60
ENDCHAR
STARTCHAR 00E2
ENCODING 226
SWIDTH 541 0
DWIDTH 13 0
BBX 11 17 1 0
BITMAP
0E00
1B00
1100
0000
0000
1F00
3F80
70C0
00C0
00C0
3FC0
70C0
E0C0
C0C0
E1C0
7F40
3E60
ENDCHAR
STARTCHAR 00E3
ENCODING 227
SWIDTH 541 0
DWIDTH 13 0
BBX 11 17 1 0
BITMAP
1800
24C0
2380
0000
0000
1F00
3F80
70C0
00C0
00C0
3FC0
70C0
E0C0
C0C0
E1C0
7F40
3E60
ENDCHAR
STARTCHAR 00E4
ENCODING 228
SWIDTH 541 0
DWIDTH 13 0
BBX 11 17 1 0
BITMAP
3180
3180
3180
0000
0000
1F00
3F80
70C0
00C0
00C0
3FC0
70C0
E0C0
C0C0
E1C0
7F40
3E60
ENDCHAR
STARTCHAR 00E5
ENCODING 229
SWIDTH 541 0
DWIDTH 13 0
BBX 11 17 1 0
BITMAP
0E00
0900
0E00
0000
0000
1F00
3F80
70C0
00C0
00C0
3FC0
70C0
E0C0
C0C0
E1C0
7F40
3E60
ENDCHAR
STARTCHAR 00E6
ENCODING 230
SWIDTH 875 0
DWIDTH 21 0
BBX 19 12 1 0
BITMAP
1F1F00
7FFFC0
20E0C0
00C060
1FFFE0
7FFFE0
60C000
E0C000
C0E000
61F0E0
7F3FC0
3E0F80
ENDCHAR
STARTCHAR 00E7
ENCODING 231
SWIDTH 541 0
DWIDTH 13 0
BBX 11 18 1 -6
BITMAP
0F80
3FC0
70E0
6000
E000
C000
C000
C000
6000
6060
30C0
1F80
0600
0700
0380
0180
0F00
0C00
ENDCHAR
STARTCHAR 00E8
ENCODING 232
SWIDTH 583 0
DWIDTH 14 0
BBX 11 17 1 0
BITMAP
1C00
0C00
0600
0000
0000
1F00
3FC0
70E0
6060
FFE0
FFE0
C000
E000
6000
7060
3FC0
0F80
ENDCHAR
STARTCHAR 00E9
ENCODING 233
SWIDTH 583 0
DWIDTH 14 0
BBX 11 17 1 0
BITMAP
0300
0600
0600
0000
0000
1F00
3FC0
70E0
6060
FFE0
FFE0
C000
E000
6000
7060
3FC0
0F80
ENDCHAR
STARTCHAR 00EA
ENCODING 234
SWIDTH 583 0
DWIDTH 14 0
BBX 11 17 1 0
BITMAP
0E00
0F00
1980
0000
0000
1F00
3FC0
70E0
6060
FFE0
FFE0
C000
E000
6000
7060
3FC0
0F80
ENDCHAR
STARTCHAR 00EB
ENCODING 235
SWIDTH 583 0
DWIDTH 14 0
BBX 11 17 1 0
BITMAP
3980
3980
3980
0000
0000
1F00
3FC0
70E0
6060
FFE0
FFE0
C000
E000
6000
7060
3FC0
0F80
ENDCHAR
STARTCHAR 00EC
ENCODING 236
SWIDTH 250 0
DWIDTH 6 0
BBX 3 17 1 0
BITMAP
C0
60
60
00
00
60
60
60
60
60
60
60
60
60
60
60
60
ENDCHAR
STARTCHAR 00ED
ENCODING 237
SWIDTH 250 0
DWIDTH 6 0
BBX 4 17 2 0
BITMAP
30
60
C0
00
00
C0
C0
C0
C0
C0
C0
C0
C0
C0
C0
C0
C0
ENDCHAR
STARTCHAR 00EE
ENCODING 238
SWIDTH 250 0
DWIDTH 6 0
BBX 6 17 0 0
BITMAP
38
78
CC
00
00
30
30
30
30
30
30
30
30
30
30
30
30
ENDCHAR
STARTCHAR 00EF
ENCODING 239
SWIDTH 250 0
DWIDTH 6 0
BBX 7 17 0 0
BITMAP
CE
CE
CE
00
00
30
30
30
30
30
30
30
30
30
30
30
30
ENDCHAR
STARTCHAR 00F0
ENCODING 240
SWIDTH 625 0
DWIDTH 15 0
BBX 12 18 1 0
BITMAP
1800
1FC0
0F00
3980
20C0
0060
1F60
30F0
6070
6030
C030
C030
C030
E030
6070
70E0
3FC0
0F80
ENDCHAR
STARTCHAR 00F1
ENCODING 241
SWIDTH 625 0
DWIDTH 15 0
BBX 10 17 2 0
BITMAP
3800
2480
2380
0000
0000
CF80
DFC0
F0C0
E0C0
C0C0
C0C0
C0C0
C0C0
C0C0
C0C0
C0C0
C0C0
ENDCHAR
STARTCHAR 00F2
ENCODING 242
SWIDTH 625 0
DWIDTH 15 0
BBX 12 17 1 0
BITMAP
0C00
0600
0200
0000
0000
0F80
3FC0
7060
6030
E030
C030
C030
E030
6070
70E0
3FC0
1F80
ENDCHAR
STARTCHAR 00F3
ENCODING 243
SWIDTH 625 0
DWIDTH 15 0
BBX 12 17 1 0
BITMAP
0380
0300
0600
0000
0000
0F80
3FC0
7060
6030
E030
C030
C030
E030
6070
70E0
3FC0
1F80
ENDCHAR
STARTCHAR 00F4
ENCODING 244
SWIDTH 625 0
DWIDTH 15 0
BBX 12 17 1 0
BITMAP
0700
0D00
1980
0000
0000
0F80
3FC0
7060
6030
E030
C030
C030
E030
6070
70E0
3FC0
1F80
ENDCHAR
STARTCHAR 00F5
ENCODING 245
SWIDTH 625 0
DWIDTH 15 0
BBX 12 17 1 0
BITMAP
1C40
1240
0180
0000
0000
0F80
3FC0
7060
6030
E030
C030
C030
E030
6070
70E0
3FC0
1F80
ENDCHAR
STARTCHAR 00F6
ENCODING 246
SWIDTH 625 0
DWIDTH 15 0
BBX 12 17 1 0
BITMAP
18C0
18C0
18C0
0000
0000
0F80
3FC0
7060
6030
E030
C030
C030
E030
6070
70E0
3FC0
1F80
ENDCHAR
STARTCHAR 00F7
ENCODING 247
SWIDTH 666 0
DWIDTH 16 0
BBX 13 11 2 2
BITMAP
0600
0700
0600
0000
0000
FFF8
0000
0000
0600
0700
0600
ENDCHAR
STARTCHAR 00F8
ENCODING 248
SWIDTH 625 0
DWIDTH 15 0
BBX 12 13 1 0
BITMAP
0020
0FB0
3FE0
70E0
61B0
E130
C230
C630
CC30
7870
70E0
3FC0
5F80
ENDCHAR
STARTCHAR 00F9
ENCODING 249
SWIDTH 625 0
DWIDTH 15 0
BBX 10 17 2 0
BITMAP
1800
0800
0C00
0000
0000
C0C0
C0C0
C0C0
C0C0
C0C0
C0C0
C0C0
C0C0
C0C0
E3C0
7FC0
3CC0
ENDCHAR
STARTCHAR 00FA
ENCODING 250
SWIDTH 625 0
DWIDTH 15 0
BBX 10 17 2 0
BITMAP
0700
0600
0C00
0000
0000
C0C0
C0C0
C0C0
C0C0
C0C0
C0C0
C0C0
C0C0
C0C0
E3C0
7FC0
3CC0
ENDCHAR
STARTCHAR 00FB
ENCODING 251
SWIDTH 625 0
DWIDTH 15 0
BBX 10 17 2 0
BITMAP
0E00
1E00
3300
0000
0000
C0C0
C0C0
C0C0
C0C0
C0C0
C0C0
C0C0
C0C0
C0C0
E3C0
7FC0
3CC0
ENDCHAR
STARTCHAR 00FC
ENCODING 252
SWIDTH 625 0
DWIDTH 15 0
BBX 10 17 2 0
BITMAP
3380
3380
3380
0000
0000
C0C0
C0C0
C0C0
C0C0
C0C0
C0C0
C0C0
C0C0
C0C0
E3C0
7FC0
3CC0
ENDCHAR
STARTCHAR 00FD
ENCODING 253
SWIDTH 500 0
DWIDTH 12 0
BBX 12 22 0 -5
BITMAP
0300
0200
0600
0000
0000
E070
6060
6060
30C0
30C0
1980
1980
1980
0F00
0F00
0600
0600
0600
0C00
1C00
7800
3000
ENDCHAR
STARTCHAR 00FE
ENCODING 254
SWIDTH 625 0
DWIDTH 15 0
BBX 12 23 2 -5
BITMAP
C000
C000
C000
C000
C000
C000
CF80
DFC0
F0E0
E060
C070
C030
C030
C030
E060
F0E0
DFC0
CF80
C000
C000
C000
C000
C000
ENDCHAR
STARTCHAR 00FF
ENCODING 255
SWIDTH 500 0
DWIDTH 12 0
BBX 12 22 0 -5
BITMAP
3980
3980
3980
0000
0000
E070
6060
6060
30C0
30C0
1980
1980
1980
0F00
0F00
0600
0600
0600
0C00
1C00
7800
3000
ENDCHAR
STARTCHAR 0100
ENCODING 256
SWIDTH 625 0
DWIDTH 15 0
BBX 15 21 0 0
BITMAP
0FE0
0000
0000
0180
0380
0380
06C0
06C0
06E0
0C60
0C60
0C30
1830
1830
3FF8
3FF8
301C
700C
600C
600E
C006
ENDCHAR
STARTCHAR 0101
ENCODING 257
SWIDTH 541 0
DWIDTH 13 0
BBX 11 16 1 0
BITMAP
1F80
0000
0000
0000
1F00
3F80
70C0
00C0
00C0
3FC0
70C0
E0C0
C0C0
E1C0
7F40
3E60
ENDCHAR
STARTCHAR 0102
ENCODING 258
SWIDTH 625 0
DWIDTH 15 0
BBX 15 21 0 0
BITMAP
0C60
07C0
0000
0000
0380
0380
02C0
06C0
06C0
0C60
0C60
0C70
1830
1830
3FF8
3FF8
3018
700C
600C
600E
C006
ENDCHAR
STARTCHAR 0103
ENCODING 259
SWIDTH 541 0
DWIDTH 13 0
BBX 11 17 1 0
BITMAP
3080
1180
0F00
0000
0000
1F00
3F80
70C0
00C0
00C0
3FC0
70C0
E0C0
C0C0
E1C0
7F40
3E60
ENDCHAR
STARTCHAR 0104
ENCODING 260
SWIDTH 625 0
DWIDTH 15 0
BBX 16 23 0 -6
BITMAP
0380
0380
02C0
06C0
06C0
0C60
0C60
0C70
1830
1830
3FF8
3FF8
3018
700C
600C
600E
C006
000E
0018
0010
0030
003F
001E
ENDCHAR
STARTCHAR 0105
ENCODING 261
SWIDTH 541 0
DWIDTH 13 0
BBX 11 18 1 -6
BITMAP
1F00
3F80
70C0
00C0
00C0
3FC0
70C0
E0C0
C0C0
E1C0
7F40
3E60
00C0
0180
0300
0300
03E0
01C0
ENDCHAR
STARTCHAR 0106
ENCODING 262
SWIDTH 708 0
DWIDTH 17 0
BBX 15 22 1 0
BITMAP
0060
00C0
00C0
0180
0000
03F0
0FFC
1C1E
3804
7000
6000
6000
E000
E000
E000
6000
6000
7004
380E
1C1C
0FF8
03E0
ENDCHAR
STARTCHAR 0107
ENCODING 263
SWIDTH 541 0
DWIDTH 13 0
BBX 11 17 1 0
BITMAP
0300
0300
0600
0000
0000
0F80
3FC0
70E0
6000
E000
C000
C000
E000
6000
70E0
3FC0
1F80
ENDCHAR
STARTCHAR 0108
ENCODING 264
SWIDTH 708 0
DWIDTH 17 0
BBX 15 21 1 0
BITMAP
01C0
0360
0220
0000
03F0
0FFC
1C1E
3804
7000
6000
6000
E000
E000
E000
6000
6000
7004
380E
1C1C
0FF8
03E0
ENDCHAR
STARTCHAR 0109
ENCODING 265
SWIDTH 541 0
DWIDTH 13 0
BBX 11 17 1 0
BITMAP
0700
0F00
1980
0000
0000
0F80
3FC0
70E0
6000
E000
C000
C000
E000
6000
70E0
3FC0
1F80
ENDCHAR
STARTCHAR 010C
ENCODING 268
SWIDTH 708 0
DWIDTH 17 0
BBX 15 21 1 0
BITMAP
0320
0160
01C0
0000
03F0
0FFC
1C1E
3804
7000
6000
6000
E000
E000
E000
6000
6000
7004
380E
1C1C
0FF8
03E0
ENDCHAR
STARTCHAR 010D
ENCODING 269
SWIDTH 541 0
DWIDTH 13 0
BBX 11 17 1 0
BITMAP
1980
0F00
0600
0000
0000
0F80
3FC0
70E0
6000
E000
C000
C000
E000
6000
70E0
3FC0
1F80
ENDCHAR
STARTCHAR 010E
ENCODING 270
SWIDTH 750 0
DWIDTH 18 0
BBX 15 21 2 0
BITMAP
0C80
0580
0700
0000
FF80
FFE0
C078
C038
C01C
C00C
C00E
C00E
C00E
C00E
C00E
C00C
C01C
C038
C078
FFE0
FF80
ENDCHAR
STARTCHAR 010F
ENCODING 271
SWIDTH 625 0
DWIDTH 15 0
BBX 16 18 1 0
BITMAP
0033
0036
0036
0034
0034
0030
1F30
3FF0
7070
6070
C030
C030
C030
E030
6070
70F0
3FB0
1F30
ENDCHAR
STARTCHAR 0111
ENCODING 273
SWIDTH 625 0
DWIDTH 15 0
BBX 13 18 1 0
BITMAP
0030
0030
03F8
0030
0030
0030
1F30
3FF0
7070
6070
C030
C030
C030
E030
6070
70F0
3FB0
1F30
ENDCHAR
STARTCHAR 0112
ENCODING 274
SWIDTH 583 0
DWIDTH 14 0
BBX 11 21 2 0
BITMAP
3F80
0000
0000
0000
FFE0
FFE0
C000
C000
C000
C000
C000
FFC0
FFC0
C000
C000
C000
C000
C000
C000
FFE0
FFE0
ENDCHAR
STARTCHAR 0113
ENCODING 275
SWIDTH 583 0
DWIDTH 14 0
BBX 11 16 1 0
BITMAP
1F80
0000
0000
0000
1F00
3FC0
70E0
6060
FFE0
FFE0
C000
E000
6000
7060
3FC0
0F80
ENDCHAR
STARTCHAR 0118
ENCODING 280
SWIDTH 583 0
DWIDTH 14 0
BBX 11 23 2 -6
BITMAP
FFE0
FFE0
C000
C000
C000
C000
C000
FFC0
FFC0
C000
C000
C000
C000
C000
C000
FFE0
FFE0
0600
1C00
1800
3000
3F00
1E00
ENDCHAR
STARTCHAR 0119
ENCODING 281
SWIDTH 583 0
DWIDTH 14 0
BBX 11 17 1 -5
BITMAP
1F00
3FC0
70E0
6060
FFE0
FFE0
C000
E000
6000
7060
3FC0
1F80
0600
0800
1800
1F00
1F00
ENDCHAR
STARTCHAR 011A
ENCODING 282
SWIDTH 583 0
DWIDTH 14 0
BBX 11 21 2 0
BITMAP
1980
0F00
0600
0000
FFE0
FFE0
C000
C000
C000
C000
C000
FFC0
FFC0
C000
C000
C000
C000
C000
C000
FFE0
FFE0
ENDCHAR
STARTCHAR 011B
ENCODING 283
SWIDTH 583 0
DWIDTH 14 0
BBX 11 17 1 0
BITMAP
1980
0F00
0600
0000
0000
1F00
3FC0
70E0
6060
FFE0
FFE0
C000
E000
6000
7060
3FC0
0F80
ENDCHAR
STARTCHAR 011C
ENCODING 284
SWIDTH 750 0
DWIDTH 18 0
BBX 15 21 1 0
BITMAP
01C0
0360
0220
0000
03F0
0FFC
1C1E
3804
7000
6000
6000
E000
E03E
E03E
6002
6002
7002
3806
3C0E
0FFC
03F0
ENDCHAR
STARTCHAR 011D
ENCODING 285
SWIDTH 541 0
DWIDTH 13 0
BBX 11 22 1 -5
BITMAP
0E00
0B00
1180
0000
0060
1FE0
3F80
61C0
60C0
60C0
60C0
31C0
3F00
6000
6000
7F80
3FE0
60E0
C060
C060
60C0
1F80
ENDCHAR
STARTCHAR 0124
ENCODING 292
SWIDTH 750 0
DWIDTH 18 0
BBX 14 22 2 0
BITMAP
0300
0780
0C80
0840
0000
C00C
C00C
C00C
C00C
C00C
C00C
C00C
FFFC
FFFC
C00C
C00C
C00C
C00C
C00C
C00C
C00C
C00C
ENDCHAR
STARTCHAR 0125
ENCODING 293
SWIDTH 625 0
DWIDTH 15 0
BBX 12 22 1 0
BITMAP
7000
F000
9800
0000
6000
6000
6000
6000
6000
6000
67C0
6FE0
7860
7060
6030
6030
6030
6030
6030
6030
6030
6030
ENDCHAR
STARTCHAR 0127
ENCODING 295
SWIDTH 625 0
DWIDTH 15 0
BBX 12 18 1 0
BITMAP
6000
6000
FE00
6000
6000
6000
67C0
6FE0
7860
7060
6030
6030
6030
6030
6030
6030
6030
6030
ENDCHAR
STARTCHAR 012A
ENCODING 298
SWIDTH 291 0
DWIDTH 7 0
BBX 7 20 0 1
BITMAP
FE
00
00
38
38
38
38
38
38
38
38
38
38
38
38
38
38
38
38
38
ENDCHAR
STARTCHAR 012B
ENCODING 299
SWIDTH 250 0
DWIDTH 6 0
BBX 6 16 0 0
BITMAP
FC
00
00
00
30
30
30
30
30
30
30
30
30
30
30
30
ENDCHAR
STARTCHAR 0134
ENCODING 308
SWIDTH 375 0
DWIDTH 9 0
BBX 9 21 0 0
BITMAP
0E00
1B00
1180
0000
0600
0600
0600
0600
0600
0600
0600
0600
0600
0600
0600
0600
0600
0600
0E00
FC00
F800
ENDCHAR
STARTCHAR 0135
ENCODING 309
SWIDTH 250 0
DWIDTH 6 0
BBX 7 22 -1 -5
BITMAP
18
3C
26
40
00
18
18
18
18
18
18
18
18
18
18
18
18
18
18
38
F0
60
ENDCHAR
STARTCHAR 0139
ENCODING 313
SWIDTH 541 0
DWIDTH 13 0
BBX 11 22 2 0
BITMAP
0C00
1800
1000
0000
C000
C000
C000
C000
C000
C000
C000
C000
C000
C000
C000
C000
C000
C000
C000
C000
FFE0
FFE0
ENDCHAR
STARTCHAR 013A
ENCODING 314
SWIDTH 250 0
DWIDTH 6 0
BBX 4 22 2 0
BITMAP
30
60
40
00
C0
C0
C0
C0
C0
C0
C0
C0
C0
C0
C0
C0
C0
C0
C0
C0
C0
C0
ENDCHAR
STARTCHAR 013D
ENCODING 317
SWIDTH 541 0
DWIDTH 13 0
BBX 11 17 2 0
BITMAP
C300
C300
C200
C200
C600
C000
C000
C000
C000
C000
C000
C000
C000
C000
C000
FFE0
FFE0
ENDCHAR
STARTCHAR 013E
ENCODING 318
SWIDTH 291 0
DWIDTH 7 0
BBX 6 18 2 0
BITMAP
CC
C8
D8
D8
D0
C0
C0
C0
C0
C0
C0
C0
C0
C0
C0
C0
C0
C0
ENDCHAR
STARTCHAR 0141
ENCODING 321
SWIDTH 541 0
DWIDTH 13 0
BBX 13 17 0 0
BITMAP
3000
3000
3000
3000
3100
3700
3E00
3800
7000
F000
3000
3000
3000
3000
3000
3FF8
3FF8
ENDCHAR
STARTCHAR 0142
ENCODING 322
SWIDTH 250 0
DWIDTH 6 0
BBX 6 18 0 0
BITMAP
30
30
30
30
30
34
3C
38
70
F0
30
30
30
30
30
30
30
30
ENDCHAR
STARTCHAR 0143
ENCODING 323
SWIDTH 750 0
DWIDTH 18 0
BBX 14 22 2 0
BITMAP
00C0
0180
0180
0300
0000
E00C
F00C
D80C
D80C
CC0C
CE0C
C60C
C30C
C38C
C18C
C0CC
C0EC
C06C
C03C
C03C
C01C
C00C
ENDCHAR
STARTCHAR 0144
ENCODING 324
SWIDTH 625 0
DWIDTH 15 0
BBX 10 17 2 0
BITMAP
0300
0600
0600
0000
0000
CF80
DFC0
F0C0
E0C0
C0C0
C0C0
C0C0
C0C0
C0C0
C0C0
C0C0
C0C0
ENDCHAR
STARTCHAR 0147
ENCODING 327
SWIDTH 750 0
DWIDTH 18 0
BBX 14 21 2 0
BITMAP
04C0
0780
0380
0000
E00C
F00C
D80C
D80C
CC0C
CE0C
C60C
C30C
C38C
C18C
C0CC
C0EC
C06C
C03C
C03C
C01C
C00C
ENDCHAR
STARTCHAR 0148
ENCODING 328
SWIDTH 625 0
DWIDTH 15 0
BBX 10 17 2 0
BITMAP
1100
1B00
0E00
0000
0000
CF80
DFC0
F0C0
E0C0
C0C0
C0C0
C0C0
C0C0
C0C0
C0C0
C0C0
C0C0
ENDCHAR
STARTCHAR 014B
ENCODING 331
SWIDTH 625 0
DWIDTH 15 0
BBX 10 17 2 -5
BITMAP
CF80
DFC0
F0C0
E0C0
C0C0
C0C0
C0C0
C0C0
C0C0
C0C0
C0C0
C0C0
00C0
00C0
00C0
0780
0700
ENDCHAR
STARTCHAR 014C
ENCODING 332
SWIDTH 791 0
DWIDTH 19 0
BBX 17 21 1 0
BITMAP
07F000
000000
000000
000000
03F000
0FF800
1C1C00
380600
700700
600300
600300
E00380
E00380
E00380
600300
600300
700700
380E00
1C1E00
0FF800
03F000
ENDCHAR
STARTCHAR 014D
ENCODING 333
SWIDTH 625 0
DWIDTH 15 0
BBX 12 16 1 0
BITMAP
1F80
0000
0000
0000
0F80
3FC0
70E0
6070
E030
C030
C030
E030
6070
70E0
3FC0
1F80
ENDCHAR
STARTCHAR 0150
ENCODING 336
SWIDTH 791 0
DWIDTH 19 0
BBX 17 21 1 0
BITMAP
019800
01B000
012000
000000
03F000
0FF800
1C1C00
380600
700700
600300
600300
E00380
E00380
E00380
600300
600300
700700
380E00
1C1E00
0FF800
03F000
ENDCHAR
STARTCHAR 0151
ENCODING 337
SWIDTH 625 0
DWIDTH 15 0
BBX 12 17 1 0
BITMAP
06C0
0C80
0D80
0000
0000
0F80
3FC0
70E0
6070
E030
C030
C030
E030
6070
70E0
3FC0
1F80
ENDCHAR
STARTCHAR 0152
ENCODING 338
SWIDTH 1000 0
DWIDTH 24 0
BBX 22 17 1 0
BITMAP
03FFFC
0FFFFC
3C1800
381800
701800
601800
601800
E01FF8
E01FF8
E01800
601800
601800
701800
381800
1C1800
0FFFFC
03FFFC
ENDCHAR
STARTCHAR 0153
ENCODING 339
SWIDTH 958 0
DWIDTH 23 0
BBX 21 12 1 0
BITMAP
0F87C0
3FFFE0
70F830
607018
E03FF8
C03FF8
C03000
E03000
607800
70FC38
3FCFF0
0F87C0
ENDCHAR
STARTCHAR 0154
ENCODING 340
SWIDTH 666 0
DWIDTH 16 0
BBX 13 22 2 0
BITMAP
0300
0700
0600
0C00
0000
FF80
FFC0
C0E0
C070
C030
C030
C060
C0E0
FF80
FF00
C1C0
C0C0
C0E0
C060
C030
C030
C038
ENDCHAR
STARTCHAR 0155
ENCODING 341
SWIDTH 375 0
DWIDTH 9 0
BBX 7 17 2 0
BITMAP
18
18
30
00
00
CE
DC
F0
E0
E0
C0
C0
C0
C0
C0
C0
C0
ENDCHAR
STARTCHAR 0158
ENCODING 344
SWIDTH 666 0
DWIDTH 16 0
BBX 13 21 2 0
BITMAP
1900
0F00
0600
0000
FF80
FFC0
C0E0
C070
C030
C030
C060
C0E0
FF80
FF00
C1C0
C0C0
C0E0
C060
C030
C030
C038
ENDCHAR
STARTCHAR 0159
ENCODING 345
SWIDTH 375 0
DWIDTH 9 0
BBX 7 17 2 0
BITMAP
CC
78
70
00
00
CE
DC
F0
E0
E0
C0
C0
C0
C0
C0
C0
C0
ENDCHAR
STARTCHAR 015A
ENCODING 346
SWIDTH 583 0
DWIDTH 14 0
BBX 12 22 1 0
BITMAP
0180
0300
0300
0600
0000
1F80
3FE0
70F0
6000
6000
6000
7000
3C00
0F80
03C0
00E0
0070
0030
4030
F060
7FE0
1F80
ENDCHAR
STARTCHAR 015B
ENCODING 347
SWIDTH 458 0
DWIDTH 11 0
BBX 9 17 1 0
BITMAP
0600
0C00
0C00
0000
0000
3E00
7F80
E100
C000
6000
3800
0700
0180
0180
4180
FF00
3E00
ENDCHAR
STARTCHAR 015C
ENCODING 348
SWIDTH 583 0
DWIDTH 14 0
BBX 12 21 1 0
BITMAP
0700
0D00
1880
0000
1F80
3FE0
70F0
6000
6000
6000
7000
3C00
0F80
03C0
00E0
0070
0030
4030
F060
7FE0
1F80
ENDCHAR
STARTCHAR 015D
ENCODING 349
SWIDTH 458 0
DWIDTH 11 0
BBX 9 17 1 0
BITMAP
1C00
1600
3300
0000
0000
3E00
7F80
E100
C000
6000
3800
0700
0180
0180
4180
FF00
3E00
ENDCHAR
STARTCHAR 015E
ENCODING 350
SWIDTH 583 0
DWIDTH 14 0
BBX 12 23 1 -6
BITMAP
1F80
3FE0
70F0
6000
6000
6000
7000
3C00
0F80
03C0
00E0
0070
0030
4030
F060
7FE0
1F80
0000
0600
0600
0400
0C00
0C00
ENDCHAR
STARTCHAR 015F
ENCODING 351
SWIDTH 458 0
DWIDTH 11 0
BBX 9 18 1 -6
BITMAP
3E00
7F80
E100
C000
6000
3800
0700
0180
0180
4180
FF00
3E00
0000
1800
1800
1000
3000
2000
ENDCHAR
STARTCHAR 0160
ENCODING 352
SWIDTH 583 0
DWIDTH 14 0
BBX 12 21 1 0
BITMAP
1980
0F00
0600
0000
1F80
3FE0
70F0
6000
6000
6000
7000
3C00
0F80
03C0
00E0
0070
0030
4030
F060
7FE0
1F80
ENDCHAR
STARTCHAR 0161
ENCODING 353
SWIDTH 458 0
DWIDTH 11 0
BBX 9 17 1 0
BITMAP
2200
3600
1C00
0000
0000
3E00
7F80
E100
C000
6000
3800
0700
0180
0180
4180
FF00
3E00
ENDCHAR
STARTCHAR 0162
ENCODING 354
SWIDTH 583 0
DWIDTH 14 0
BBX 14 23 0 -6
BITMAP
FFFC
FFFC
0300
0300
0300
0300
0300
0300
0300
0300
0300
0300
0300
0300
0300
0300
0300
0000
0000
0300
0200
0600
0600
ENDCHAR
STARTCHAR 0163
ENCODING 355
SWIDTH 333 0
DWIDTH 8 0
BBX 7 21 1 -5
BITMAP
60
60
60
FE
FE
60
60
60
60
60
60
60
70
3E
3E
00
18
10
30
30
20
ENDCHAR
STARTCHAR 0164
ENCODING 356
SWIDTH 583 0
DWIDTH 14 0
BBX 14 21 0 0
BITMAP
0CC0
0780
0300
0000
FFFC
FFFC
0300
0300
0300
0300
0300
0300
0300
0300
0300
0300
0300
0300
0300
0300
0300
ENDCHAR
STARTCHAR 0165
ENCODING 357
SWIDTH 333 0
DWIDTH 8 0
BBX 8 18 1 0
BITMAP
03
03
02
62
66
60
FE
FE
60
60
60
60
60
60
60
70
3E
3E
ENDCHAR
STARTCHAR 016A
ENCODING 362
SWIDTH 750 0
DWIDTH 18 0
BBX 14 21 2 0
BITMAP
0FC0
0000
0000
C00C
C00C
C00C
C00C
C00C
C00C
C00C
C00C
C00C
C00C
C00C
C00C
C00C
C01C
6018
7078
3FF0
0FC0
ENDCHAR
STARTCHAR 016B
ENCODING 363
SWIDTH 625 0
DWIDTH 15 0
BBX 10 16 2 0
BITMAP
3F00
0000
0000
0000
C0C0
C0C0
C0C0
C0C0
C0C0
C0C0
C0C0
C0C0
C0C0
E3C0
7FC0
3CC0
ENDCHAR
STARTCHAR 016C
ENCODING 364
SWIDTH 750 0
DWIDTH 18 0
BBX 14 21 2 0
BITMAP
0840
0CC0
0780
0000
C00C
C00C
C00C
C00C
C00C
C00C
C00C
C00C
C00C
C00C
C00C
C00C
C01C
E018
7078
3FF0
0FC0
ENDCHAR
STARTCHAR 016D
ENCODING 365
SWIDTH 625 0
DWIDTH 15 0
BBX 10 17 2 0
BITMAP
2180
3100
1E00
0000
0000
C0C0
C0C0
C0C0
C0C0
C0C0
C0C0
C0C0
C0C0
C0C0
E3C0
7FC0
3CC0
ENDCHAR
STARTCHAR 016E
ENCODING 366
SWIDTH 750 0
DWIDTH 18 0
BBX 14 22 2 0
BITMAP
0300
0480
0480
0300
0000
C00C
C00C
C00C
C00C
C00C
C00C
C00C
C00C
C00C
C00C
C00C
C00C
C01C
6018
7078
3FF0
0FC0
ENDCHAR
STARTCHAR 016F
ENCODING 367
SWIDTH 625 0
DWIDTH 15 0
BBX 10 17 2 0
BITMAP
0E00
1200
1200
0E00
0000
C0C0
C0C0
C0C0
C0C0
C0C0
C0C0
C0C0
C0C0
C0C0
E3C0
7FC0
3CC0
ENDCHAR
STARTCHAR 0170
ENCODING 368
SWIDTH 750 0
DWIDTH 18 0
BBX 14 21 2 0
BITMAP
0260
06C0
0480
0000
C00C
C00C
C00C
C00C
C00C
C00C
C00C
C00C
C00C
C00C
C00C
C00C
C01C
E018
7078
3FF0
0FC0
ENDCHAR
STARTCHAR 0171
ENCODING 369
SWIDTH 625 0
DWIDTH 15 0
BBX 10 17 2 0
BITMAP
0CC0
0980
1B00
0000
0000
C0C0
C0C0
C0C0
C0C0
C0C0
C0C0
C0C0
C0C0
C0C0
E3C0
7FC0
3CC0
ENDCHAR
STARTCHAR 0179
ENCODING 377
SWIDTH 625 0
DWIDTH 15 0
BBX 14 22 1 0
BITMAP
0180
0180
0300
0200
0000
7FF8
7FF8
0030
0070
00E0
00C0
0180
0380
0700
0E00
0C00
1800
3800
7000
6000
FFFC
FFFC
ENDCHAR
STARTCHAR 017A
ENCODING 378
SWIDTH 458 0
DWIDTH 11 0
BBX 9 17 1 0
BITMAP
0600
0C00
0800
0000
0000
FF80
FF80
0300
0300
0600
0C00
1800
3000
7000
6000
FF80
FF80
ENDCHAR
STARTCHAR 017B
ENCODING 379
SWIDTH 625 0
DWIDTH 15 0
BBX 14 21 1 0
BITMAP
0700
0700
0000
0000
7FF8
7FF8
0030
0070
00E0
00C0
0180
0380
0700
0E00
0C00
1800
3800
7000
6000
FFFC
FFFC
ENDCHAR
STARTCHAR 017C
ENCODING 380
SWIDTH 458 0
DWIDTH 11 0
BBX 9 17 1 0
BITMAP
0C00
0C00
0000
0000
0000
FF80
FF80
0300
0300
0600
0C00
1800
3000
7000
6000
FF80
FF80
ENDCHAR
STARTCHAR 017D
ENCODING 381
SWIDTH 625 0
DWIDTH 15 0
BBX 14 21 1 0
BITMAP
0C80
0780
0700
0000
7FF8
7FF8
0030
0070
00E0
00C0
0180
0380
0700
0E00
0C00
1800
3800
7000
6000
FFFC
FFFC
ENDCHAR
STARTCHAR 017E
ENCODING 382
SWIDTH 458 0
DWIDTH 11 0
BBX 9 17 1 0
BITMAP
3300
1E00
1C00
0000
0000
FF80
FF80
0300
0300
0600
0C00
1800
3000
7000
6000
FF80
FF80
ENDCHAR
STARTCHAR 0193
ENCODING 403
SWIDTH 750 0
DWIDTH 18 0
BBX 18 19 1 0
BITMAP
0003C0
0007C0
03F600
0FFE00
1C1E00
380600
700000
600000
600000
E00000
E03E00
E03E00
600200
600200
700200
380600
3C0E00
0FFC00
03F000
ENDCHAR
STARTCHAR 01C2
ENCODING 450
SWIDTH 500 0
DWIDTH 12 0
BBX 10 16 1 1
BITMAP
0C00
0C00
0C00
0C00
0C00
FFC0
0C00
0C00
0C00
FFC0
0C00
0C00
0C00
0C00
0C00
0C00
ENDCHAR
STARTCHAR 01CD
ENCODING 461
SWIDTH 625 0
DWIDTH 15 0
BBX 15 22 0 0
BITMAP
0460
06C0
0380
0180
0100
0380
0380
02C0
06C0
06C0
0C60
0C60
0C70
1830
1830
3FF8
3FF8
3018
700C
600C
600E
C006
ENDCHAR
STARTCHAR 01CE
ENCODING 462
SWIDTH 541 0
DWIDTH 13 0
BBX 11 17 1 0
BITMAP
1980
0F00
0E00
0000
0000
1F00
3F80
71C0
00C0
00C0
3FC0
70C0
E0C0
C0C0
E1C0
7F40
3E60
ENDCHAR
STARTCHAR 01D0
ENCODING 464
SWIDTH 250 0
DWIDTH 6 0
BBX 6 17 0 0
BITMAP
CC
78
30
00
00
30
30
30
30
30
30
30
30
30
30
30
30
ENDCHAR
STARTCHAR 01D1
ENCODING 465
SWIDTH 791 0
DWIDTH 19 0
BBX 17 21 1 0
BITMAP
022000
014000
01C000
000000
03F000
0FF800
1C1E00
380E00
700700
600300
600300
E00380
E00380
E00380
600300
600300
700700
380E00
1C1E00
0FF800
07F000
ENDCHAR
STARTCHAR 01D2
ENCODING 466
SWIDTH 625 0
DWIDTH 15 0
BBX 12 17 1 0
BITMAP
1980
0F00
0700
0000
0000
0F80
3FC0
70E0
6070
E030
C030
C030
E030
6070
70E0
3FC0
0F80
ENDCHAR
STARTCHAR 01D4
ENCODING 468
SWIDTH 625 0
DWIDTH 15 0
BBX 10 17 2 0
BITMAP
3300
1E00
0E00
0000
0000
C0C0
C0C0
C0C0
C0C0
C0C0
C0C0
C0C0
C0C0
C0C0
E3C0
7FC0
3CC0
ENDCHAR
STARTCHAR 01D6
ENCODING 470
SWIDTH 625 0
DWIDTH 15 0
BBX 10 20 2 0
BITMAP
3F00
0000
0000
3380
3380
0000
0000
0000
C0C0
C0C0
C0C0
C0C0
C0C0
C0C0
C0C0
C0C0
C1C0
E3C0
7FC0
3CC0
ENDCHAR
STARTCHAR 01D8
ENCODING 472
SWIDTH 625 0
DWIDTH 15 0
BBX 10 21 2 0
BITMAP
0300
0600
0400
0800
3380
3380
3380
0000
0000
C0C0
C0C0
C0C0
C0C0
C0C0
C0C0
C0C0
C0C0
C0C0
E3C0
7FC0
3CC0
ENDCHAR
STARTCHAR 01DA
ENCODING 474
SWIDTH 625 0
DWIDTH 15 0
BBX 10 21 2 0
BITMAP
3100
1B00
1E00
0000
3380
3380
3380
0000
0000
C0C0
C0C0
C0C0
C0C0
C0C0
C0C0
C0C0
C0C0
C0C0
E3C0
7FC0
3CC0
ENDCHAR
STARTCHAR 01DC
ENCODING 476
SWIDTH 625 0
DWIDTH 15 0
BBX 10 21 2 0
BITMAP
1800
1800
0C00
0000
3380
3380
3380
0000
0000
C0C0
C0C0
C0C0
C0C0
C0C0
C0C0
C0C0
C0C0
C0C0
E3C0
7FC0
3CC0
ENDCHAR
STARTCHAR 01F8
ENCODING 504
SWIDTH 750 0
DWIDTH 18 0
BBX 14 22 2 0
BITMAP
0600
0600
0300
0100
0000
E00C
F00C
D80C
D80C
CC0C
CE0C
C60C
C30C
C38C
C18C
C0CC
C0EC
C06C
C03C
C03C
C01C
C00C
ENDCHAR
STARTCHAR 01F9
ENCODING 505
SWIDTH 625 0
DWIDTH 15 0
BBX 10 17 2 0
BITMAP
1800
1800
0C00
0000
0000
CF80
DFC0
F0C0
E0C0
C0C0
C0C0
C0C0
C0C0
C0C0
C0C0
C0C0
C0C0
ENDCHAR
STARTCHAR 01FD
ENCODING 509
SWIDTH 875 0
DWIDTH 21 0
BBX 19 17 1 0
BITMAP
003000
003000
006000
000000
000000
1F1F00
7FFFC0
20E0C0
00C060
1FFFE0
7FFFE0
60C000
E0C000
C0E000
61F0E0
7F3FC0
3E0F80
ENDCHAR
STARTCHAR 0250
ENCODING 592
SWIDTH 541 0
DWIDTH 13 0
BBX 11 12 1 0
BITMAP
CF80
7FC0
70E0
6060
6060
61C0
7F80
6000
6000
70C0
3FC0
1F00
ENDCHAR
STARTCHAR 0251
ENCODING 593
SWIDTH 625 0
DWIDTH 15 0
BBX 12 12 1 0
BITMAP
1F30
3FF0
70F0
6070
E030
C030
C030
C030
6070
70F0
3FB0
1F30
ENDCHAR
STARTCHAR 0252
ENCODING 594
SWIDTH 625 0
DWIDTH 15 0
BBX 12 12 2 0
BITMAP
CF80
DFC0
F0E0
E060
C070
C030
C030
C070
E060
F0E0
FFC0
CF80
ENDCHAR
STARTCHAR 0253
ENCODING 595
SWIDTH 625 0
DWIDTH 15 0
BBX 12 17 2 0
BITMAP
1F00
3FC0
60C0
E000
C000
CF80
DFC0
E0E0
E060
C070
C030
C030
C070
E060
F0E0
FFC0
CF80
ENDCHAR
STARTCHAR 0254
ENCODING 596
SWIDTH 541 0
DWIDTH 13 0
BBX 11 12 1 0
BITMAP
1F00
7F80
E1C0
00C0
0060
0060
0060
00E0
00C0
E1C0
7F80
3F00
ENDCHAR
STARTCHAR 0255
ENCODING 597
SWIDTH 541 0
DWIDTH 13 0
BBX 12 14 1 -2
BITMAP
0F80
3FC0
70E0
6000
E000
C000
C000
C1E0
6330
6630
3FE0
1FC0
0800
1800
ENDCHAR
STARTCHAR 0256
ENCODING 598
SWIDTH 625 0
DWIDTH 15 0
BBX 15 23 1 -5
BITMAP
0030
0030
0030
0030
0030
0030
1F30
3FF0
70F0
6070
C030
C030
C030
E030
6070
70F0
3FB0
1F30
0030
0030
0032
003E
001C
ENDCHAR
STARTCHAR 0257
ENCODING 599
SWIDTH 625 0
DWIDTH 15 0
BBX 15 18 1 0
BITMAP
001C
003E
0030
0030
0030
0030
1F30
3FF0
70F0
6070
C030
C030
C030
E030
6070
70F0
3FB0
1F30
ENDCHAR
STARTCHAR 0258
ENCODING 600
SWIDTH 583 0
DWIDTH 14 0
BBX 11 12 1 0
BITMAP
1F00
7FC0
60C0
C060
FFE0
FFE0
0060
0060
00E0
E1C0
7FC0
1F00
ENDCHAR
STARTCHAR 0259
ENCODING 601
SWIDTH 583 0
DWIDTH 14 0
BBX 11 12 1 0
BITMAP
1F00
7FC0
60C0
0060
0060
FFE0
FFE0
C060
6060
60C0
3FC0
1F00
ENDCHAR
STARTCHAR 025A
ENCODING 602
SWIDTH 833 0
DWIDTH 20 0
BBX 18 12 1 0
BITMAP
0F8000
3FC000
70EE00
607E00
C0F300
C1F3C0
0731C0
1C3000
383000
387000
1FE000
078000
ENDCHAR
STARTCHAR 025C
ENCODING 604
SWIDTH 500 0
DWIDTH 12 0
BBX 10 12 1 0
BITMAP
FF00
FF80
0180
0180
0780
3E00
0F80
01C0
00C0
01C0
FF80
FF00
ENDCHAR
STARTCHAR 025E
ENCODING 606
SWIDTH 583 0
DWIDTH 14 0
BBX 12 12 1 0
BITMAP
0FC0
3FE0
7060
6060
C0E0
C780
C1E0
C030
6030
7070
3FE0
0FC0
ENDCHAR
STARTCHAR 025F
ENCODING 607
SWIDTH 250 0
DWIDTH 6 0
BBX 7 17 -1 -5
BITMAP
18
18
18
18
18
18
18
18
18
18
18
7E
18
18
38
F0
60
ENDCHAR
STARTCHAR 0260
ENCODING 608
SWIDTH 625 0
DWIDTH 15 0
BBX 15 23 1 -5
BITMAP
001C
003E
0030
0030
0030
0030
1F30
3FF0
70F0
6070
E030
C030
C030
E030
6070
70F0
3FB0
1F30
0030
0060
70E0
7FC0
1F80
ENDCHAR
STARTCHAR 0261
ENCODING 609
SWIDTH 625 0
DWIDTH 15 0
BBX 12 17 1 -5
BITMAP
1F30
3FF0
70F0
6070
E030
C030
C030
E030
6070
70F0
3FB0
1F30
0030
0060
70E0
7FC0
1F80
ENDCHAR
STARTCHAR 0264
ENCODING 612
SWIDTH 583 0
DWIDTH 14 0
BBX 14 12 0 0
BITMAP
F03C
7878
1DE0
0780
0780
0780
0CC0
0C40
1860
0CC0
0FC0
0780
ENDCHAR
STARTCHAR 0265
ENCODING 613
SWIDTH 625 0
DWIDTH 15 0
BBX 10 17 2 -5
BITMAP
C0C0
C0C0
C0C0
C0C0
C0C0
C0C0
C0C0
C0C0
C0C0
E3C0
7FC0
3CC0
00C0
00C0
00C0
00C0
00C0
ENDCHAR
STARTCHAR 0266
ENCODING 614
SWIDTH 625 0
DWIDTH 15 0
BBX 11 17 2 0
BITMAP
1F00
3FC0
60C0
E000
C000
CF80
DFC0
F0C0
E0C0
C060
C060
C060
C060
C060
C060
C060
C060
ENDCHAR
STARTCHAR 0267
ENCODING 615
SWIDTH 625 0
DWIDTH 15 0
BBX 11 22 2 -5
BITMAP
1F00
3FC0
60C0
E000
C000
CF80
DFC0
F0C0
E0C0
C060
C060
C060
C060
C060
C060
C060
C060
00E0
00C0
01C0
0780
0700
ENDCHAR
STARTCHAR 0268
ENCODING 616
SWIDTH 291 0
DWIDTH 7 0
BBX 7 16 0 1
BITMAP
38
38
00
00
00
30
30
30
30
FE
30
30
30
30
30
30
ENDCHAR
STARTCHAR 026C
ENCODING 620
SWIDTH 333 0
DWIDTH 8 0
BBX 9 18 -1 0
BITMAP
0600
0600
0600
0600
0600
7E00
CE00
C600
7E00
1F80
0600
0600
0600
0600
0600
0600
0600
0600
ENDCHAR
STARTCHAR 026D
ENCODING 621
SWIDTH 291 0
DWIDTH 7 0
BBX 5 23 2 -5
BITMAP
C0
C0
C0
C0
C0
C0
C0
C0
C0
C0
C0
C0
C0
C0
C0
C0
C0
C0
C0
C0
C0
F8
70
ENDCHAR
STARTCHAR 026E
ENCODING 622
SWIDTH 666 0
DWIDTH 16 0
BBX 12 23 2 -5
BITMAP
C000
C000
C000
C000
C000
C000
FFF0
FFF0
C060
C0C0
C380
C700
CF80
CFE0
C070
C030
C030
C030
0030
3030
3860
1FE0
0780
ENDCHAR
STARTCHAR 026F
ENCODING 623
SWIDTH 875 0
DWIDTH 21 0
BBX 17 12 2 0
BITMAP
C18180
C18180
C18180
C18180
C18180
C18180
C18180
C18180
C1C380
E3C780
7EFD80
3C7980
ENDCHAR
STARTCHAR 0270
ENCODING 624
SWIDTH 875 0
DWIDTH 21 0
BBX 17 17 2 -5
BITMAP
C1C180
C1C180
C1C180
C1C180
C1C180
C1C180
C1C180
C1C180
C1C380
E3C780
7EFF80
3C7980
000180
000180
000180
000180
000180
ENDCHAR
STARTCHAR 0271
ENCODING 625
SWIDTH 875 0
DWIDTH 21 0
BBX 17 17 2 -5
BITMAP
CF1E00
FFBF00
F1E380
E1C180
C1C180
C1C180
C1C180
C1C180
C1C180
C1C180
C1C180
C1C180
000180
000380
000300
001F00
000C00
ENDCHAR
STARTCHAR 0272
ENCODING 626
SWIDTH 625 0
DWIDTH 15 0
BBX 14 17 -1 -5
BITMAP
19F0
1BF8
1E18
1C18
181C
181C
181C
181C
181C
181C
181C
181C
1800
1800
3800
F000
E000
ENDCHAR
STARTCHAR 0273
ENCODING 627
SWIDTH 625 0
DWIDTH 15 0
BBX 14 17 2 -5
BITMAP
CF80
DFC0
F0C0
E0C0
C0C0
C0C0
C0C0
C0C0
C0C0
C0C0
C0C0
C0C0
00C0
00C0
00E0
007C
0038
ENDCHAR
STARTCHAR 0275
ENCODING 629
SWIDTH 625 0
DWIDTH 15 0
BBX 12 12 1 0
BITMAP
1F80
3FC0
70E0
6070
E030
FFF0
C030
E030
6070
70E0
3FC0
0F80
ENDCHAR
STARTCHAR 0279
ENCODING 633
SWIDTH 375 0
DWIDTH 9 0
BBX 7 12 0 0
BITMAP
0E
0E
0E
0E
0E
0E
0E
0E
0E
16
F6
C6
ENDCHAR
STARTCHAR 027A
ENCODING 634
SWIDTH 375 0
DWIDTH 9 0
BBX 7 17 0 0
BITMAP
0E
0E
0E
0E
0E
0E
0E
0E
0E
0E
0E
0E
0E
0E
16
F6
C6
ENDCHAR
STARTCHAR 027B
ENCODING 635
SWIDTH 375 0
DWIDTH 9 0
BBX 10 17 0 -5
BITMAP
0E00
0E00
0E00
0E00
0E00
0E00
0E00
0E00
0E00
1600
F600
E600
0600
0600
0600
07C0
0380
ENDCHAR
STARTCHAR 027D
ENCODING 637
SWIDTH 375 0
DWIDTH 9 0
BBX 7 17 2 -5
BITMAP
CE
DC
F0
E0
E0
C0
C0
C0
C0
C0
C0
C0
C0
C0
C0
FC
78
ENDCHAR
STARTCHAR 027E
ENCODING 638
SWIDTH 375 0
DWIDTH 9 0
BBX 7 12 2 0
BITMAP
3E
7C
E0
C0
C0
C0
C0
C0
C0
C0
C0
C0
ENDCHAR
STARTCHAR 0281
ENCODING 641
SWIDTH 541 0
DWIDTH 13 0
BBX 10 12 2 0
BITMAP
C0C0
C1C0
C180
C300
C700
FE00
FF00
C180
C180
C180
FF80
FE00
ENDCHAR
STARTCHAR 0282
ENCODING 642
SWIDTH 458 0
DWIDTH 11 0
BBX 9 17 1 -5
BITMAP
3E00
7F80
E100
C000
6000
3800
0700
0180
0180
C180
FF00
FE00
C000
C000
C000
F800
7000
ENDCHAR
STARTCHAR 0283
ENCODING 643
SWIDTH 291 0
DWIDTH 7 0
BBX 7 24 0 -6
BITMAP
0E
1E
18
38
30
30
30
30
30
30
30
30
30
30
30
30
30
30
30
30
30
30
F0
C0
ENDCHAR
STARTCHAR 0284
ENCODING 644
SWIDTH 291 0
DWIDTH 7 0
BBX 10 23 -1 -5
BITMAP
07C0
0FC0
0C00
1C00
1800
1800
1800
1800
1800
1800
1800
1800
1800
1800
1800
1800
7F00
7F00
1800
1800
3800
F000
6000
ENDCHAR
STARTCHAR 0288
ENCODING 648
SWIDTH 333 0
DWIDTH 8 0
BBX 7 20 1 -4
BITMAP
60
60
60
FE
FE
60
60
60
60
60
60
60
60
60
60
60
60
30
3E
1C
ENDCHAR
STARTCHAR 0289
ENCODING 649
SWIDTH 625 0
DWIDTH 15 0
BBX 14 12 0 0
BITMAP
3030
3030
3030
3030
FFFC
3030
3030
3030
3070
38F0
1FF0
0F30
ENDCHAR
STARTCHAR 028A
ENCODING 650
SWIDTH 625 0
DWIDTH 15 0
BBX 12 12 1 0
BITMAP
F8F0
F8F0
18C0
3060
6060
6030
6030
6030
6070
70E0
3FC0
0F80
ENDCHAR
STARTCHAR 028B
ENCODING 651
SWIDTH 583 0
DWIDTH 14 0
BBX 10 12 2 0
BITMAP
C300
C7C0
C0C0
C0C0
C0C0
C0C0
C0C0
C0C0
C1C0
E380
7F00
3E00
ENDCHAR
STARTCHAR 028C
ENCODING 652
SWIDTH 500 0
DWIDTH 12 0
BBX 11 12 0 0
BITMAP
0600
0E00
0F00
0B00
1B00
1980
3180
30C0
70C0
60E0
6060
C060
ENDCHAR
STARTCHAR 028D
ENCODING 653
SWIDTH 750 0
DWIDTH 18 0
BBX 18 12 0 0
BITMAP
0C0C00
0C0C00
1E1E00
1E1E00
121600
333300
333300
312300
61E180
61E180
60C180
C0C0C0
ENDCHAR
STARTCHAR 028E
ENCODING 654
SWIDTH 500 0
DWIDTH 12 0
BBX 11 17 0 0
BITMAP
00C0
01C0
0380
0300
0600
0600
0E00
0F00
0B00
1B00
1980
3180
30C0
30C0
60E0
6060
E060
ENDCHAR
STARTCHAR 0290
ENCODING 656
SWIDTH 458 0
DWIDTH 11 0
BBX 12 17 1 -5
BITMAP
FF80
FF80
0300
0300
0600
0C00
1800
3000
7000
6000
FF80
FF80
0180
0180
0190
00F0
00E0
ENDCHAR
STARTCHAR 0291
ENCODING 657
SWIDTH 500 0
DWIDTH 12 0
BBX 11 14 1 -2
BITMAP
FF80
FF80
0300
0300
0600
0C00
1800
31C0
3620
6420
CCE0
FFC0
1800
3000
ENDCHAR
STARTCHAR 0292
ENCODING 658
SWIDTH 500 0
DWIDTH 12 0
BBX 10 17 1 -5
BITMAP
7F80
7F80
0380
0700
0E00
1800
3E00
7F80
0180
00C0
00C0
00C0
00C0
C0C0
E180
7F80
3E00
ENDCHAR
STARTCHAR 0294
ENCODING 660
SWIDTH 500 0
DWIDTH 12 0
BBX 10 17 1 0
BITMAP
3E00
7F80
E180
80C0
00C0
00C0
0180
0F80
0E00
0C00
0C00
0C00
0C00
0C00
0C00
0C00
0C00
ENDCHAR
STARTCHAR 0295
ENCODING 661
SWIDTH 500 0
DWIDTH 12 0
BBX 10 17 1 0
BITMAP
3F00
7F80
E1C0
C0C0
C000
C000
E000
7C00
1C00
0C00
0C00
0C00
0C00
0C00
0C00
0C00
0C00
ENDCHAR
STARTCHAR 0298
ENCODING 664
SWIDTH 625 0
DWIDTH 15 0
BBX 13 12 1 0
BITMAP
0F80
3060
6030
4010
C718
C718
C718
C718
4010
6030
3060
0F80
ENDCHAR
STARTCHAR 029D
ENCODING 669
SWIDTH 375 0
DWIDTH 9 0
BBX 10 22 -1 -5
BITMAP
0600
0600
0000
0000
0000
0600
0600
0600
0600
0600
0600
0600
0600
0600
0600
0600
0600
7E00
C7C0
C600
7E00
3C00
ENDCHAR
STARTCHAR 02A1
ENCODING 673
SWIDTH 500 0
DWIDTH 12 0
BBX 10 17 1 0
BITMAP
3E00
7F80
E180
80C0
00C0
00C0
0180
0F80
0E00
0C00
3F00
0C00
0C00
0C00
0C00
0C00
0C00
ENDCHAR
STARTCHAR 02A2
ENCODING 674
SWIDTH 500 0
DWIDTH 12 0
BBX 10 17 1 0
BITMAP
3F00
7F80
E1C0
C0C0
C000
C000
E000
7C00
1C00
0C00
3F00
0C00
0C00
0C00
0C00
0C00
0C00
ENDCHAR
STARTCHAR 02BB
ENCODING 699
SWIDTH 1000 0
DWIDTH 24 0
BBX 4 7 19 14
BITMAP
30
60
40
C0
E0
E0
E0
ENDCHAR
STARTCHAR 02BC
ENCODING 700
SWIDTH 1000 0
DWIDTH 24 0
BBX 4 7 1 13
BITMAP
70
70
70
30
20
60
C0
ENDCHAR
STARTCHAR 02C6
ENCODING 710
SWIDTH 500 0
DWIDTH 12 0
BBX 6 3 3 14
BITMAP
78
78
CC
ENDCHAR
STARTCHAR 02C7
ENCODING 711
SWIDTH 500 0
DWIDTH 12 0
BBX 6 3 3 14
BITMAP
CC
78
30
ENDCHAR
STARTCHAR 02C8
ENCODING 712
SWIDTH 208 0
DWIDTH 5 0
BBX 1 9 2 9
BITMAP
80
80
80
80
80
80
80
80
80
ENDCHAR
STARTCHAR 02CC
ENCODING 716
SWIDTH 208 0
DWIDTH 5 0
BBX 1 9 2 -4
BITMAP
80
80
80
80
80
80
80
80
80
ENDCHAR
STARTCHAR 02D0
ENCODING 720
SWIDTH 291 0
DWIDTH 7 0
BBX 3 12 2 0
BITMAP
E0
60
40
00
00
00
00
00
00
40
E0
E0
ENDCHAR
STARTCHAR 02D1
ENCODING 721
SWIDTH 291 0
DWIDTH 7 0
BBX 3 3 2 9
BITMAP
E0
60
40
ENDCHAR
STARTCHAR 02D8
ENCODING 728
SWIDTH 500 0
DWIDTH 12 0
BBX 6 3 3 14
BITMAP
84
CC
78
ENDCHAR
STARTCHAR 02D9
ENCODING 729
SWIDTH 500 0
DWIDTH 12 0
BBX 2 2 5 15
BITMAP
C0
C0
ENDCHAR
STARTCHAR 02DB
ENCODING 731
SWIDTH 500 0
DWIDTH 12 0
BBX 6 5 3 -5
BITMAP
38
60
60
FC
7C
ENDCHAR
STARTCHAR 02DC
ENCODING 732
SWIDTH 500 0
DWIDTH 12 0
BBX 8 3 2 14
BITMAP
70
D9
0E
ENDCHAR
STARTCHAR 02DD
ENCODING 733
SWIDTH 500 0
DWIDTH 12 0
BBX 6 3 4 14
BITMAP
4C
D8
90
ENDCHAR
STARTCHAR 02DE
ENCODING 734
SWIDTH 500 0
DWIDTH 12 0
BBX 6 6 4 0
BITMAP
E0
20
60
64
7C
38
ENDCHAR
STARTCHAR 02E5
ENCODING 741
SWIDTH 500 0
DWIDTH 12 0
BBX 6 17 1 1
BITMAP
FC
0C
0C
0C
0C
0C
0C
0C
0C
0C
0C
0C
0C
0C
0C
0C
0C
ENDCHAR
STARTCHAR 02E6
ENCODING 742
SWIDTH 500 0
DWIDTH 12 0
BBX 6 17 1 1
BITMAP
0C
0C
0C
0C
FC
0C
0C
0C
0C
0C
0C
0C
0C
0C
0C
0C
0C
ENDCHAR
STARTCHAR 02E7
ENCODING 743
SWIDTH 500 0
DWIDTH 12 0
BBX 6 17 1 1
BITMAP
0C
0C
0C
0C
0C
0C
0C
0C
FC
0C
0C
0C
0C
0C
0C
0C
0C
ENDCHAR
STARTCHAR 02E8
ENCODING 744
SWIDTH 500 0
DWIDTH 12 0
BBX 6 17 1 0
BITMAP
0C
0C
0C
0C
0C
0C
0C
0C
0C
0C
0C
0C
FC
0C
0C
0C
0C
ENDCHAR
STARTCHAR 02E9
ENCODING 745
SWIDTH 500 0
DWIDTH 12 0
BBX 6 17 1 0
BITMAP
0C
0C
0C
0C
0C
0C
0C
0C
0C
0C
0C
0C
0C
0C
0C
0C
FC
ENDCHAR
STARTCHAR 0300
ENCODING 768
SWIDTH 500 0
DWIDTH 12 0
BBX 3 3 4 14
BITMAP
C0
40
60
ENDCHAR
STARTCHAR 0301
ENCODING 769
SWIDTH 500 0
DWIDTH 12 0
BBX 3 3 5 14
BITMAP
60
40
C0
ENDCHAR
STARTCHAR 0302
ENCODING 770
SWIDTH 500 0
DWIDTH 12 0
BBX 6 3 3 14
BITMAP
78
78
CC
ENDCHAR
STARTCHAR 0303
ENCODING 771
SWIDTH 500 0
DWIDTH 12 0
BBX 8 3 2 14
BITMAP
70
D9
0E
ENDCHAR
STARTCHAR 0304
ENCODING 772
SWIDTH 500 0
DWIDTH 12 0
BBX 6 1 3 15
BITMAP
FC
ENDCHAR
STARTCHAR 0305
ENCODING 773
SWIDTH 500 0
DWIDTH 12 0
BBX 6 1 3 15
BITMAP
FC
ENDCHAR
STARTCHAR 0306
ENCODING 774
SWIDTH 500 0
DWIDTH 12 0
BBX 6 3 3 14
BITMAP
84
CC
78
ENDCHAR
STARTCHAR 0308
ENCODING 776
SWIDTH 500 0
DWIDTH 12 0
BBX 6 2 3 15
BITMAP
CC
CC
ENDCHAR
STARTCHAR 030B
ENCODING 779
SWIDTH 500 0
DWIDTH 12 0
BBX 6 3 4 14
BITMAP
4C
D8
90
ENDCHAR
STARTCHAR 030C
ENCODING 780
SWIDTH 500 0
DWIDTH 12 0
BBX 6 3 3 14
BITMAP
CC
78
30
ENDCHAR
STARTCHAR 030F
ENCODING 783
SWIDTH 500 0
DWIDTH 12 0
BBX 6 3 2 14
BITMAP
C8
6C
24
ENDCHAR
STARTCHAR 0318
ENCODING 792
SWIDTH 500 0
DWIDTH 12 0
BBX 3 5 4 -6
BITMAP
20
20
E0
20
20
ENDCHAR
STARTCHAR 0319
ENCODING 793
SWIDTH 500 0
DWIDTH 12 0
BBX 3 5 5 -6
BITMAP
80
80
E0
80
80
ENDCHAR
STARTCHAR 031A
ENCODING 794
SWIDTH 500 0
DWIDTH 12 0
BBX 6 6 1 11
BITMAP
FC
0C
0C
0C
0C
0C
ENDCHAR
STARTCHAR 031C
ENCODING 796
SWIDTH 500 0
DWIDTH 12 0
BBX 3 5 4 -6
BITMAP
60
40
C0
C0
60
ENDCHAR
STARTCHAR 031D
ENCODING 797
SWIDTH 500 0
DWIDTH 12 0
BBX 6 3 3 -4
BITMAP
30
30
FC
ENDCHAR
STARTCHAR 031E
ENCODING 798
SWIDTH 500 0
DWIDTH 12 0
BBX 6 3 3 -5
BITMAP
FC
30
30
ENDCHAR
STARTCHAR 031F
ENCODING 799
SWIDTH 500 0
DWIDTH 12 0
BBX 6 5 3 -6
BITMAP
30
30
FC
30
30
ENDCHAR
STARTCHAR 0320
ENCODING 800
SWIDTH 500 0
DWIDTH 12 0
BBX 6 1 3 -3
BITMAP
FC
ENDCHAR
STARTCHAR 0324
ENCODING 804
SWIDTH 500 0
DWIDTH 12 0
BBX 6 2 3 -3
BITMAP
CC
CC
ENDCHAR
STARTCHAR 0325
ENCODING 805
SWIDTH 500 0
DWIDTH 12 0
BBX 4 4 4 -5
BITMAP
60
90
90
60
ENDCHAR
STARTCHAR 0327
ENCODING 807
SWIDTH 500 0
DWIDTH 12 0
BBX 5 5 4 -5
BITMAP
40
F0
30
18
F0
ENDCHAR
STARTCHAR 0329
ENCODING 809
SWIDTH 500 0
DWIDTH 12 0
BBX 2 7 5 -7
BITMAP
C0
C0
C0
C0
C0
C0
C0
ENDCHAR
STARTCHAR 032A
ENCODING 810
SWIDTH 500 0
DWIDTH 12 0
BBX 6 3 3 -5
BITMAP
FC
84
84
ENDCHAR
STARTCHAR 032C
ENCODING 812
SWIDTH 500 0
DWIDTH 12 0
BBX 6 3 3 -4
BITMAP
CC
78
30
ENDCHAR
STARTCHAR 032F
ENCODING 815
SWIDTH 500 0
DWIDTH 12 0
BBX 6 3 3 -4
BITMAP
78
CC
84
ENDCHAR
STARTCHAR 0330
ENCODING 816
SWIDTH 500 0
DWIDTH 12 0
BBX 8 3 2 -4
BITMAP
71
D9
0E
ENDCHAR
STARTCHAR 0332
ENCODING 818
SWIDTH 500 0
DWIDTH 12 0
BBX 12 1 0 -3
BITMAP
FFF0
ENDCHAR
STARTCHAR 0334
ENCODING 820
SWIDTH 500 0
DWIDTH 12 0
BBX 8 2 2 6
BITMAP
71
8E
ENDCHAR
STARTCHAR 0336
ENCODING 822
SWIDTH 958 0
DWIDTH 23 0
BBX 21 2 1 8
BITMAP
FFFFF8
FFFFF8
ENDCHAR
STARTCHAR 0339
ENCODING 825
SWIDTH 500 0
DWIDTH 12 0
BBX 3 5 5 -6
BITMAP
C0
40
20
60
C0
ENDCHAR
STARTCHAR 033A
ENCODING 826
SWIDTH 500 0
DWIDTH 12 0
BBX 6 3 3 -5
BITMAP
84
84
FC
ENDCHAR
STARTCHAR 033B
ENCODING 827
SWIDTH 500 0
DWIDTH 12 0
BBX 6 3 3 -5
BITMAP
FC
84
FC
ENDCHAR
STARTCHAR 033C
ENCODING 828
SWIDTH 500 0
DWIDTH 12 0
BBX 6 3 3 -4
BITMAP
CC
B4
84
ENDCHAR
STARTCHAR 033D
ENCODING 829
SWIDTH 500 0
DWIDTH 12 0
BBX 4 5 4 13
BITMAP
90
F0
60
F0
90
ENDCHAR
STARTCHAR 0361
ENCODING 865
SWIDTH 0 0
DWIDTH 0 0
BBX 12 3 -6 19
BITMAP
1F80
6060
8010
ENDCHAR
STARTCHAR 0391
ENCODING 913
SWIDTH 1000 0
DWIDTH 24 0
BBX 16 17 4 1
BITMAP
03C0
03C0
03C0
0660
0660
0E70
0C30
0C30
1C38
1818
1FF8
3FFC
300C
700E
6006
6006
E007
ENDCHAR
STARTCHAR 0392
ENCODING 914
SWIDTH 1000 0
DWIDTH 24 0
BBX 13 17 6 1
BITMAP
FFC0
FFE0
C070
C038
C038
C030
C070
FFC0
FFE0
C030
C018
C018
C018
C018
C038
FFF0
FFC0
ENDCHAR
STARTCHAR 0393
ENCODING 915
SWIDTH 1000 0
DWIDTH 24 0
BBX 13 17 6 1
BITMAP
FFF8
FFF8
C000
C000
C000
C000
C000
C000
C000
C000
C000
C000
C000
C000
C000
C000
C000
ENDCHAR
STARTCHAR 0394
ENCODING 916
SWIDTH 1000 0
DWIDTH 24 0
BBX 16 17 4 1
BITMAP
03C0
03C0
03C0
0660
0660
0E70
0C30
1C38
1818
1818
380C
300C
700E
6006
6006
FFFF
FFFF
ENDCHAR
STARTCHAR 0395
ENCODING 917
SWIDTH 1000 0
DWIDTH 24 0
BBX 13 17 6 1
BITMAP
FFF0
FFF0
C000
C000
C000
C000
C000
FFE0
FFE0
C000
C000
C000
C000
C000
C000
FFF8
FFF8
ENDCHAR
STARTCHAR 0396
ENCODING 918
SWIDTH 1000 0
DWIDTH 24 0
BBX 14 17 5 1
BITMAP
7FF8
7FF8
0038
0070
0060
00C0
01C0
0380
0700
0600
0C00
1800
3800
7000
E000
FFFC
FFFC
ENDCHAR
STARTCHAR 0397
ENCODING 919
SWIDTH 1000 0
DWIDTH 24 0
BBX 14 17 5 1
BITMAP
C00C
C00C
C00C
C00C
C00C
C00C
C00C
FFFC
FFFC
C00C
C00C
C00C
C00C
C00C
C00C
C00C
C00C
ENDCHAR
STARTCHAR 0398
ENCODING 920
SWIDTH 1000 0
DWIDTH 24 0
BBX 16 18 4 0
BITMAP
07E0
0FF0
3C3C
300C
700E
6006
E007
EFF7
CFF3
C007
E007
E007
6006
700E
300C
3C3C
0FF8
07E0
ENDCHAR
STARTCHAR 0399
ENCODING 921
SWIDTH 1000 0
DWIDTH 24 0
BBX 2 17 11 1
BITMAP
C0
C0
C0
C0
C0
C0
C0
C0
C0
C0
C0
C0
C0
C0
C0
C0
C0
ENDCHAR
STARTCHAR 039A
ENCODING 922
SWIDTH 1000 0
DWIDTH 24 0
BBX 15 17 5 1
BITMAP
E038
E070
E0E0
E1C0
E380
E700
EE00
FF00
FB00
F180
E1C0
E0E0
E070
E030
E038
E01C
E00E
ENDCHAR
STARTCHAR 039B
ENCODING 923
SWIDTH 1000 0
DWIDTH 24 0
BBX 16 17 4 1
BITMAP
0180
03C0
03C0
07E0
0660
0660
0C30
0C30
1C38
1818
1818
381C
300C
300C
6006
6006
E007
ENDCHAR
STARTCHAR 039C
ENCODING 924
SWIDTH 1000 0
DWIDTH 24 0
BBX 18 17 3 1
BITMAP
F003C0
F003C0
F806C0
F806C0
F806C0
EC0CC0
EC0CC0
EC0CC0
E618C0
E618C0
E238C0
E330C0
E330C0
E1E0C0
E1E0C0
E1E0C0
E0C0C0
ENDCHAR
STARTCHAR 039D
ENCODING 925
SWIDTH 1000 0
DWIDTH 24 0
BBX 14 17 5 1
BITMAP
F00C
F00C
D80C
D80C
CC0C
CE0C
C60C
C30C
C30C
C18C
C1CC
C0CC
C06C
C06C
C03C
C03C
C01C
ENDCHAR
STARTCHAR 039E
ENCODING 926
SWIDTH 1000 0
DWIDTH 24 0
BBX 14 17 5 1
BITMAP
7FF8
7FF8
0000
0000
0000
0000
0000
7FF8
7FF8
0000
0000
0000
0000
0000
0000
FFFC
FFFC
ENDCHAR
STARTCHAR 039F
ENCODING 927
SWIDTH 1000 0
DWIDTH 24 0
BBX 16 18 4 0
BITMAP
07E0
0FF0
3C3C
300C
700E
6006
E007
E007
C003
C007
E007
E007
6006
700E
300C
3C3C
0FF8
07E0
ENDCHAR
STARTCHAR 03A0
ENCODING 928
SWIDTH 1000 0
DWIDTH 24 0
BBX 14 17 5 1
BITMAP
FFFC
FFFC
C00C
C00C
C00C
C00C
C00C
C00C
C00C
C00C
C00C
C00C
C00C
C00C
C00C
C00C
C00C
ENDCHAR
STARTCHAR 03A1
ENCODING 929
SWIDTH 1000 0
DWIDTH 24 0
BBX 13 17 6 1
BITMAP
FFC0
FFF0
C038
C018
C018
C018
C018
C038
FFF0
FFC0
C000
C000
C000
C000
C000
C000
C000
ENDCHAR
STARTCHAR 03A3
ENCODING 931
SWIDTH 1000 0
DWIDTH 24 0
BBX 14 17 5 1
BITMAP
FFFC
FFFC
E000
7000
1800
0C00
0700
0380
0380
0700
0E00
1C00
3800
7000
E000
FFFC
FFFC
ENDCHAR
STARTCHAR 03A4
ENCODING 932
SWIDTH 1000 0
DWIDTH 24 0
BBX 14 17 5 1
BITMAP
FFFC
FFFC
0300
0300
0300
0300
0300
0300
0300
0300
0300
0300
0300
0300
0300
0300
0300
ENDCHAR
STARTCHAR 03A5
ENCODING 933
SWIDTH 1000 0
DWIDTH 24 0
BBX 16 17 4 1
BITMAP
E007
700E
300C
181C
1C38
0C30
0660
07E0
03C0
0180
0180
0180
0180
0180
0180
0180
0180
ENDCHAR
STARTCHAR 03A6
ENCODING 934
SWIDTH 1000 0
DWIDTH 24 0
BBX 16 17 4 1
BITMAP
0180
0180
03C0
1FF8
799E
6186
C183
C183
C183
C183
C183
6186
3DBC
1FF8
0180
0180
0180
ENDCHAR
STARTCHAR 03A7
ENCODING 935
SWIDTH 1000 0
DWIDTH 24 0
BBX 16 17 4 1
BITMAP
700E
381C
1818
1C38
0E70
0660
03C0
03C0
03C0
03C0
0660
0E70
1C38
381C
381C
700E
E007
ENDCHAR
STARTCHAR 03A8
ENCODING 936
SWIDTH 1000 0
DWIDTH 24 0
BBX 14 17 5 1
BITMAP
C30C
C30C
C30C
C30C
C30C
C30C
C30C
C30C
C30C
6318
7378
3FF0
0FC0
0300
0300
0300
0300
ENDCHAR
STARTCHAR 03A9
ENCODING 937
SWIDTH 1000 0
DWIDTH 24 0
BBX 16 17 4 1
BITMAP
07E0
1FF8
3C3C
700E
6006
E007
E007
C003
C007
E007
6006
700E
381C
0E70
0660
FE7F
FE7F
ENDCHAR
STARTCHAR 03B1
ENCODING 945
SWIDTH 1000 0
DWIDTH 24 0
BBX 14 13 5 0
BITMAP
070C
1F98
3998
70F0
60F0
E0E0
C0C0
C0C0
C1CC
C3CC
C64C
FC78
7830
ENDCHAR
STARTCHAR 03B2
ENCODING 946
SWIDTH 1000 0
DWIDTH 24 0
BBX 13 20 5 -2
BITMAP
01E0
07F0
0618
0C18
1C18
1818
1818
3770
37C0
2060
6030
6030
6030
6030
6030
F870
DFE0
C780
C000
C000
ENDCHAR
STARTCHAR 03B3
ENCODING 947
SWIDTH 1000 0
DWIDTH 24 0
BBX 14 15 5 -2
BITMAP
3C08
7E1C
E638
0230
0360
03C0
03C0
0380
0300
0300
0600
0600
0E00
0E00
0400
ENDCHAR
STARTCHAR 03B4
ENCODING 948
SWIDTH 1000 0
DWIDTH 24 0
BBX 12 18 6 0
BITMAP
0F00
1FC0
18F0
1830
0C00
0600
0300
1F80
38C0
7040
6060
C060
C060
C0C0
E1C0
6380
7F00
1E00
ENDCHAR
STARTCHAR 03B5
ENCODING 949
SWIDTH 1000 0
DWIDTH 24 0
BBX 10 13 7 0
BITMAP
1F00
7FC0
60C0
6000
6000
3E00
6F00
C000
C000
C0C0
C380
FF00
7C00
ENDCHAR
STARTCHAR 03B6
ENCODING 950
SWIDTH 1000 0
DWIDTH 24 0
BBX 12 20 7 -2
BITMAP
1870
31E0
23C0
3F80
0C00
1800
3000
3000
6000
6000
C000
C000
C000
E000
FF00
0F80
0180
0180
7F00
7E00
ENDCHAR
STARTCHAR 03B7
ENCODING 951
SWIDTH 1000 0
DWIDTH 24 0
BBX 13 15 5 -2
BITMAP
38F0
7FF8
CF18
0E18
0C18
0C10
0C30
1830
1830
1030
3060
3060
0060
0060
00E0
ENDCHAR
STARTCHAR 03B8
ENCODING 952
SWIDTH 1000 0
DWIDTH 24 0
BBX 12 18 6 0
BITMAP
0780
0FE0
1C60
3030
3030
6030
6030
FFF0
FFF0
C070
C070
C060
C0E0
C0C0
C1C0
6380
7F00
3E00
ENDCHAR
STARTCHAR 03B9
ENCODING 953
SWIDTH 1000 0
DWIDTH 24 0
BBX 8 13 8 0
BITMAP
18
38
30
30
60
60
C0
C0
C3
C7
CE
FC
78
ENDCHAR
STARTCHAR 03BA
ENCODING 954
SWIDTH 1000 0
DWIDTH 24 0
BBX 12 13 6 0
BITMAP
0010
1870
19E0
3380
3E00
3C00
7E00
6600
6610
6230
C370
C3E0
01C0
ENDCHAR
STARTCHAR 03BB
ENCODING 955
SWIDTH 1000 0
DWIDTH 24 0
BBX 13 17 5 1
BITMAP
0F00
3F80
31C0
00C0
00C0
00C0
01C0
01C0
03C0
06C0
0EC0
0C40
1860
3860
7030
6030
E038
ENDCHAR
STARTCHAR 03BC
ENCODING 956
SWIDTH 1000 0
DWIDTH 24 0
BBX 15 14 5 -2
BITMAP
1830
1830
3030
3030
3060
3060
7060
7062
70E2
79E6
DF3C
CE38
C000
C000
ENDCHAR
STARTCHAR 03BD
ENCODING 957
SWIDTH 1000 0
DWIDTH 24 0
BBX 11 12 7 1
BITMAP
C060
E060
6060
60E0
60C0
60C0
6180
6380
6700
5E00
F800
C000
ENDCHAR
STARTCHAR 03BE
ENCODING 958
SWIDTH 1000 0
DWIDTH 24 0
BBX 11 20 6 -1
BITMAP
1DE0
07E0
0C00
1800
3000
3000
3800
1FC0
1FC0
3000
6000
C000
C000
6000
3E00
01C0
00C0
00C0
3FC0
7F00
ENDCHAR
STARTCHAR 03BF
ENCODING 959
SWIDTH 1000 0
DWIDTH 24 0
BBX 11 13 6 0
BITMAP
0780
1FE0
38E0
3060
6060
6060
6060
C060
4060
60C0
61C0
3F80
1E00
ENDCHAR
STARTCHAR 03C0
ENCODING 960
SWIDTH 1000 0
DWIDTH 24 0
BBX 13 14 6 0
BITMAP
0008
7FF8
FFF0
D880
1980
1180
3180
3100
2300
6308
6318
C338
C3F0
01C0
ENDCHAR
STARTCHAR 03C1
ENCODING 961
SWIDTH 1000 0
DWIDTH 24 0
BBX 12 15 5 -2
BITMAP
03C0
0FE0
1870
1830
3030
3030
3030
7030
7070
78E0
6FC0
6780
6000
C000
C000
ENDCHAR
STARTCHAR 03C2
ENCODING 962
SWIDTH 583 0
DWIDTH 14 0
BBX 11 17 2 -5
BITMAP
1F00
7F80
61C0
C0E0
C040
C000
C000
6000
7000
3800
0C00
0600
0300
0300
C700
FE00
7C00
ENDCHAR
STARTCHAR 03C3
ENCODING 963
SWIDTH 1000 0
DWIDTH 24 0
BBX 13 13 6 0
BITMAP
07F8
1FF8
38C0
3060
6060
6060
6060
C060
C060
60C0
61C0
3F80
1E00
ENDCHAR
STARTCHAR 03C4
ENCODING 964
SWIDTH 1000 0
DWIDTH 24 0
BBX 13 14 6 0
BITMAP
0010
3FF8
FFE0
4600
0C00
0C00
0C00
1800
1800
1840
18E0
19C0
1F80
0F00
ENDCHAR
STARTCHAR 03C5
ENCODING 965
SWIDTH 1000 0
DWIDTH 24 0
BBX 13 13 5 1
BITMAP
3C70
7C30
CC30
0C18
0818
1818
1018
3030
3030
3060
30E0
3FC0
1F00
ENDCHAR
STARTCHAR 03C6
ENCODING 966
SWIDTH 1000 0
DWIDTH 24 0
BBX 14 19 5 -2
BITMAP
00C0
00C0
00C0
0080
07E0
1FF0
3198
6118
E30C
C30C
C30C
C218
6618
7670
3FE0
0F80
0C00
0C00
0C00
ENDCHAR
STARTCHAR 03C7
ENCODING 967
SWIDTH 1000 0
DWIDTH 24 0
BBX 13 15 5 -2
BITMAP
1C38
7E30
2660
06E0
02C0
0380
0380
0300
0700
0F00
1D00
1980
3198
61F8
E0E0
ENDCHAR
STARTCHAR 03C8
ENCODING 968
SWIDTH 1000 0
DWIDTH 24 0
BBX 14 20 5 -2
BITMAP
00C0
00C0
00C0
00C0
0180
1990
39B8
619C
C30C
C30C
C30C
C20C
C61C
E638
76F0
3FC0
0C00
0C00
0C00
1800
ENDCHAR
STARTCHAR 03C9
ENCODING 969
SWIDTH 1000 0
DWIDTH 24 0
BBX 16 13 4 0
BITMAP
0804
1C0C
1806
3086
6186
6183
C183
C187
C186
C386
E68E
7CFC
3878
ENDCHAR
STARTCHAR 0401
ENCODING 1025
SWIDTH 1000 0
DWIDTH 24 0
BBX 13 20 6 1
BITMAP
30C0
30C0
0000
FFF0
FFF0
C000
C000
C000
C000
C000
FFE0
FFE0
C000
C000
C000
C000
C000
C000
FFF8
FFF8
ENDCHAR
STARTCHAR 0410
ENCODING 1040
SWIDTH 1000 0
DWIDTH 24 0
BBX 16 17 4 1
BITMAP
03C0
03C0
03C0
0660
0660
0E70
0C30
0C30
1C38
1818
1FF8
3FFC
300C
700E
6006
6006
E007
ENDCHAR
STARTCHAR 0411
ENCODING 1041
SWIDTH 1000 0
DWIDTH 24 0
BBX 13 17 6 1
BITMAP
FFF8
FFF8
C000
C000
C000
C000
C000
FFC0
FFF0
C038
C018
C018
C018
C018
C038
FFF0
FFC0
ENDCHAR
STARTCHAR 0412
ENCODING 1042
SWIDTH 1000 0
DWIDTH 24 0
BBX 13 17 6 1
BITMAP
FFC0
FFE0
C070
C038
C038
C030
C070
FFC0
FFE0
C030
C018
C018
C018
C018
C038
FFF0
FFC0
ENDCHAR
STARTCHAR 0413
ENCODING 1043
SWIDTH 1000 0
DWIDTH 24 0
BBX 13 17 6 1
BITMAP
FFF8
FFF8
C000
C000
C000
C000
C000
C000
C000
C000
C000
C000
C000
C000
C000
C000
C000
ENDCHAR
STARTCHAR 0414
ENCODING 1044
SWIDTH 1000 0
DWIDTH 24 0
BBX 16 19 4 -1
BITMAP
0FFC
0FFC
0C0C
0C0C
0C0C
0C0C
0C0C
0C0C
0C0C
1C0C
180C
180C
180C
300C
300C
FFFF
FFFF
C003
C003
ENDCHAR
STARTCHAR 0415
ENCODING 1045
SWIDTH 1000 0
DWIDTH 24 0
BBX 13 17 6 1
BITMAP
FFF0
FFF0
C000
C000
C000
C000
C000
FFE0
FFE0
C000
C000
C000
C000
C000
C000
FFF8
FFF8
ENDCHAR
STARTCHAR 0416
ENCODING 1046
SWIDTH 1000 0
DWIDTH 24 0
BBX 19 17 3 1
BITMAP
E0C1C0
60C180
60C180
60C180
30C300
30C300
1CCE00
0FFC00
0FFC00
0CCC00
18C600
18C600
30C300
70C380
60C180
E0C1C0
C0C0E0
ENDCHAR
STARTCHAR 0417
ENCODING 1047
SWIDTH 1000 0
DWIDTH 24 0
BBX 14 18 5 0
BITMAP
0FC0
3FE0
7070
6038
0018
0018
0030
07E0
07E0
0030
0018
0018
001C
C01C
E018
7078
3FF0
0FC0
ENDCHAR
STARTCHAR 0418
ENCODING 1048
SWIDTH 1000 0
DWIDTH 24 0
BBX 14 17 5 1
BITMAP
C00C
C00C
C01C
C03C
C07C
C0EC
C1CC
C38C
C70C
CE0C
DC0C
F80C
F00C
E00C
C00C
C00C
C00C
ENDCHAR
STARTCHAR 0419
ENCODING 1049
SWIDTH 1000 0
DWIDTH 24 0
BBX 14 20 5 1
BITMAP
1860
1860
0F80
C00C
C00C
C01C
C03C
C07C
C0EC
C1CC
C38C
C70C
CE0C
DC0C
F80C
F00C
E00C
C00C
C00C
C00C
ENDCHAR
STARTCHAR 041A
ENCODING 1050
SWIDTH 1000 0
DWIDTH 24 0
BBX 15 17 5 1
BITMAP
E018
E018
E018
E038
E030
E060
E1C0
FF80
FF80
E1C0
E0C0
E060
E070
E038
E018
E01C
E00E
ENDCHAR
STARTCHAR 041B
ENCODING 1051
SWIDTH 1000 0
DWIDTH 24 0
BBX 15 18 3 0
BITMAP
03FE
03FE
0306
0306
0306
0306
0306
0306
0306
0306
0306
0306
0306
C606
C606
CE06
7C06
3800
ENDCHAR
STARTCHAR 041C
ENCODING 1052
SWIDTH 1000 0
DWIDTH 24 0
BBX 18 17 3 1
BITMAP
F003C0
F003C0
F806C0
F806C0
F806C0
EC0CC0
EC0CC0
EC0CC0
E618C0
E618C0
E238C0
E330C0
E330C0
E1E0C0
E1E0C0
E1E0C0
E0C0C0
ENDCHAR
STARTCHAR 041D
ENCODING 1053
SWIDTH 1000 0
DWIDTH 24 0
BBX 14 17 5 1
BITMAP
C00C
C00C
C00C
C00C
C00C
C00C
C00C
FFFC
FFFC
C00C
C00C
C00C
C00C
C00C
C00C
C00C
C00C
ENDCHAR
STARTCHAR 041E
ENCODING 1054
SWIDTH 1000 0
DWIDTH 24 0
BBX 16 18 4 0
BITMAP
07E0
0FF0
3C3C
300C
700E
6006
E007
E007
C003
C007
E007
E007
6006
700E
300C
3C3C
0FF8
07E0
ENDCHAR
STARTCHAR 041F
ENCODING 1055
SWIDTH 1000 0
DWIDTH 24 0
BBX 14 17 5 1
BITMAP
FFFC
FFFC
C00C
C00C
C00C
C00C
C00C
C00C
C00C
C00C
C00C
C00C
C00C
C00C
C00C
C00C
C00C
ENDCHAR
STARTCHAR 0420
ENCODING 1056
SWIDTH 1000 0
DWIDTH 24 0
BBX 13 17 6 1
BITMAP
FFC0
FFF0
C038
C018
C018
C018
C018
C038
FFF0
FFC0
C000
C000
C000
C000
C000
C000
C000
ENDCHAR
STARTCHAR 0421
ENCODING 1057
SWIDTH 1000 0
DWIDTH 24 0
BBX 16 18 4 0
BITMAP
07E0
1FF8
381C
300E
6006
6000
C000
C000
C000
C000
C000
E007
E006
600E
700C
3C3C
1FF8
07E0
ENDCHAR
STARTCHAR 0422
ENCODING 1058
SWIDTH 1000 0
DWIDTH 24 0
BBX 14 17 5 1
BITMAP
FFFC
FFFC
0300
0300
0300
0300
0300
0300
0300
0300
0300
0300
0300
0300
0300
0300
0300
ENDCHAR
STARTCHAR 0423
ENCODING 1059
SWIDTH 1000 0
DWIDTH 24 0
BBX 13 17 6 1
BITMAP
C018
C018
6038
6030
3030
3060
1860
18C0
0CC0
0DC0
0780
0780
0300
0300
0600
FE00
FC00
ENDCHAR
STARTCHAR 0424
ENCODING 1060
SWIDTH 1000 0
DWIDTH 24 0
BBX 16 17 4 1
BITMAP
0180
0180
03C0
1FF8
799E
6186
C183
C183
C183
C183
C187
6186
3DBC
1FF8
0180
0180
0180
ENDCHAR
STARTCHAR 0425
ENCODING 1061
SWIDTH 1000 0
DWIDTH 24 0
BBX 16 17 4 1
BITMAP
700E
381C
1818
1C38
0E70
0660
03C0
03C0
03C0
03C0
0660
0E70
1C38
381C
381C
700E
E007
ENDCHAR
STARTCHAR 0426
ENCODING 1062
SWIDTH 1000 0
DWIDTH 24 0
BBX 16 19 5 -1
BITMAP
C018
C018
C018
C018
C018
C018
C018
C018
C018
C018
C018
C018
C018
C018
C018
FFFF
FFFF
0003
0003
ENDCHAR
STARTCHAR 0427
ENCODING 1063
SWIDTH 1000 0
DWIDTH 24 0
BBX 12 17 6 1
BITMAP
C030
C030
C030
C030
C030
C030
C030
C030
E0F0
7FF0
3F30
0030
0030
0030
0030
0030
0030
ENDCHAR
STARTCHAR 0428
ENCODING 1064
SWIDTH 1000 0
DWIDTH 24 0
BBX 18 17 3 1
BITMAP
C0C0C0
C0C0C0
C0C0C0
C0C0C0
C0C0C0
C0C0C0
C0C0C0
C0C0C0
C0C0C0
C0C0C0
C0C0C0
C0C0C0
C0C0C0
C0C0C0
C0C0C0
FFFFC0
FFFFC0
ENDCHAR
STARTCHAR 0429
ENCODING 1065
SWIDTH 1000 0
DWIDTH 24 0
BBX 19 19 3 -1
BITMAP
C0C180
C0C180
C0C180
C0C180
C0C180
C0C180
C0C180
C0C180
C0C180
C0C180
C0C180
C0C180
C0C180
C0C180
C0C180
FFFFE0
FFFFE0
000060
000060
ENDCHAR
STARTCHAR 042A
ENCODING 1066
SWIDTH 1000 0
DWIDTH 24 0
BBX 17 17 3 1
BITMAP
FC0000
FC0000
0C0000
0C0000
0C0000
0C0000
0C0000
0FFC00
0FFF00
0C0700
0C0380
0C0180
0C0180
0C0380
0C0700
0FFE00
0FFC00
ENDCHAR
STARTCHAR 042B
ENCODING 1067
SWIDTH 1000 0
DWIDTH 24 0
BBX 16 17 4 1
BITMAP
C003
C003
C003
C003
C003
C003
C003
FF83
FFC3
C0E3
C073
C033
C033
C073
C0E3
FFC3
FF03
ENDCHAR
STARTCHAR 042C
ENCODING 1068
SWIDTH 1000 0
DWIDTH 24 0
BBX 13 17 6 1
BITMAP
C000
C000
C000
C000
C000
C000
C000
FFC0
FFF0
C038
C018
C018
C018
C018
C038
FFF0
FFC0
ENDCHAR
STARTCHAR 042D
ENCODING 1069
SWIDTH 1000 0
DWIDTH 24 0
BBX 15 18 5 0
BITMAP
0FC0
3FF0
7078
E018
C00C
000C
000E
3C06
3FE6
03E6
0006
0006
C00E
C00C
601C
7878
3FF0
0FC0
ENDCHAR
STARTCHAR 042E
ENCODING 1070
SWIDTH 1000 0
DWIDTH 24 0
BBX 18 18 4 0
BITMAP
C0F800
C1FE00
C38700
C70300
C60180
C60180
CE0180
FC01C0
FC01C0
CC01C0
CC01C0
C60180
C60180
C60380
C30700
C38F00
C1FE00
007800
ENDCHAR
STARTCHAR 042F
ENCODING 1071
SWIDTH 1000 0
DWIDTH 24 0
BBX 13 17 5 1
BITMAP
1FF8
3FF8
7018
6018
6018
6018
7018
3FF8
0FF8
0618
0E18
0C18
1818
3818
3018
7018
E018
ENDCHAR
STARTCHAR 0430
ENCODING 1072
SWIDTH 1000 0
DWIDTH 24 0
BBX 12 13 6 0
BITMAP
1F00
3FC0
70C0
6060
01E0
1FE0
7860
6060
C060
C0E0
61E0
7F70
1C30
ENDCHAR
STARTCHAR 0431
ENCODING 1073
SWIDTH 1000 0
DWIDTH 24 0
BBX 12 18 6 0
BITMAP
00E0
03C0
0F80
1C00
3000
6000
6F80
7FC0
70E0
E060
E060
E070
E070
6060
6060
30E0
3FC0
0F00
ENDCHAR
STARTCHAR 0432
ENCODING 1074
SWIDTH 1000 0
DWIDTH 24 0
BBX 10 12 7 1
BITMAP
FF00
FF80
C180
C180
C180
FF00
FF80
C1C0
C0C0
C1C0
FF80
FF00
ENDCHAR
STARTCHAR 0433
ENCODING 1075
SWIDTH 1000 0
DWIDTH 24 0
BBX 9 12 8 1
BITMAP
FF80
FF80
C000
C000
C000
C000
C000
C000
C000
C000
C000
C000
ENDCHAR
STARTCHAR 0434
ENCODING 1076
SWIDTH 1000 0
DWIDTH 24 0
BBX 13 14 5 -1
BITMAP
0FE0
0FE0
0C20
0C20
0C20
0C20
1820
1820
3820
3020
FFF8
FFF8
C018
C018
ENDCHAR
STARTCHAR 0435
ENCODING 1077
SWIDTH 1000 0
DWIDTH 24 0
BBX 12 13 6 0
BITMAP
0F00
3FC0
70C0
6060
C020
FFF0
FFF0
C000
C000
6070
70E0
3FC0
0F80
ENDCHAR
STARTCHAR 0436
ENCODING 1078
SWIDTH 1000 0
DWIDTH 24 0
BBX 16 11 4 1
BITMAP
6186
618E
318C
399C
0FF0
1FF8
1998
318C
318C
6186
E187
ENDCHAR
STARTCHAR 0437
ENCODING 1079
SWIDTH 1000 0
DWIDTH 24 0
BBX 10 13 7 0
BITMAP
3E00
7F80
E180
0180
0180
1F00
1F80
01C0
00C0
C0C0
E1C0
7F80
3E00
ENDCHAR
STARTCHAR 0438
ENCODING 1080
SWIDTH 1000 0
DWIDTH 24 0
BBX 10 12 7 1
BITMAP
C0C0
C0C0
C1C0
C3C0
C7C0
CEC0
DCC0
F8C0
F0C0
E0C0
C0C0
C0C0
ENDCHAR
STARTCHAR 0439
ENCODING 1081
SWIDTH 1000 0
DWIDTH 24 0
BBX 10 16 7 1
BITMAP
6180
6180
3E00
0000
C0C0
C0C0
C1C0
C3C0
C7C0
CEC0
DCC0
F8C0
F0C0
E0C0
C0C0
C0C0
ENDCHAR
STARTCHAR 043A
ENCODING 1082
SWIDTH 1000 0
DWIDTH 24 0
BBX 11 11 7 1
BITMAP
C1C0
C180
C380
C700
FE00
FE00
C700
C300
C180
C1C0
C0E0
ENDCHAR
STARTCHAR 043B
ENCODING 1083
SWIDTH 1000 0
DWIDTH 24 0
BBX 13 13 4 0
BITMAP
07F8
07F8
0618
0618
0618
0618
0618
0618
0618
C618
CC18
7C18
3800
ENDCHAR
STARTCHAR 043C
ENCODING 1084
SWIDTH 1000 0
DWIDTH 24 0
BBX 12 12 6 1
BITMAP
E070
F0F0
F0F0
D0F0
D9B0
D9B0
D9B0
C930
CF30
CF30
C630
C630
ENDCHAR
STARTCHAR 043D
ENCODING 1085
SWIDTH 1000 0
DWIDTH 24 0
BBX 10 11 7 1
BITMAP
C0C0
C0C0
C0C0
C0C0
FFC0
FFC0
C0C0
C0C0
C0C0
C0C0
C0C0
ENDCHAR
STARTCHAR 043E
ENCODING 1086
SWIDTH 1000 0
DWIDTH 24 0
BBX 12 13 6 0
BITMAP
0F00
3FC0
70E0
E060
C030
C030
C030
C030
C030
6060
30E0
3FC0
0F00
ENDCHAR
STARTCHAR 043F
ENCODING 1087
SWIDTH 1000 0
DWIDTH 24 0
BBX 10 12 7 1
BITMAP
FFC0
FFC0
C0C0
C0C0
C0C0
C0C0
C0C0
C0C0
C0C0
C0C0
C0C0
C0C0
ENDCHAR
STARTCHAR 0440
ENCODING 1088
SWIDTH 1000 0
DWIDTH 24 0
BBX 11 15 7 -2
BITMAP
CF00
FFC0
F0E0
E060
C060
C060
C060
C060
E060
F0E0
FFC0
CF00
C000
C000
C000
ENDCHAR
STARTCHAR 0441
ENCODING 1089
SWIDTH 1000 0
DWIDTH 24 0
BBX 12 13 6 0
BITMAP
0F80
3FC0
70E0
6060
C000
C000
C000
C000
C070
6060
70E0
3FC0
0F00
ENDCHAR
STARTCHAR 0442
ENCODING 1090
SWIDTH 1000 0
DWIDTH 24 0
BBX 10 12 7 1
BITMAP
FFC0
FFC0
0C00
0C00
0C00
0C00
0C00
0C00
0C00
0C00
0C00
0C00
ENDCHAR
STARTCHAR 0443
ENCODING 1091
SWIDTH 1000 0
DWIDTH 24 0
BBX 12 15 6 -2
BITMAP
E030
6030
6060
3060
30C0
18C0
19C0
0D80
0D80
0700
0700
0600
0600
3C00
7C00
ENDCHAR
STARTCHAR 0444
ENCODING 1092
SWIDTH 1000 0
DWIDTH 24 0
BBX 16 20 4 -2
BITMAP
0180
0180
0180
0180
0180
1FF8
3FFC
61C6
6186
C183
C183
C183
C183
6186
63C6
3FFC
1DB8
0180
0180
0180
ENDCHAR
STARTCHAR 0445
ENCODING 1093
SWIDTH 1000 0
DWIDTH 24 0
BBX 13 12 6 1
BITMAP
E070
70E0
39C0
1980
0F00
0600
0F00
1F80
39C0
70E0
E070
C038
ENDCHAR
STARTCHAR 0446
ENCODING 1094
SWIDTH 1000 0
DWIDTH 24 0
BBX 12 14 7 -1
BITMAP
C0C0
C0C0
C0C0
C0C0
C0C0
C0C0
C0C0
C0C0
C0C0
C0C0
FFF0
FFF0
0030
0030
ENDCHAR
STARTCHAR 0447
ENCODING 1095
SWIDTH 1000 0
DWIDTH 24 0
BBX 10 12 7 1
BITMAP
C0C0
C0C0
C0C0
C0C0
C0C0
C1C0
FFC0
7CC0
00C0
00C0
00C0
00C0
ENDCHAR
STARTCHAR 0448
ENCODING 1096
SWIDTH 1000 0
DWIDTH 24 0
BBX 16 12 4 1
BITMAP
C183
C183
C183
C183
C183
C183
C183
C183
C183
C183
FFFF
FFFF
ENDCHAR
STARTCHAR 0449
ENCODING 1097
SWIDTH 1000 0
DWIDTH 24 0
BBX 17 14 4 -1
BITMAP
C18600
C18600
C18600
C18600
C18600
C18600
C18600
C18600
C18600
C18600
FFFF80
FFFF80
000180
000180
ENDCHAR
STARTCHAR 044A
ENCODING 1098
SWIDTH 1000 0
DWIDTH 24 0
BBX 13 12 5 1
BITMAP
F800
F800
1800
1800
1FE0
1FF8
1818
1818
1818
1818
1FF0
1FE0
ENDCHAR
STARTCHAR 044B
ENCODING 1099
SWIDTH 1000 0
DWIDTH 24 0
BBX 14 12 5 1
BITMAP
C00C
C00C
C00C
C00C
FF0C
FF8C
C1CC
C0CC
C0CC
C1CC
FF8C
FF0C
ENDCHAR
STARTCHAR 044C
ENCODING 1100
SWIDTH 1000 0
DWIDTH 24 0
BBX 10 12 7 1
BITMAP
C000
C000
C000
C000
FF00
FFC0
C0C0
C0C0
C0C0
C0C0
FFC0
FF00
ENDCHAR
STARTCHAR 044D
ENCODING 1101
SWIDTH 1000 0
DWIDTH 24 0
BBX 12 13 6 0
BITMAP
1F80
3FC0
70E0
E070
0030
1F30
1F30
0030
E070
6060
70E0
3FC0
1F00
ENDCHAR
STARTCHAR 044E
ENCODING 1102
SWIDTH 1000 0
DWIDTH 24 0
BBX 16 13 4 0
BITMAP
E0F8
E1FE
E38E
E707
E603
FE03
FE03
E603
E603
E303
E38E
E1FE
00F8
ENDCHAR
STARTCHAR 044F
ENCODING 1103
SWIDTH 1000 0
DWIDTH 24 0
BBX 11 12 6 1
BITMAP
1FE0
3FE0
7060
6060
7060
3FE0
1FE0
1860
1860
3060
7060
E060
ENDCHAR
STARTCHAR 0451
ENCODING 1105
SWIDTH 1000 0
DWIDTH 24 0
BBX 12 17 6 0
BITMAP
30C0
30C0
0000
0000
0F00
3FC0
70C0
6060
C020
FFF0
FFF0
C000
C000
6070
70E0
3FC0
0F80
ENDCHAR
STARTCHAR 1E3E
ENCODING 7742
SWIDTH 916 0
DWIDTH 22 0
BBX 17 22 2 0
BITMAP
006000
00E000
00C000
018000
000000
F00380
F00380
F00780
D80780
D80D80
CC0D80
CC0D80
CC1980
C61980
C63180
C33180
C33180
C36180
C1E180
C1C180
C0C180
C0C180
ENDCHAR
STARTCHAR 1E3F
ENCODING 7743
SWIDTH 875 0
DWIDTH 21 0
BBX 17 17 2 0
BITMAP
006000
004000
00C000
000000
000000
CF1E00
FFBF00
F1E380
E1C180
C1C180
C1C180
C1C180
C1C180
C1C180
C1C180
C1C180
C1C180
ENDCHAR
STARTCHAR 1F70
ENCODING 8048
SWIDTH 625 0
DWIDTH 15 0
BBX 12 17 1 0
BITMAP
0C00
0C00
0600
0000
0000
1F30
3FF0
70F0
6070
E030
C030
C030
C030
6070
70F0
3FB0
1F30
ENDCHAR
STARTCHAR 1F71
ENCODING 8049
SWIDTH 625 0
DWIDTH 15 0
BBX 12 17 1 0
BITMAP
0380
0300
0600
0000
0000
1F30
3FF0
70F0
6070
E030
C030
C030
C030
6070
70F0
3FB0
1F30
ENDCHAR
STARTCHAR 1F72
ENCODING 8050
SWIDTH 500 0
DWIDTH 12 0
BBX 10 17 1 0
BITMAP
1800
0C00
0400
0000
0000
1FC0
7FC0
7000
6000
7000
1F00
7C00
E000
C000
E000
7FC0
3FC0
ENDCHAR
STARTCHAR 1F73
ENCODING 8051
SWIDTH 500 0
DWIDTH 12 0
BBX 10 17 1 0
BITMAP
0300
0600
0600
0000
0000
1FC0
7FC0
7000
6000
7000
1F00
7C00
E000
C000
E000
7FC0
3FC0
ENDCHAR
STARTCHAR 2002
ENCODING 8194
SWIDTH 500 0
DWIDTH 12 0
BBX 0 0 0 0
BITMAP
ENDCHAR
STARTCHAR 2003
ENCODING 8195
SWIDTH 1000 0
DWIDTH 24 0
BBX 0 0 0 0
BITMAP
ENDCHAR
STARTCHAR 2010
ENCODING 8208
SWIDTH 375 0
DWIDTH 9 0
BBX 6 2 1 6
BITMAP
FC
FC
ENDCHAR
STARTCHAR 2011
ENCODING 8209
SWIDTH 375 0
DWIDTH 9 0
BBX 6 2 1 6
BITMAP
FC
FC
ENDCHAR
STARTCHAR 2012
ENCODING 8210
SWIDTH 375 0
DWIDTH 9 0
BBX 6 2 1 6
BITMAP
FC
FC
ENDCHAR
STARTCHAR 2013
ENCODING 8211
SWIDTH 541 0
DWIDTH 13 0
BBX 11 1 1 7
BITMAP
FFE0
ENDCHAR
STARTCHAR 2014
ENCODING 8212
SWIDTH 958 0
DWIDTH 23 0
BBX 21 2 1 8
BITMAP
FFFFF8
FFFFF8
ENDCHAR
STARTCHAR 2015
ENCODING 8213
SWIDTH 1000 0
DWIDTH 24 0
BBX 20 2 2 8
BITMAP
FFFFF0
FFFFF0
ENDCHAR
STARTCHAR 2016
ENCODING 8214
SWIDTH 1000 0
DWIDTH 24 0
BBX 6 24 9 -3
BITMAP
84
84
84
84
84
84
84
84
84
84
84
84
84
84
84
84
84
84
84
84
84
84
84
84
ENDCHAR
STARTCHAR 2018
ENCODING 8216
SWIDTH 1000 0
DWIDTH 24 0
BBX 4 7 19 14
BITMAP
30
60
40
C0
E0
E0
E0
ENDCHAR
STARTCHAR 2019
ENCODING 8217
SWIDTH 1000 0
DWIDTH 24 0
BBX 4 7 1 13
BITMAP
70
70
70
30
20
60
C0
ENDCHAR
STARTCHAR 201C
ENCODING 8220
SWIDTH 1000 0
DWIDTH 24 0
BBX 9 7 14 14
BITMAP
3180
2300
4200
4600
E700
E700
E700
ENDCHAR
STARTCHAR 201D
ENCODING 8221
SWIDTH 1000 0
DWIDTH 24 0
BBX 9 7 1 13
BITMAP
7380
7380
7380
3100
2100
6200
C600
ENDCHAR
STARTCHAR 2020
ENCODING 8224
SWIDTH 1000 0
DWIDTH 24 0
BBX 10 22 7 -2
BITMAP
0C00
1E00
0C00
0C00
EDC0
FFC0
FBC0
CDC0
0C00
1C00
0C00
0C00
0C00
0C00
0C00
0C00
0C00
0C00
0C00
0C00
0C00
0C00
ENDCHAR
STARTCHAR 2021
ENCODING 8225
SWIDTH 1000 0
DWIDTH 24 0
BBX 10 22 7 -2
BITMAP
0C00
0C00
0C00
EDC0
FFC0
EDC0
0C00
0C00
0C00
0C00
0C00
0C00
0C00
0C00
0C00
0C00
EDC0
FFC0
EDC0
0C00
0C00
0C00
ENDCHAR
STARTCHAR 2022
ENCODING 8226
SWIDTH 375 0
DWIDTH 9 0
BBX 6 6 1 6
BITMAP
38
7C
FC
FC
7C
38
ENDCHAR
STARTCHAR 2025
ENCODING 8229
SWIDTH 1000 0
DWIDTH 24 0
BBX 14 3 5 7
BITMAP
C00C
C00C
C00C
ENDCHAR
STARTCHAR 2026
ENCODING 8230
SWIDTH 1000 0
DWIDTH 24 0
BBX 18 3 3 7
BITMAP
C0C0C0
C0C0C0
C0C0C0
ENDCHAR
STARTCHAR 2030
ENCODING 8240
SWIDTH 1000 0
DWIDTH 24 0
BBX 22 22 1 -2
BITMAP
000600
000C00
380C00
7C1800
4C1000
C43000
C46000
C44000
4CC000
7D8000
398000
037870
027CF8
06CCC8
0CCC8C
0CC48C
18CC8C
10CCC8
307CF8
607870
400000
C00000
ENDCHAR
STARTCHAR 2032
ENCODING 8242
SWIDTH 291 0
DWIDTH 7 0
BBX 3 6 2 14
BITMAP
60
40
C0
C0
80
80
ENDCHAR
STARTCHAR 2033
ENCODING 8243
SWIDTH 458 0
DWIDTH 11 0
BBX 6 6 2 14
BITMAP
64
4C
CC
C8
88
88
ENDCHAR
STARTCHAR 203B
ENCODING 8251
SWIDTH 1000 0
DWIDTH 24 0
BBX 20 19 2 0
BITMAP
C06030
60F060
3060C0
180180
0C0300
060600
030C00
019800
60F060
7060E0
60F060
019800
030C00
060600
0C0300
186180
30F0C0
606060
400020
ENDCHAR
STARTCHAR 203C
ENCODING 8252
SWIDTH 500 0
DWIDTH 12 0
BBX 8 17 2 0
BITMAP
E7
E7
E6
E6
66
66
66
66
46
46
42
42
00
00
E7
E7
E7
ENDCHAR
STARTCHAR 203E
ENCODING 8254
SWIDTH 500 0
DWIDTH 12 0
BBX 6 1 3 15
BITMAP
FC
ENDCHAR
STARTCHAR 203F
ENCODING 8255
SWIDTH 458 0
DWIDTH 11 0
BBX 11 3 0 -4
BITMAP
C060
60C0
1F00
ENDCHAR
STARTCHAR 2042
ENCODING 8258
SWIDTH 1000 0
DWIDTH 24 0
BBX 18 18 3 0
BITMAP
00C000
00C000
069800
03A000
00C000
03B000
06D800
00C000
000000
000000
180600
DB36C0
761D80
180600
761D80
D332C0
180600
180600
ENDCHAR
STARTCHAR 2047
ENCODING 8263
SWIDTH 1000 0
DWIDTH 24 0
BBX 22 18 1 0
BITMAP
1F03E0
7F87F8
61CE18
C0CC0C
C0D80C
00C00C
00C01C
018038
030070
0600E0
0C00C0
0C0080
0C0080
000000
000000
0C01C0
0C01C0
0C01C0
ENDCHAR
STARTCHAR 2048
ENCODING 8264
SWIDTH 750 0
DWIDTH 18 0
BBX 15 17 1 0
BITMAP
1F06
7FC6
61C6
C0E6
4066
00E6
00C6
0186
0706
0606
0C06
0C06
0000
0000
0C06
0C06
0C06
ENDCHAR
STARTCHAR 2049
ENCODING 8265
SWIDTH 791 0
DWIDTH 19 0
BBX 15 17 2 0
BITMAP
E1F8
E3FC
E70E
EE06
6406
6006
600C
6018
4030
4060
4060
4040
0000
0000
E0E0
E0E0
E0E0
ENDCHAR
STARTCHAR 2051
ENCODING 8273
SWIDTH 1000 0
DWIDTH 24 0
BBX 8 18 8 0
BITMAP
18
DA
76
18
76
D3
18
18
00
00
18
18
D3
76
18
76
DB
18
ENDCHAR
STARTCHAR 205A
ENCODING 8282
SWIDTH 1000 0
DWIDTH 24 0
BBX 2 14 11 2
BITMAP
C0
C0
C0
00
00
00
00
00
00
00
00
C0
C0
C0
ENDCHAR
STARTCHAR 205D
ENCODING 8285
SWIDTH 1000 0
DWIDTH 24 0
BBX 2 18 11 0
BITMAP
C0
C0
C0
00
00
00
00
00
C0
C0
C0
00
00
00
00
C0
C0
C0
ENDCHAR
STARTCHAR 20AC
ENCODING 8364
SWIDTH 625 0
DWIDTH 15 0
BBX 13 17 1 0
BITMAP
07E0
0FF8
1C10
3800
3000
FFF0
6000
6000
6000
FFF0
7000
3000
3000
3800
1C38
0FF0
03E0
ENDCHAR
STARTCHAR 2103
ENCODING 8451
SWIDTH 1000 0
DWIDTH 24 0
BBX 20 19 1 1
BITMAP
700000
480000
8C3F00
8CFFC0
49C1E0
338060
030070
060000
060000
060000
060000
060000
060000
060030
070070
038060
01C1E0
00FFC0
003F00
ENDCHAR
STARTCHAR 210F
ENCODING 8463
SWIDTH 583 0
DWIDTH 14 0
BBX 11 18 1 0
BITMAP
1800
1800
1B00
7F00
B000
3000
33C0
37E0
6C60
7860
7060
6060
6040
E0C0
C0C0
C0C0
C0C0
C180
ENDCHAR
STARTCHAR 2113
ENCODING 8467
SWIDTH 1000 0
DWIDTH 24 0
BBX 12 17 6 0
BITMAP
0380
07C0
0EC0
1C60
1840
1840
30C0
30C0
30C0
3180
3300
3300
3620
3C30
7860
EFC0
0780
ENDCHAR
STARTCHAR 2116
ENCODING 8470
SWIDTH 1000 0
DWIDTH 24 0
BBX 21 17 2 1
BITMAP
C18000
E18000
E18000
F18000
F18000
D18F00
D99F80
D99980
C990C0
CDB0C0
C5B0C0
C7B0C0
C7B0C0
C390C0
C399C0
C39F98
C18F18
ENDCHAR
STARTCHAR 2121
ENCODING 8481
SWIDTH 1000 0
DWIDTH 24 0
BBX 22 17 1 1
BITMAP
FF8000
FF8000
180000
180000
18FCC0
18FCC0
18C0C0
18C0C0
18C0C0
18F8C0
18F8C0
18C0C0
18C0C0
18C0C0
18C0C0
18FCFC
18FCFC
ENDCHAR
STARTCHAR 2127
ENCODING 8487
SWIDTH 833 0
DWIDTH 20 0
BBX 16 17 2 0
BITMAP
FC3F
FC3F
0C30
1818
300C
300E
6006
6006
6006
6006
6006
6006
700E
380C
3C3C
1FF8
07E0
ENDCHAR
STARTCHAR 212B
ENCODING 8491
SWIDTH 1000 0
DWIDTH 24 0
BBX 16 19 4 1
BITMAP
03C0
0240
0240
03C0
0000
0180
03C0
03C0
0660
0660
0C30
0C30
1818
1FF8
3FFC
300C
700E
6006
E007
ENDCHAR
STARTCHAR 2135
ENCODING 8501
SWIDTH 708 0
DWIDTH 17 0
BBX 14 17 1 0
BITMAP
1010
6030
6018
601C
7034
3864
1E40
3FC0
63C0
61E0
6070
7038
301C
301C
3018
7018
E030
ENDCHAR
STARTCHAR 2153
ENCODING 8531
SWIDTH 833 0
DWIDTH 20 0
BBX 17 18 2 -1
BITMAP
100200
F00600
F00C00
300800
301000
303000
306000
304000
30C000
318F00
011180
020180
060300
0C0F00
080180
180180
303180
201F00
ENDCHAR
STARTCHAR 2154
ENCODING 8532
SWIDTH 833 0
DWIDTH 20 0
BBX 18 18 1 -1
BITMAP
000100
3C0300
660600
460400
0E0C00
3C1800
703000
402000
FE6700
00C880
0088C0
0180C0
030780
060780
0400C0
0C08C0
1818C0
100F80
ENDCHAR
STARTCHAR 2155
ENCODING 8533
SWIDTH 833 0
DWIDTH 20 0
BBX 17 18 2 -1
BITMAP
100200
F00600
F00C00
300800
301000
303000
306000
304000
30C000
019F80
011800
021000
061F00
0C1980
080080
180080
303180
200F00
ENDCHAR
STARTCHAR 2160
ENCODING 8544
SWIDTH 1000 0
DWIDTH 24 0
BBX 2 17 11 1
BITMAP
C0
C0
C0
C0
C0
C0
C0
C0
C0
C0
C0
C0
C0
C0
C0
C0
C0
ENDCHAR
STARTCHAR 2161
ENCODING 8545
SWIDTH 1000 0
DWIDTH 24 0
BBX 8 17 8 1
BITMAP
C3
C3
C3
C3
C3
C3
C3
C3
C3
C3
C3
C3
C3
C3
C3
C3
C3
ENDCHAR
STARTCHAR 2162
ENCODING 8546
SWIDTH 1000 0
DWIDTH 24 0
BBX 14 17 5 1
BITMAP
C30C
C30C
C30C
C30C
C30C
C30C
C30C
C30C
C30C
C30C
C30C
C30C
C30C
C30C
C30C
C30C
C30C
ENDCHAR
STARTCHAR 2163
ENCODING 8547
SWIDTH 1000 0
DWIDTH 24 0
BBX 18 17 4 1
BITMAP
CC01C0
CC0180
CE0180
C60380
C60300
C70300
C30700
C30600
C38600
C18C00
C18C00
C1CC00
C0D800
C0D800
C07800
C07000
C07000
ENDCHAR
STARTCHAR 2164
ENCODING 8548
SWIDTH 1000 0
DWIDTH 24 0
BBX 16 17 4 1
BITMAP
E007
6006
700E
300C
300C
381C
1818
1818
0C38
0C30
0E70
0660
0660
07E0
03C0
03C0
0180
ENDCHAR
STARTCHAR 2165
ENCODING 8549
SWIDTH 1000 0
DWIDTH 24 0
BBX 18 17 2 1
BITMAP
E00CC0
600CC0
601CC0
7018C0
3018C0
3038C0
3830C0
1830C0
1870C0
0C60C0
0C60C0
0CE0C0
06C0C0
06C0C0
0780C0
0380C0
0380C0
ENDCHAR
STARTCHAR 2166
ENCODING 8550
SWIDTH 1000 0
DWIDTH 24 0
BBX 20 17 2 1
BITMAP
C07630
C06630
C06630
60E630
60C630
60C630
70C630
31C630
318630
318630
198630
1B0630
1B0630
1B0630
0F0630
0E0630
0E0630
ENDCHAR
STARTCHAR 2167
ENCODING 8551
SWIDTH 1000 0
DWIDTH 24 0
BBX 21 17 1 1
BITMAP
C06CD8
606CD8
60CCD8
60CCD8
60CCD8
30CCD8
318CD8
318CD8
318CD8
198CD8
1B0CD8
1B0CD8
1B0CD8
0B0CD8
0E0CD8
0E0CD8
0E0CD8
ENDCHAR
STARTCHAR 2168
ENCODING 8552
SWIDTH 1000 0
DWIDTH 24 0
BBX 18 17 4 1
BITMAP
C60380
C30300
C38700
C18E00
C1CC00
C0DC00
C07800
C07000
C07000
C07800
C0DC00
C1CC00
C18E00
C38700
C70300
C60380
CE01C0
ENDCHAR
STARTCHAR 2169
ENCODING 8553
SWIDTH 1000 0
DWIDTH 24 0
BBX 16 17 4 1
BITMAP
700E
381C
1818
1C38
0E70
0660
03C0
03C0
03C0
03C0
0660
0E70
1C38
381C
381C
700E
E007
ENDCHAR
STARTCHAR 216A
ENCODING 8554
SWIDTH 1000 0
DWIDTH 24 0
BBX 18 17 2 1
BITMAP
7018C0
3030C0
1870C0
1C60C0
0CE0C0
0EC0C0
0780C0
0780C0
0380C0
0780C0
0EC0C0
0CE0C0
1C60C0
3870C0
3038C0
7018C0
E01CC0
ENDCHAR
STARTCHAR 216B
ENCODING 8555
SWIDTH 1000 0
DWIDTH 24 0
BBX 20 17 2 1
BITMAP
E0E630
60C630
71C630
318630
1B8630
1B0630
0F0630
0E0630
0E0630
0F0630
1B0630
3B8630
318630
71C630
60C630
E0E630
C06630
ENDCHAR
STARTCHAR 2170
ENCODING 8560
SWIDTH 1000 0
DWIDTH 24 0
BBX 2 16 11 2
BITMAP
C0
C0
00
00
00
C0
C0
C0
C0
C0
C0
C0
C0
C0
C0
C0
ENDCHAR
STARTCHAR 2171
ENCODING 8561
SWIDTH 1000 0
DWIDTH 24 0
BBX 8 16 8 2
BITMAP
C3
C3
00
00
00
C3
C3
C3
C3
C3
C3
C3
C3
C3
C3
C3
ENDCHAR
STARTCHAR 2172
ENCODING 8562
SWIDTH 1000 0
DWIDTH 24 0
BBX 12 16 6 2
BITMAP
C630
C630
0000
0000
0000
C630
C630
C630
C630
C630
C630
C630
C630
C630
C630
C630
ENDCHAR
STARTCHAR 2173
ENCODING 8563
SWIDTH 1000 0
DWIDTH 24 0
BBX 15 16 5 2
BITMAP
C000
C000
0000
0000
0000
CE06
C606
C60E
C30C
C30C
C398
C198
C1B0
C0F0
C0F0
C060
ENDCHAR
STARTCHAR 2174
ENCODING 8564
SWIDTH 1000 0
DWIDTH 24 0
BBX 12 12 6 1
BITMAP
C030
E070
6060
6060
30C0
30C0
39C0
1980
1980
0F00
0F00
0F00
ENDCHAR
STARTCHAR 2175
ENCODING 8565
SWIDTH 1000 0
DWIDTH 24 0
BBX 15 16 4 2
BITMAP
0006
0006
0000
0000
0000
C0E6
C0C6
E0C6
6186
6186
3386
3306
1B06
1E06
1E06
0C06
ENDCHAR
STARTCHAR 2176
ENCODING 8566
SWIDTH 1000 0
DWIDTH 24 0
BBX 19 17 2 1
BITMAP
000CE0
000CE0
000000
000000
000000
E06C60
60CC60
60CC60
31CC60
318C60
318C60
1B0C60
1B0C60
1B0C60
0E0C60
0E0C60
0E0C60
ENDCHAR
STARTCHAR 2177
ENCODING 8567
SWIDTH 1000 0
DWIDTH 24 0
BBX 20 17 2 1
BITMAP
001B30
001B30
000000
000000
000000
C0D930
C0D930
619930
619930
619930
331930
331930
361930
1E1930
1E1930
0C1930
0C1930
ENDCHAR
STARTCHAR 2178
ENCODING 8568
SWIDTH 1000 0
DWIDTH 24 0
BBX 16 17 5 1
BITMAP
C000
C000
0000
0000
0000
CE0E
C70C
C318
C1B8
C1F0
C0E0
C0F0
C1B0
C398
C71C
CE0E
CC07
ENDCHAR
STARTCHAR 2179
ENCODING 8569
SWIDTH 1000 0
DWIDTH 24 0
BBX 13 12 6 1
BITMAP
E070
70E0
39C0
1980
0F00
0600
0F00
1F80
39C0
70E0
E070
C038
ENDCHAR
STARTCHAR 217A
ENCODING 8570
SWIDTH 1000 0
DWIDTH 24 0
BBX 16 17 3 1
BITMAP
0003
0003
0000
0000
0000
7073
30E3
18C3
1D83
0F83
0703
0F03
0D83
19C3
38E3
7073
E033
ENDCHAR
STARTCHAR 217B
ENCODING 8571
SWIDTH 1000 0
DWIDTH 24 0
BBX 18 17 3 1
BITMAP
000CC0
000CC0
000000
000000
000000
C18CC0
638CC0
730CC0
360CC0
1E0CC0
1C0CC0
1C0CC0
3E0CC0
330CC0
630CC0
E18CC0
C1CCC0
ENDCHAR
STARTCHAR 2190
ENCODING 8592
SWIDTH 1000 0
DWIDTH 24 0
BBX 20 8 2 5
BITMAP
0C0000
180000
700000
FFFFF0
FFFFF0
700000
180000
0C0000
ENDCHAR
STARTCHAR 2191
ENCODING 8593
SWIDTH 1000 0
DWIDTH 24 0
BBX 8 20 8 0
BITMAP
18
3C
7E
FE
DB
99
18
18
18
18
18
18
18
18
18
18
18
18
18
18
ENDCHAR
STARTCHAR 2192
ENCODING 8594
SWIDTH 1000 0
DWIDTH 24 0
BBX 20 8 2 5
BITMAP
000700
000180
0000E0
FFFFF0
FFFFF0
0000E0
000180
000300
ENDCHAR
STARTCHAR 2193
ENCODING 8595
SWIDTH 1000 0
DWIDTH 24 0
BBX 8 20 8 -2
BITMAP
18
18
18
18
18
18
18
18
18
18
18
18
18
99
99
DB
7E
7E
3C
18
ENDCHAR
STARTCHAR 2194
ENCODING 8596
SWIDTH 750 0
DWIDTH 18 0
BBX 16 10 1 3
BITMAP
0820
1830
1818
300C
6006
FFFF
6006
300C
1818
0C30
ENDCHAR
STARTCHAR 2196
ENCODING 8598
SWIDTH 1000 0
DWIDTH 24 0
BBX 17 17 4 0
BITMAP
FE0000
FF0000
F00000
F80000
DC0000
CE0000
C70000
438000
01C000
00E000
007000
003800
001C00
000E00
000700
000380
000100
ENDCHAR
STARTCHAR 2197
ENCODING 8599
SWIDTH 1000 0
DWIDTH 24 0
BBX 17 17 3 0
BITMAP
003F80
007F80
000780
000F80
001D80
003980
007180
00E100
01C000
038000
070000
0E0000
1C0000
380000
700000
E00000
400000
ENDCHAR
STARTCHAR 2198
ENCODING 8600
SWIDTH 1000 0
DWIDTH 24 0
BBX 17 17 3 1
BITMAP
400000
E00000
700000
380000
1C0000
0E0000
070000
038000
01C000
00E100
007180
003980
001D80
000F80
000780
007F80
003F80
ENDCHAR
STARTCHAR 2199
ENCODING 8601
SWIDTH 1000 0
DWIDTH 24 0
BBX 17 17 4 1
BITMAP
000100
000380
000700
000E00
001C00
003800
007000
00E000
01C000
438000
C70000
CE0000
DC0000
F80000
F00000
FF0000
FE0000
ENDCHAR
STARTCHAR 21C4
ENCODING 8644
SWIDTH 1000 0
DWIDTH 24 0
BBX 20 18 2 0
BITMAP
000700
000180
0000E0
FFFFF0
FFFFF0
0000E0
000180
000700
000000
0E0000
1C0000
380000
700000
FFFFF0
FFFFF0
700000
180000
0E0000
ENDCHAR
STARTCHAR 21D2
ENCODING 8658
SWIDTH 750 0
DWIDTH 18 0
BBX 16 11 1 2
BITMAP
0020
0030
0018
FFFC
0006
0003
0006
FFFC
0018
0030
0020
ENDCHAR
STARTCHAR 21D4
ENCODING 8660
SWIDTH 750 0
DWIDTH 18 0
BBX 16 11 1 2
BITMAP
0420
0C30
1818
3FFC
6006
C003
6006
3FFC
1818
0C30
0420
ENDCHAR
STARTCHAR 21E6
ENCODING 8678
SWIDTH 1000 0
DWIDTH 24 0
BBX 20 8 2 5
BITMAP
040000
1C0000
23FFF0
C00010
C00010
23FFF0
1C0000
040000
ENDCHAR
STARTCHAR 21E7
ENCODING 8679
SWIDTH 1000 0
DWIDTH 24 0
BBX 8 20 8 0
BITMAP
18
18
24
42
42
E7
24
24
24
24
24
24
24
24
24
24
24
24
24
3C
ENDCHAR
STARTCHAR 21E8
ENCODING 8680
SWIDTH 1000 0
DWIDTH 24 0
BBX 20 8 2 5
BITMAP
000200
000580
FFFC40
800030
800030
FFFC40
000580
000200
ENDCHAR
STARTCHAR 21E9
ENCODING 8681
SWIDTH 1000 0
DWIDTH 24 0
BBX 8 20 8 -1
BITMAP
3C
24
24
24
24
24
24
24
24
24
24
24
24
E7
42
42
24
24
18
18
ENDCHAR
STARTCHAR 2200
ENCODING 8704
SWIDTH 750 0
DWIDTH 18 0
BBX 16 18 1 -1
BITMAP
8000
C003
C002
6006
6004
300C
3FFC
1818
1818
0830
0C30
0460
0660
0240
03C0
0380
0180
0100
ENDCHAR
STARTCHAR 2202
ENCODING 8706
SWIDTH 583 0
DWIDTH 14 0
BBX 12 19 1 -1
BITMAP
0F00
3FC0
10C0
0060
0060
0020
0020
0F30
3FB0
70E0
60E0
E060
C060
C060
C0C0
E0C0
6180
3F00
1E00
ENDCHAR
STARTCHAR 2203
ENCODING 8707
SWIDTH 750 0
DWIDTH 18 0
BBX 13 17 2 0
BITMAP
FFF8
0018
0018
0018
0018
0018
0018
FFF8
0018
0018
0018
0018
0018
0018
0018
0018
FFF8
ENDCHAR
STARTCHAR 2205
ENCODING 8709
SWIDTH 791 0
DWIDTH 19 0
BBX 15 16 2 1
BITMAP
07C0
1836
201C
401C
C034
8066
80C2
8182
8302
8602
8C06
D804
700C
7018
9830
07C0
ENDCHAR
STARTCHAR 2207
ENCODING 8711
SWIDTH 750 0
DWIDTH 18 0
BBX 16 17 1 -1
BITMAP
FFFF
FFFE
6006
6004
3004
3008
1808
1818
0C10
0C30
0620
0660
0740
03C0
0380
0180
0100
ENDCHAR
STARTCHAR 2208
ENCODING 8712
SWIDTH 666 0
DWIDTH 16 0
BBX 14 12 1 2
BITMAP
0FFC
3800
6000
6000
4000
C000
FFFC
4000
4000
6000
3000
0FFC
ENDCHAR
STARTCHAR 2209
ENCODING 8713
SWIDTH 666 0
DWIDTH 16 0
BBX 14 16 1 0
BITMAP
0020
0060
0FFC
3840
60C0
6080
4080
C180
FFFC
4300
4200
6200
3600
0FFC
0C00
0800
ENDCHAR
STARTCHAR 220B
ENCODING 8715
SWIDTH 666 0
DWIDTH 16 0
BBX 13 12 2 2
BITMAP
FF80
00E0
0030
0010
0018
0018
FFF8
0018
0010
0030
0060
FF80
ENDCHAR
STARTCHAR 2212
ENCODING 8722
SWIDTH 666 0
DWIDTH 16 0
BBX 13 1 2 7
BITMAP
FFF8
ENDCHAR
STARTCHAR 2213
ENCODING 8723
SWIDTH 666 0
DWIDTH 16 0
BBX 13 13 2 1
BITMAP
FFF8
0000
0600
0600
0600
0600
0600
FFF8
0600
0600
0600
0600
0600
ENDCHAR
STARTCHAR 2219
ENCODING 8729
SWIDTH 250 0
DWIDTH 6 0
BBX 2 3 2 6
BITMAP
C0
C0
C0
ENDCHAR
STARTCHAR 221A
ENCODING 8730
SWIDTH 625 0
DWIDTH 15 0
BBX 14 22 1 -2
BITMAP
000C
000C
0008
0018
0018
0010
0030
0030
0020
0060
0060
1040
30C0
30C0
3880
6980
4D00
CD00
8700
0600
0600
0200
ENDCHAR
STARTCHAR 221D
ENCODING 8733
SWIDTH 666 0
DWIDTH 16 0
BBX 12 7 2 4
BITMAP
3C70
4680
8300
8300
8380
4680
3870
ENDCHAR
STARTCHAR 221E
ENCODING 8734
SWIDTH 666 0
DWIDTH 16 0
BBX 14 7 1 4
BITMAP
3878
468C
8304
8304
8384
448C
3878
ENDCHAR
STARTCHAR 221F
ENCODING 8735
SWIDTH 666 0
DWIDTH 16 0
BBX 13 14 2 2
BITMAP
C000
C000
C000
C000
C000
C000
C000
C000
C000
C000
C000
C000
C000
FFF8
ENDCHAR
STARTCHAR 2220
ENCODING 8736
SWIDTH 666 0
DWIDTH 16 0
BBX 14 14 1 3
BITMAP
0180
0100
0300
0200
0600
0400
0C00
1800
1800
3000
2000
6000
4000
FFFC
ENDCHAR
STARTCHAR 2225
ENCODING 8741
SWIDTH 666 0
DWIDTH 16 0
BBX 13 21 2 -1
BITMAP
0010
0318
0330
0230
0620
0660
0460
0C40
0CC0
08C0
1880
1980
1180
3100
3300
6300
6200
4600
C600
CC00
8C00
ENDCHAR
STARTCHAR 2226
ENCODING 8742
SWIDTH 666 0
DWIDTH 16 0
BBX 14 21 1 -1
BITMAP
018C
0188
0118
0318
4330
E230
3620
1E60
0C60
0F40
0FC0
08C0
18E0
19B8
319C
3100
2300
6300
6600
4600
0200
ENDCHAR
STARTCHAR 2227
ENCODING 8743
SWIDTH 666 0
DWIDTH 16 0
BBX 13 13 2 1
BITMAP
0600
0600
0F00
0900
1980
1080
30C0
3040
6060
6020
4030
C010
8018
ENDCHAR
STARTCHAR 2228
ENCODING 8744
SWIDTH 666 0
DWIDTH 16 0
BBX 13 13 2 1
BITMAP
8018
C010
4030
6020
2060
2040
30C0
1080
1980
0900
0F00
0600
0600
ENDCHAR
STARTCHAR 2229
ENCODING 8745
SWIDTH 666 0
DWIDTH 16 0
BBX 12 14 2 1
BITMAP
0F80
30C0
6060
4030
C030
C030
C010
C010
C010
C010
C010
C010
C010
C010
ENDCHAR
STARTCHAR 222A
ENCODING 8746
SWIDTH 666 0
DWIDTH 16 0
BBX 12 15 2 0
BITMAP
C010
C010
C010
C010
C010
C010
C010
C010
C030
C030
4030
4020
6060
30C0
0F80
ENDCHAR
STARTCHAR 222B
ENCODING 8747
SWIDTH 583 0
DWIDTH 14 0
BBX 12 22 1 -5
BITMAP
01C0
03E0
0330
0230
0200
0600
0600
0600
0600
0600
0600
0600
0600
0400
0400
0400
0C00
0C00
CC00
CC00
F800
7000
ENDCHAR
STARTCHAR 222C
ENCODING 8748
SWIDTH 916 0
DWIDTH 22 0
BBX 20 22 1 -5
BITMAP
01C1C0
03E3E0
033330
023330
020200
060200
060600
060600
060600
060600
060600
060600
060600
040600
040600
040400
0C0400
0C0400
CCCC00
CCCC00
F87800
707800
ENDCHAR
STARTCHAR 222E
ENCODING 8750
SWIDTH 583 0
DWIDTH 14 0
BBX 12 22 1 -5
BITMAP
01C0
03E0
0330
0230
0200
0600
0600
0600
1F80
2680
2680
2680
2480
1F00
0400
0400
0C00
0C00
CC00
CC00
F800
7000
ENDCHAR
STARTCHAR 2234
ENCODING 8756
SWIDTH 666 0
DWIDTH 16 0
BBX 13 11 2 2
BITMAP
0600
0700
0600
0000
0000
0000
0000
0000
C030
E078
C030
ENDCHAR
STARTCHAR 2235
ENCODING 8757
SWIDTH 666 0
DWIDTH 16 0
BBX 13 11 2 2
BITMAP
C030
E078
C030
0000
0000
0000
0000
0000
0600
0700
0600
ENDCHAR
STARTCHAR 223C
ENCODING 8764
SWIDTH 500 0
DWIDTH 12 0
BBX 8 3 2 14
BITMAP
70
D9
0E
ENDCHAR
STARTCHAR 223D
ENCODING 8765
SWIDTH 666 0
DWIDTH 16 0
BBX 14 7 1 4
BITMAP
3870
41FC
818C
8304
C704
7E0C
3C38
ENDCHAR
STARTCHAR 2243
ENCODING 8771
SWIDTH 666 0
DWIDTH 16 0
BBX 14 7 1 4
BITMAP
3C00
660C
4188
0070
0000
0000
FFFC
ENDCHAR
STARTCHAR 2245
ENCODING 8773
SWIDTH 666 0
DWIDTH 16 0
BBX 14 9 1 3
BITMAP
3C04
6388
C0F0
0000
0000
FFFC
0000
0000
FFFC
ENDCHAR
STARTCHAR 2248
ENCODING 8776
SWIDTH 666 0
DWIDTH 16 0
BBX 14 7 1 4
BITMAP
3C04
4388
C0F0
0000
3C00
638C
40F0
ENDCHAR
STARTCHAR 2252
ENCODING 8786
SWIDTH 666 0
DWIDTH 16 0
BBX 13 15 2 0
BITMAP
6000
7000
6000
0000
FFF8
0000
0000
0000
0000
FFF8
0000
0000
0060
00F0
0060
ENDCHAR
STARTCHAR 2260
ENCODING 8800
SWIDTH 666 0
DWIDTH 16 0
BBX 13 15 2 0
BITMAP
0080
0180
0100
0100
FFF8
0200
0200
0600
0400
FFF8
0C00
0800
0800
1800
1000
ENDCHAR
STARTCHAR 2261
ENCODING 8801
SWIDTH 666 0
DWIDTH 16 0
BBX 13 9 2 3
BITMAP
FFF8
0000
0000
0000
FFF8
0000
0000
0000
FFF8
ENDCHAR
STARTCHAR 2262
ENCODING 8802
SWIDTH 666 0
DWIDTH 16 0
BBX 13 15 2 0
BITMAP
0080
0180
0180
FFF8
0300
0300
0200
FFF8
0600
0400
0C00
FFF8
0800
1800
1000
ENDCHAR
STARTCHAR 2266
ENCODING 8806
SWIDTH 666 0
DWIDTH 16 0
BBX 14 15 1 1
BITMAP
0004
003C
01E0
0F00
7800
E000
1E00
03C0
0078
000C
0000
FFFC
0000
0000
FFFC
ENDCHAR
STARTCHAR 2267
ENCODING 8807
SWIDTH 666 0
DWIDTH 16 0
BBX 14 14 1 2
BITMAP
F000
1E00
03C0
0038
001C
00F0
0F80
7800
4000
0000
FFFC
0000
0000
FFFC
ENDCHAR
STARTCHAR 226A
ENCODING 8810
SWIDTH 666 0
DWIDTH 16 0
BBX 14 13 1 1
BITMAP
018C
0318
0630
1CE0
3180
6300
C600
6300
39C0
0C60
0630
0398
0084
ENDCHAR
STARTCHAR 226B
ENCODING 8811
SWIDTH 666 0
DWIDTH 16 0
BBX 14 13 1 1
BITMAP
C600
6300
39C0
0C60
0630
039C
018C
0318
0630
1CE0
3180
6300
4600
ENDCHAR
STARTCHAR 2276
ENCODING 8822
SWIDTH 666 0
DWIDTH 16 0
BBX 14 16 1 0
BITMAP
001C
00F0
0F80
7800
7000
1F00
01E0
C03C
7800
0F80
00F0
000C
00F0
0F80
F800
C000
ENDCHAR
STARTCHAR 2277
ENCODING 8823
SWIDTH 666 0
DWIDTH 16 0
BBX 14 16 1 0
BITMAP
E000
3E00
03C0
0078
003C
01E0
1F00
F00C
007C
07C0
3C00
6000
3C00
03C0
007C
000C
ENDCHAR
STARTCHAR 2282
ENCODING 8834
SWIDTH 666 0
DWIDTH 16 0
BBX 14 12 1 2
BITMAP
0FFC
3800
6000
4000
4000
C000
C000
4000
4000
6000
3000
0FFC
ENDCHAR
STARTCHAR 2283
ENCODING 8835
SWIDTH 666 0
DWIDTH 16 0
BBX 13 12 2 2
BITMAP
FF80
0060
0030
0010
0018
0018
0018
0018
0010
0030
0060
FF80
ENDCHAR
STARTCHAR 2284
ENCODING 8836
SWIDTH 666 0
DWIDTH 16 0
BBX 14 16 1 0
BITMAP
0010
0030
0FFC
3860
6040
40C0
40C0
C080
C180
4100
4100
6300
3A00
0FFC
0400
0400
ENDCHAR
STARTCHAR 2285
ENCODING 8837
SWIDTH 666 0
DWIDTH 16 0
BBX 13 17 2 -1
BITMAP
0180
0100
FFC0
03E0
0230
0610
0418
0C18
0C18
0818
1810
1030
1060
FF80
2000
6000
2000
ENDCHAR
STARTCHAR 2286
ENCODING 8838
SWIDTH 666 0
DWIDTH 16 0
BBX 14 15 1 1
BITMAP
0FFC
3000
6000
4000
4000
C000
4000
4000
6000
3000
1FFC
0000
0000
0000
7FFC
ENDCHAR
STARTCHAR 2287
ENCODING 8839
SWIDTH 666 0
DWIDTH 16 0
BBX 13 15 2 1
BITMAP
FFC0
0060
0030
0018
0018
0018
0018
0018
0010
0060
FFC0
0000
0000
0000
FFF8
ENDCHAR
STARTCHAR 228A
ENCODING 8842
SWIDTH 666 0
DWIDTH 16 0
BBX 14 17 1 -1
BITMAP
0FFC
3000
6000
4000
4000
C000
4000
4000
6000
3000
1FFC
0000
0080
0180
7FFC
0200
0200
ENDCHAR
STARTCHAR 228B
ENCODING 8843
SWIDTH 666 0
DWIDTH 16 0
BBX 13 16 2 -1
BITMAP
FFC0
0060
0030
0018
0018
0018
0018
0018
0010
0060
FFC0
0000
0100
0300
FFF8
0400
ENDCHAR
STARTCHAR 2295
ENCODING 8853
SWIDTH 833 0
DWIDTH 20 0
BBX 18 17 1 0
BITMAP
03F000
0C0C00
18C300
30C180
60C080
40C0C0
C0C040
DFFE40
C0C040
C0C040
C0C040
40C0C0
60C080
20C100
100300
0C0C00
03F000
ENDCHAR
STARTCHAR 2296
ENCODING 8854
SWIDTH 833 0
DWIDTH 20 0
BBX 18 17 1 0
BITMAP
03F000
0C0C00
180300
300180
600080
4000C0
C00040
DFFE40
C00040
C00040
C00040
4000C0
600080
200100
100300
0C0C00
03F000
ENDCHAR
STARTCHAR 2297
ENCODING 8855
SWIDTH 833 0
DWIDTH 20 0
BBX 18 17 1 0
BITMAP
03F000
0C0C00
180300
300580
6C0C80
4618C0
C33040
C1E040
C0C040
C1E040
C33040
4618C0
6C0C80
200500
100300
0C0C00
03F000
ENDCHAR
STARTCHAR 22A5
ENCODING 8869
SWIDTH 666 0
DWIDTH 16 0
BBX 14 14 1 2
BITMAP
0300
0300
0300
0300
0300
0300
0300
0300
0300
0300
0300
0300
0300
FFFC
ENDCHAR
STARTCHAR 22BF
ENCODING 8895
SWIDTH 666 0
DWIDTH 16 0
BBX 14 14 1 3
BITMAP
0004
000C
001C
0034
0064
00C4
0184
0304
0604
0C04
1804
3004
6004
FFFC
ENDCHAR
STARTCHAR 22DA
ENCODING 8922
SWIDTH 666 0
DWIDTH 16 0
BBX 14 17 1 0
BITMAP
0004
00FC
1F80
E000
7E00
03F0
001C
0000
FFFC
0000
6000
7F00
03F0
000C
01F8
7F00
E000
ENDCHAR
STARTCHAR 22DB
ENCODING 8923
SWIDTH 666 0
DWIDTH 16 0
BBX 14 16 1 1
BITMAP
FC00
07E0
001C
01F8
3F00
E000
0000
FFFC
0000
001C
01F8
3F00
E000
3F00
03F8
001C
ENDCHAR
STARTCHAR 2305
ENCODING 8965
SWIDTH 666 0
DWIDTH 16 0
BBX 14 10 1 2
BITMAP
FFFC
0300
0780
0680
04C0
0C40
0860
1860
1020
3030
ENDCHAR
STARTCHAR 2306
ENCODING 8966
SWIDTH 666 0
DWIDTH 16 0
BBX 14 15 1 0
BITMAP
FFFC
0000
0000
0000
FFFC
0300
0780
0680
04C0
0CC0
0840
1860
1820
1030
1020
ENDCHAR
STARTCHAR 2312
ENCODING 8978
SWIDTH 1000 0
DWIDTH 24 0
BBX 22 5 1 15
BITMAP
03FE00
1FFFE0
7C00F8
E0001C
800004
ENDCHAR
STARTCHAR 2318
ENCODING 8984
SWIDTH 1000 0
DWIDTH 24 0
BBX 22 20 1 -1
BITMAP
3C00F0
460188
C2010C
C2010C
420108
3FFFF0
020100
020100
020100
020100
020100
020100
020100
020100
3FFFF0
420108
C2010C
C2010C
460188
3C00F8
ENDCHAR
STARTCHAR 23BE
ENCODING 9150
SWIDTH 1000 0
DWIDTH 24 0
BBX 12 24 12 -3
BITMAP
FFF0
8000
8000
8000
8000
8000
8000
8000
8000
8000
8000
8000
8000
8000
8000
8000
8000
8000
8000
8000
8000
8000
8000
8000
ENDCHAR
STARTCHAR 23BF
ENCODING 9151
SWIDTH 1000 0
DWIDTH 24 0
BBX 12 24 12 -3
BITMAP
8000
8000
8000
8000
8000
8000
8000
8000
8000
8000
8000
8000
8000
8000
8000
8000
8000
8000
8000
8000
8000
8000
8000
FFF0
ENDCHAR
STARTCHAR 23C0
ENCODING 9152
SWIDTH 1000 0
DWIDTH 24 0
BBX 18 23 3 -3
BITMAP
008000
008000
008000
07F800
0C8400
308200
208100
408080
808080
808040
808040
808040
808040
808040
808040
408080
408080
208100
108200
0C8C00
03F000
008000
008000
ENDCHAR
STARTCHAR 23C1
ENCODING 9153
SWIDTH 1000 0
DWIDTH 24 0
BBX 24 24 0 -3
BITMAP
FFFFFF
001000
001000
007E00
019180
021040
041020
081010
081010
101008
101008
101008
101008
101008
101008
081010
081010
041020
021040
019180
007F00
001000
001000
001000
ENDCHAR
STARTCHAR 23C2
ENCODING 9154
SWIDTH 1000 0
DWIDTH 24 0
BBX 24 24 0 -3
BITMAP
001000
001000
001000
007E00
019180
021040
041020
081010
081010
101008
101008
101008
101008
101008
101008
081010
081010
041020
021040
019180
007E00
001000
001000
FFFFFF
ENDCHAR
STARTCHAR 23C3
ENCODING 9155
SWIDTH 1000 0
DWIDTH 24 0
BBX 20 24 2 -3
BITMAP
002000
002000
002000
006000
006000
00B000
00B000
012800
032C00
022400
042200
042200
082100
182180
102080
202040
202040
402020
402020
FFFFF0
002000
002000
002000
002000
ENDCHAR
STARTCHAR 23C4
ENCODING 9156
SWIDTH 1000 0
DWIDTH 24 0
BBX 24 23 0 -3
BITMAP
FFFFFF
001000
001000
001800
001800
003400
003400
005200
00D300
009100
011080
011080
021040
021040
041020
081010
081010
101008
101008
3FFFFC
001000
001000
001000
ENDCHAR
STARTCHAR 23C5
ENCODING 9157
SWIDTH 1000 0
DWIDTH 24 0
BBX 24 24 0 -3
BITMAP
001000
001000
001000
001800
001800
003400
003400
005200
00D300
009100
011080
011080
021040
061060
041020
081010
081010
101008
101008
3FFFFC
001000
001000
001000
FFFFFF
ENDCHAR
STARTCHAR 23C6
ENCODING 9158
SWIDTH 1000 0
DWIDTH 24 0
BBX 20 23 2 -3
BITMAP
004000
004000
004000
004000
004000
004000
004000
004000
004000
3E4000
C3C000
00C000
003000
004C30
0043C0
004000
004000
004000
004000
004000
004000
004000
004000
ENDCHAR
STARTCHAR 23C7
ENCODING 9159
SWIDTH 1000 0
DWIDTH 24 0
BBX 24 24 0 -3
BITMAP
FFFFFF
001000
001000
001000
001000
001000
001000
001000
001000
0F1000
30D000
003000
000C00
00170C
0011F0
001000
001000
001000
001000
001000
001000
001000
001000
001000
ENDCHAR
STARTCHAR 23C8
ENCODING 9160
SWIDTH 1000 0
DWIDTH 24 0
BBX 24 24 0 -3
BITMAP
001000
001000
001000
001000
001000
001000
001000
001000
001000
0F9000
30F000
003000
000C00
00170C
0011F0
001000
001000
001000
001000
001000
001000
001000
001000
FFFFFF
ENDCHAR
STARTCHAR 23C9
ENCODING 9161
SWIDTH 1000 0
DWIDTH 24 0
BBX 24 24 0 -3
BITMAP
FFFFFF
001000
001000
001000
001000
001000
001000
001000
001000
001000
001000
001000
001000
001000
001000
001000
001000
001000
001000
001000
001000
001000
001000
001000
ENDCHAR
STARTCHAR 23CA
ENCODING 9162
SWIDTH 1000 0
DWIDTH 24 0
BBX 24 24 0 -3
BITMAP
001000
001000
001000
001000
001000
001000
001000
001000
001000
001000
001000
001000
001000
001000
001000
001000
001000
001000
001000
001000
001000
001000
001000
FFFFFF
ENDCHAR
STARTCHAR 23CB
ENCODING 9163
SWIDTH 1000 0
DWIDTH 24 0
BBX 12 24 0 -3
BITMAP
FFF0
0010
0010
0010
0010
0010
0010
0010
0010
0010
0010
0010
0010
0010
0010
0010
0010
0010
0010
0010
0010
0010
0010
0010
ENDCHAR
STARTCHAR 23CC
ENCODING 9164
SWIDTH 1000 0
DWIDTH 24 0
BBX 12 24 0 -3
BITMAP
0010
0010
0010
0010
0010
0010
0010
0010
0010
0010
0010
0010
0010
0010
0010
0010
0010
0010
0010
0010
0010
0010
0010
FFF0
ENDCHAR
STARTCHAR 23CE
ENCODING 9166
SWIDTH 1000 0
DWIDTH 24 0
BBX 21 21 1 -2
BITMAP
0007F8
000618
000618
000618
000618
000618
008618
018618
038618
068618
08FC18
300018
600010
C00010
600030
100060
08FFC0
068000
038000
018000
008000
ENDCHAR
STARTCHAR 2423
ENCODING 9251
SWIDTH 1000 0
DWIDTH 24 0
BBX 18 5 3 0
BITMAP
800040
800040
800040
800040
FFFFC0
ENDCHAR
STARTCHAR 2460
ENCODING 9312
SWIDTH 1000 0
DWIDTH 24 0
BBX 22 22 1 -2
BITMAP
01FC00
070380
1C00C0
303020
207010
60F008
C03008
803004
803004
803004
803004
803004
803004
803004
803004
403008
403018
203010
103020
0C00C0
070380
00FC00
ENDCHAR
STARTCHAR 2461
ENCODING 9313
SWIDTH 1000 0
DWIDTH 24 0
BBX 22 23 1 -2
BITMAP
00FC00
030380
0C00C0
100020
207C10
61FE18
41C708
C3030C
830304
800304
800604
800C04
803804
806004
80C004
C1800C
418008
63FF18
23FF10
100020
0C00C0
070380
00FC00
ENDCHAR
STARTCHAR 2462
ENCODING 9314
SWIDTH 1000 0
DWIDTH 24 0
BBX 22 22 1 -2
BITMAP
01FC00
070380
1C00C0
307820
21FE10
638708
C30308
800304
800304
801E04
807C04
800E04
800304
800184
870184
430308
438718
21FE10
107C20
0C00C0
070380
00FC00
ENDCHAR
STARTCHAR 2463
ENCODING 9315
SWIDTH 1000 0
DWIDTH 24 0
BBX 22 23 1 -2
BITMAP
00FC00
030380
0C00C0
100020
201C10
601C18
403C08
C06C0C
80EC04
80CC04
818C04
838C04
830C04
860C04
87FF84
C7FF8C
400C08
600C18
200C10
100C20
0C00C0
070380
00FC00
ENDCHAR
STARTCHAR 2464
ENCODING 9316
SWIDTH 1000 0
DWIDTH 24 0
BBX 22 23 1 -2
BITMAP
00FC00
030380
0C00C0
100020
21FF10
61FF18
418008
C1800C
818004
813C04
81FE04
818704
810304
800304
800304
C0030C
438708
61FE18
20FC10
100020
0C00C0
070380
00FC00
ENDCHAR
STARTCHAR 2465
ENCODING 9317
SWIDTH 1000 0
DWIDTH 24 0
BBX 22 22 1 -2
BITMAP
01FC00
070380
1C00C0
307C20
20FE10
61C708
C18308
830004
830004
837C04
83FE04
838704
830304
830304
830304
430308
418718
20FE10
107820
0C00C0
070380
00FC00
ENDCHAR
STARTCHAR 2466
ENCODING 9318
SWIDTH 1000 0
DWIDTH 24 0
BBX 22 22 1 -2
BITMAP
01FC00
070380
1C00C0
300020
23FF10
63FF08
C00308
800604
800604
800C04
800C04
800C04
801804
801804
803004
403008
403018
206010
106020
0C00C0
070380
00FC00
ENDCHAR
STARTCHAR 2467
ENCODING 9319
SWIDTH 1000 0
DWIDTH 24 0
BBX 22 22 1 -2
BITMAP
01FC00
070380
1C00C0
30F820
21FE10
638708
C30308
830304
830304
818604
80FC04
81FE04
838704
870304
860184
430308
438718
21FE10
10FC20
0C00C0
070380
00FC00
ENDCHAR
STARTCHAR 2468
ENCODING 9320
SWIDTH 1000 0
DWIDTH 24 0
BBX 22 22 1 -2
BITMAP
01FC00
070380
1C00C0
307820
20FE10
61C608
C38308
830304
830304
830304
818784
81FD84
807B04
800304
830304
418308
418618
20FE10
107820
0C00C0
070380
00FC00
ENDCHAR
STARTCHAR 2469
ENCODING 9321
SWIDTH 1000 0
DWIDTH 24 0
BBX 22 22 1 -2
BITMAP
01FC00
070380
1C00C0
320F20
261F90
6E3988
C630C8
8630C4
8630C4
8660C4
8660C4
8660C4
8660C4
8630C4
8630C4
4630C8
463998
261F90
100F20
0C00C0
070380
00FC00
ENDCHAR
STARTCHAR 246A
ENCODING 9322
SWIDTH 1000 0
DWIDTH 24 0
BBX 22 22 1 -2
BITMAP
01FC00
070380
1C00C0
310120
270310
6F0708
CB0308
830304
830304
830304
830304
830304
830304
830304
830304
430308
430318
230310
100020
0C00C0
070380
00FC00
ENDCHAR
STARTCHAR 246B
ENCODING 9323
SWIDTH 1000 0
DWIDTH 24 0
BBX 22 23 1 -2
BITMAP
00FC00
070380
0C00C0
100020
260F10
6E1F98
4E3188
C630CC
8620C4
860084
860184
860304
860604
860C04
861804
C6100C
463008
663FD8
267FD0
100020
0C00C0
070380
00FC00
ENDCHAR
STARTCHAR 246C
ENCODING 9324
SWIDTH 1000 0
DWIDTH 24 0
BBX 22 22 1 -2
BITMAP
01FC00
070380
1C00C0
320E20
263F90
6E3188
C63188
860084
860184
860384
860F04
860184
8600C4
8600C4
8660C4
4660C8
4631D8
263F90
101F20
0C00C0
070380
00FC00
ENDCHAR
STARTCHAR 246D
ENCODING 9325
SWIDTH 1000 0
DWIDTH 24 0
BBX 22 23 1 -3
BITMAP
01FC00
070380
1C00C0
3203A0
260390
6E0798
460788
C60D8C
861984
861984
863184
863184
866184
867FE4
867FE4
C6018C
460188
660198
260190
100020
0C00C0
030380
00FC00
ENDCHAR
STARTCHAR 246E
ENCODING 9326
SWIDTH 1000 0
DWIDTH 24 0
BBX 22 23 1 -2
BITMAP
00FC00
030380
0C00C0
100020
223F90
6E3F98
4E3008
C6300C
863004
863F04
863F84
8631C4
8600C4
8600C4
8600C4
C660CC
463188
663F98
261F10
100020
0C00C0
070380
00FC00
ENDCHAR
STARTCHAR 246F
ENCODING 9327
SWIDTH 1000 0
DWIDTH 24 0
BBX 22 22 1 -2
BITMAP
01FC00
070380
1C00C0
320F20
261F90
6E3988
C630C8
863004
862004
866F04
867F84
867184
8670C4
8660C4
8620C4
4630C8
463198
261F90
100F20
0C00C0
070380
00FC00
ENDCHAR
STARTCHAR 2470
ENCODING 9328
SWIDTH 1000 0
DWIDTH 24 0
BBX 22 23 1 -2
BITMAP
00FC00
030380
0C00C0
100020
227FD0
6E7FD8
4E0188
C6018C
860104
860304
860304
860604
860604
860604
860C04
C60C0C
460C08
660C18
261810
100020
0C00C0
070380
00FC00
ENDCHAR
STARTCHAR 2471
ENCODING 9329
SWIDTH 1000 0
DWIDTH 24 0
BBX 22 22 1 -2
BITMAP
01FC00
070380
1C00C0
320E20
263F90
6E3188
C660C8
8660C4
863184
863F84
861F04
863184
8660C4
8660C4
8660C4
4660C8
4671D8
263F90
101F20
0C00C0
070380
00FC00
ENDCHAR
STARTCHAR 2472
ENCODING 9330
SWIDTH 1000 0
DWIDTH 24 0
BBX 22 22 1 -2
BITMAP
01FC00
070380
1C00C0
320F20
261F90
6E3188
C630C8
8660C4
8660C4
8630C4
8631C4
863FC4
861EC4
8600C4
8600C4
463188
463198
261F10
100E20
0C00C0
070380
00FC00
ENDCHAR
STARTCHAR 2473
ENCODING 9331
SWIDTH 1000 0
DWIDTH 24 0
BBX 22 23 1 -2
BITMAP
00FC00
030380
0C00C0
100020
23C390
67C7D8
4C6CC8
CC6C4C
8C6C64
806C64
80C864
808864
818864
830C64
860C64
C60C4C
440CC8
6FE7D8
2FE390
100020
0C00C0
070380
00FC00
ENDCHAR
STARTCHAR 24D0
ENCODING 9424
SWIDTH 1000 0
DWIDTH 24 0
BBX 22 22 1 -2
BITMAP
01FC00
070380
1C00C0
300020
200010
600008
C0F808
81FC04
818604
800604
807E04
81C604
830604
830604
818E04
40F308
400018
200010
100020
0C00C0
070380
00FC00
ENDCHAR
STARTCHAR 24D1
ENCODING 9425
SWIDTH 1000 0
DWIDTH 24 0
BBX 22 22 1 -2
BITMAP
01FC00
070380
1C00C0
318020
218010
618008
C18008
81BC04
81C604
818304
818104
818184
818184
818104
818304
41C608
41BC18
200010
100020
0C00C0
070380
00FC00
ENDCHAR
STARTCHAR 24D2
ENCODING 9426
SWIDTH 1000 0
DWIDTH 24 0
BBX 22 22 1 -2
BITMAP
01FC00
070380
1C00C0
300020
200010
600008
C07808
80FE04
818604
830004
830004
830004
830304
818604
80FE04
407808
400018
200010
100020
0C00C0
070380
00FC00
ENDCHAR
STARTCHAR 24D3
ENCODING 9427
SWIDTH 1000 0
DWIDTH 24 0
BBX 22 22 1 -2
BITMAP
01FC00
070380
1C00C0
300620
200610
600608
C00608
80E604
819E04
830604
820604
860604
860604
820604
830E04
418E08
40F618
200010
100020
0C00C0
070380
00FC00
ENDCHAR
STARTCHAR 24D4
ENCODING 9428
SWIDTH 1000 0
DWIDTH 24 0
BBX 22 23 1 -3
BITMAP
01FC00
070380
0C00C0
100020
200010
600018
407808
C0840C
818604
830204
83FF04
83FF04
830004
810304
818204
C0860C
407C08
600018
200010
100020
0C00C0
030380
00FC00
ENDCHAR
STARTCHAR 24D5
ENCODING 9429
SWIDTH 1000 0
DWIDTH 24 0
BBX 22 24 1 -3
BITMAP
00FC00
030300
0C00C0
180060
300030
203C10
403C08
C06008
806004
806004
81FC04
81FC04
806004
806004
806004
806004
C06008
406008
606010
306030
180060
0C00C0
030300
00FC00
ENDCHAR
STARTCHAR 24D6
ENCODING 9430
SWIDTH 1000 0
DWIDTH 24 0
BBX 22 22 1 -2
BITMAP
01FC00
070380
1C00C0
300020
200010
60FA08
C18E08
818604
810204
810204
818604
818E04
807A04
800204
818604
418608
407818
200010
100020
0C00C0
070380
00FC00
ENDCHAR
STARTCHAR 24D7
ENCODING 9431
SWIDTH 1000 0
DWIDTH 24 0
BBX 22 22 1 -2
BITMAP
01FC00
070380
1C00C0
300020
218010
618008
C18008
818004
81BC04
81FE04
81C304
818304
818304
818304
818304
418308
418318
218310
100020
0C00C0
070380
00FC00
ENDCHAR
STARTCHAR 24D8
ENCODING 9432
SWIDTH 1000 0
DWIDTH 24 0
BBX 22 22 1 -2
BITMAP
01FC00
070380
1C00C0
300020
203010
603008
C00008
800004
803004
803004
803004
803004
803004
803004
803004
403008
403018
203010
100020
0C00C0
070380
00FC00
ENDCHAR
STARTCHAR 24D9
ENCODING 9433
SWIDTH 1000 0
DWIDTH 24 0
BBX 22 22 1 -2
BITMAP
01FC00
070380
1C18C0
301820
201810
600008
C00008
801804
801804
801804
801804
801804
801804
801804
801804
401808
401818
20F810
10F020
0C00C0
070380
00FC00
ENDCHAR
STARTCHAR 24DA
ENCODING 9434
SWIDTH 1000 0
DWIDTH 24 0
BBX 22 23 1 -2
BITMAP
00FC00
030380
0C00C0
100020
200010
618018
418008
C1800C
818004
818604
818C04
819804
81B004
81F804
81DC04
C18C0C
418608
618318
200010
100020
0C00C0
070380
00FC00
ENDCHAR
STARTCHAR 24DB
ENCODING 9435
SWIDTH 1000 0
DWIDTH 24 0
BBX 22 22 1 -2
BITMAP
01FC00
070380
1C00C0
300020
203010
603008
C03008
803004
803004
803004
803004
803004
803004
803004
803004
403008
403018
203010
100020
0C00C0
070380
00FC00
ENDCHAR
STARTCHAR 24DC
ENCODING 9436
SWIDTH 1000 0
DWIDTH 24 0
BBX 22 22 1 -2
BITMAP
01FC00
070380
1C00C0
300020
200010
600008
C4E708
87FF84
863984
863184
863184
863184
863184
863184
863184
463188
400018
200010
100020
0C00C0
070380
00FC00
ENDCHAR
STARTCHAR 24DD
ENCODING 9437
SWIDTH 1000 0
DWIDTH 24 0
BBX 22 22 1 -2
BITMAP
01FC00
070380
1C00C0
300020
200010
600008
C13C08
817E04
81C604
818204
810204
810204
810204
810204
810204
410208
400018
200010
100020
0C00C0
070380
00FC00
ENDCHAR
STARTCHAR 24DE
ENCODING 9438
SWIDTH 1000 0
DWIDTH 24 0
BBX 22 22 1 -2
BITMAP
01FC00
070380
1C00C0
300020
200010
600008
C07808
80FC04
818604
830304
830304
830304
830304
818604
80FE04
407808
400018
200010
100020
0C00C0
070380
00FC00
ENDCHAR
STARTCHAR 24DF
ENCODING 9439
SWIDTH 1000 0
DWIDTH 24 0
BBX 22 22 1 -2
BITMAP
01FC00
070380
1C00C0
300020
200010
613C08
C1C608
818304
818184
818184
818184
818184
818304
81C704
81BC04
418008
418018
200010
100020
0C00C0
070380
00FC00
ENDCHAR
STARTCHAR 24E0
ENCODING 9440
SWIDTH 1000 0
DWIDTH 24 0
BBX 22 22 1 -2
BITMAP
01FC00
070380
1C00C0
300020
200010
60F608
C38E08
830604
860604
860604
860604
860604
830604
830E04
80F604
400608
400618
200010
100020
0C00C0
070380
00FC00
ENDCHAR
STARTCHAR 24E1
ENCODING 9441
SWIDTH 1000 0
DWIDTH 24 0
BBX 22 22 1 -2
BITMAP
01FC00
070380
1C00C0
300020
200010
600008
C00008
806E04
807C04
807004
806004
806004
806004
806004
806004
406008
400018
200010
100020
0C00C0
070380
00FC00
ENDCHAR
STARTCHAR 24E2
ENCODING 9442
SWIDTH 1000 0
DWIDTH 24 0
BBX 22 22 1 -2
BITMAP
01FC00
070380
1C00C0
300020
200010
600008
C07808
808C04
818604
81C004
80F804
803C04
800604
818604
818604
407808
400018
200010
100020
0C00C0
070380
00FC00
ENDCHAR
STARTCHAR 24E3
ENCODING 9443
SWIDTH 1000 0
DWIDTH 24 0
BBX 22 23 1 -2
BITMAP
00FC00
030380
0C00C0
100020
200010
606018
406008
C0600C
81FC04
81FC04
806004
806004
806004
806004
806004
C0600C
407C08
603C18
200010
100020
0C00C0
070380
00FC00
ENDCHAR
STARTCHAR 24E4
ENCODING 9444
SWIDTH 1000 0
DWIDTH 24 0
BBX 22 22 1 -2
BITMAP
01FC00
070380
1C00C0
300020
200010
600008
C10208
810204
810204
810204
810204
810204
810604
818E04
81FA04
40F208
400018
200010
100020
0C00C0
070380
00FC00
ENDCHAR
STARTCHAR 24E5
ENCODING 9445
SWIDTH 1000 0
DWIDTH 24 0
BBX 22 22 1 -2
BITMAP
01FC00
070380
1C00C0
300020
200010
600008
C00008
830304
830304
818604
818604
80CC04
80CC04
807804
807804
403008
400018
200010
100020
0C00C0
070380
00FC00
ENDCHAR
STARTCHAR 24E6
ENCODING 9446
SWIDTH 1000 0
DWIDTH 24 0
BBX 22 22 1 -2
BITMAP
01FC00
070380
1C00C0
300020
200010
600008
C00008
8C30C4
8C30C4
847884
867984
864984
82CD04
83CF04
838704
418608
400018
200010
100020
0C00C0
070380
00FC00
ENDCHAR
STARTCHAR 24E7
ENCODING 9447
SWIDTH 1000 0
DWIDTH 24 0
BBX 22 24 1 -3
BITMAP
00FC00
030300
0400C0
180060
300030
200010
400008
430708
818604
80CC04
807804
807004
807804
80FC04
81CC04
818604
C30308
400008
600010
300030
180060
0C00C0
030300
00FC00
ENDCHAR
STARTCHAR 24E8
ENCODING 9448
SWIDTH 1000 0
DWIDTH 24 0
BBX 22 22 1 -2
BITMAP
01FC00
070380
1C00C0
300020
200010
630188
C18308
818304
80C604
80C604
806C04
806C04
803804
803804
803004
403008
41E018
21C010
100020
0C00C0
070380
00FC00
ENDCHAR
STARTCHAR 24E9
ENCODING 9449
SWIDTH 1000 0
DWIDTH 24 0
BBX 22 24 1 -3
BITMAP
00FC00
030300
0400C0
180060
300030
200010
400008
41FE08
81FE04
800E04
801804
803004
806004
80C004
818004
83FE04
C3FE08
400008
600010
300030
180060
0C00C0
030300
00FC00
ENDCHAR
STARTCHAR 24EB
ENCODING 9451
SWIDTH 1000 0
DWIDTH 24 0
BBX 22 22 1 -2
BITMAP
01FC00
07FF80
1FFFC0
3CFE60
38FC70
70F878
F4FA78
FCFE7C
FCFE7C
FCFE7C
FCFE7C
FCFE7C
FCFE7C
FCFE7C
FCFE7C
7CFE78
7CFE78
3CFE70
1FFFE0
0FFFC0
07FF80
00FC00
ENDCHAR
STARTCHAR 24EC
ENCODING 9452
SWIDTH 1000 0
DWIDTH 24 0
BBX 22 22 1 -2
BITMAP
00FC00
07FF80
0FFFC0
1FFFE0
39F0F0
61E678
61CF38
F9CF3C
F9CF3C
F9FE3C
F9FC7C
F9F8FC
F9F1FC
F9E3FC
F9E7FC
79C7F8
79CFF8
39C030
1FFFE0
0FFFC0
07FF80
00FC00
ENDCHAR
STARTCHAR 24ED
ENCODING 9453
SWIDTH 1000 0
DWIDTH 24 0
BBX 22 22 1 -2
BITMAP
01FC00
07FF80
1FFFC0
3DF0E0
31E070
61CE78
E9CF38
F9FF3C
F9FF7C
F9FC7C
F9F0FC
F9FE7C
F9FF3C
F9FF3C
F9DF3C
79CF38
79CE38
39E070
1FF0E0
0FFFC0
07FF80
00FC00
ENDCHAR
STARTCHAR 24EE
ENCODING 9454
SWIDTH 1000 0
DWIDTH 24 0
BBX 22 23 1 -3
BITMAP
01FC00
07FF80
1FFFC0
3DFE60
39FC70
61FC78
69F878
F9F27C
F9F27C
F9E67C
F9CE7C
F9CE7C
F99E7C
F9801C
F9801C
F9FE7C
79FE78
79FE78
39FE70
1FFFE0
0FFFC0
03FF80
00FC00
ENDCHAR
STARTCHAR 24EF
ENCODING 9455
SWIDTH 1000 0
DWIDTH 24 0
BBX 22 23 1 -2
BITMAP
00FC00
03FF80
0FFFC0
1FFFE0
39C070
71C078
61CFF8
E9CFFC
F9CFFC
F9C8FC
F9C07C
F9CE3C
F9FF3C
F9FF3C
F9FF3C
F9DF3C
79CF38
79EE78
39F0F0
1FFFE0
0FFFC0
07FF80
00FC00
ENDCHAR
STARTCHAR 24F0
ENCODING 9456
SWIDTH 1000 0
DWIDTH 24 0
BBX 22 22 1 -2
BITMAP
01FC00
07FF80
1FFFC0
3DF0E0
31E070
61E638
E9CF38
F9CFFC
F9CFFC
F9D8FC
F9C07C
F9C63C
F9CF3C
F9CF3C
F9CF3C
79CF38
79C638
39E070
1FF0E0
0FFFC0
07FF80
00FC00
ENDCHAR
STARTCHAR 24F1
ENCODING 9457
SWIDTH 1000 0
DWIDTH 24 0
BBX 22 23 1 -2
BITMAP
00FC00
03FF80
0FFFC0
1FFFE0
39C030
71C038
71FF78
F9FE7C
F9FE7C
F9FCFC
F9FCFC
F9FCFC
F9F9FC
F9F9FC
F9F9FC
F9F3FC
79F3F8
79F3F8
39F3F0
1FFFE0
0FFFC0
07FF80
00FC00
ENDCHAR
STARTCHAR 24F2
ENCODING 9458
SWIDTH 1000 0
DWIDTH 24 0
BBX 22 22 1 -2
BITMAP
01FC00
07FF80
1FFFC0
3DF0E0
31EE70
61CF38
E9DF38
F9CF3C
F9CE7C
F9E07C
F9E0FC
F9CE7C
F99F3C
F99F3C
F99F3C
799F38
79CE38
39C070
1FE0E0
0FFFC0
07FF80
00FC00
ENDCHAR
STARTCHAR 24F3
ENCODING 9459
SWIDTH 1000 0
DWIDTH 24 0
BBX 22 22 1 -2
BITMAP
01FC00
07FF80
1FFFC0
3DF0E0
31E070
61C678
E9CF38
F9CF3C
F9CF3C
F9CF3C
F9CE3C
F9E03C
F9F13C
F9FF3C
F9FF3C
79CF38
79CE78
39E0F0
1FF1E0
0FFFC0
07FF80
00FC00
ENDCHAR
STARTCHAR 24F4
ENCODING 9460
SWIDTH 1000 0
DWIDTH 24 0
BBX 22 23 1 -2
BITMAP
00FC00
03FF80
0FFFC0
1FFFE0
387C70
733938
73BBB8
F7939C
F7B39C
FF339C
FE339C
FE739C
FCF39C
F9F39C
F9F39C
F3F39C
73FBB8
701938
301C70
1FFFE0
0FFFC0
07FF80
00FC00
ENDCHAR
STARTCHAR 24F5
ENCODING 9461
SWIDTH 1000 0
DWIDTH 24 0
BBX 22 22 1 -2
BITMAP
00FC00
070380
0CFCC0
130320
241090
487048
50F028
A0B014
A03014
A03014
A03014
A03014
A03014
A03014
A03014
503028
483048
243090
130330
08FCC0
070380
00FE00
ENDCHAR
STARTCHAR 24F6
ENCODING 9462
SWIDTH 1000 0
DWIDTH 24 0
BBX 22 23 1 -2
BITMAP
00FC00
070300
0CFCC0
130320
240090
687850
50FE28
B18624
A18214
A00214
A00614
A00C14
A03814
A06014
A0C014
918024
51FF28
49FF48
240090
130330
08FCC0
070380
00FE00
ENDCHAR
STARTCHAR 24F7
ENCODING 9463
SWIDTH 1000 0
DWIDTH 24 0
BBX 22 22 1 -2
BITMAP
00FC00
070380
0CFCC0
130320
247890
48FE48
518628
A10214
A00614
A00614
A07814
A01E14
A00214
A00314
A30314
518728
49FE48
247C90
130330
08FCC0
070380
00FE00
ENDCHAR
STARTCHAR 24F8
ENCODING 9464
SWIDTH 1000 0
DWIDTH 24 0
BBX 22 22 1 -2
BITMAP
00FE00
070380
0CFCC0
130330
241890
481848
503828
A06814
A0C814
A0C814
A18814
A30814
A60814
A7FF14
A00814
500828
480858
240890
130320
0CFCC0
070380
00FE00
ENDCHAR
STARTCHAR 24F9
ENCODING 9465
SWIDTH 1000 0
DWIDTH 24 0
BBX 22 22 1 -2
BITMAP
00FC00
070380
0CFCC0
130320
240090
49FE48
51FE28
A18014
A18014
A1BC14
A1FE14
A18614
A00314
A00314
A00314
918628
48FE48
247890
130330
08FC60
070380
00FE00
ENDCHAR
STARTCHAR 24FA
ENCODING 9466
SWIDTH 1000 0
DWIDTH 24 0
BBX 22 22 1 -2
BITMAP
00FC00
070380
0CFCC0
130320
243890
48FC48
50C628
A18614
A10014
A13814
A1FE14
A1C614
A18214
A10314
A18214
518628
48FC48
247890
130330
08FCC0
070380
00FE00
ENDCHAR
STARTCHAR 24FB
ENCODING 9467
SWIDTH 1000 0
DWIDTH 24 0
BBX 22 23 1 -2
BITMAP
00FC00
070300
0CFCC0
130320
240090
680050
51FF28
B1FF28
A00614
A00614
A00C14
A00C14
A01814
A01814
A01014
903024
503028
486048
246090
130330
08FCC0
070380
00FE00
ENDCHAR
STARTCHAR 24FC
ENCODING 9468
SWIDTH 1000 0
DWIDTH 24 0
BBX 22 22 1 -2
BITMAP
00FC00
070380
0CFCC0
130320
247890
49FE48
518628
A10214
A10214
A18614
A0FC14
A0FC14
A38614
A30314
A30314
538728
49FE48
24FC90
130330
08FCC0
070380
00FE00
ENDCHAR
STARTCHAR 24FD
ENCODING 9469
SWIDTH 1000 0
DWIDTH 24 0
BBX 22 22 1 -2
BITMAP
00FC00
070380
0CFCC0
130320
247890
48FC48
51C628
A18214
A18314
A18314
A18714
A0FF14
A07B14
A00314
A18614
518628
48FC48
247890
130330
08FCC0
070380
00FE00
ENDCHAR
STARTCHAR 24FE
ENCODING 9470
SWIDTH 1000 0
DWIDTH 24 0
BBX 22 22 1 -2
BITMAP
00FC00
070380
0CFCC0
130320
240090
490E48
571F28
A53314
A13194
A13194
A13194
A13194
A13194
A13194
A13314
511F28
490E48
240090
130330
08FCC0
070380
00FE00
ENDCHAR
STARTCHAR 2500
ENCODING 9472
SWIDTH 1000 0
DWIDTH 24 0
BBX 24 1 0 9
BITMAP
FFFFFF
ENDCHAR
STARTCHAR 2501
ENCODING 9473
SWIDTH 1000 0
DWIDTH 24 0
BBX 24 3 0 8
BITMAP
FFFFFF
FFFFFF
FFFFFF
ENDCHAR
STARTCHAR 2502
ENCODING 9474
SWIDTH 1000 0
DWIDTH 24 0
BBX 1 23 11 -3
BITMAP
80
80
80
80
80
80
80
80
80
80
80
80
80
80
80
80
80
80
80
80
80
80
80
ENDCHAR
STARTCHAR 2503
ENCODING 9475
SWIDTH 1000 0
DWIDTH 24 0
BBX 2 24 11 -3
BITMAP
C0
C0
C0
C0
C0
C0
C0
C0
C0
C0
C0
C0
C0
C0
C0
C0
C0
C0
C0
C0
C0
C0
C0
C0
ENDCHAR
STARTCHAR 250C
ENCODING 9484
SWIDTH 1000 0
DWIDTH 24 0
BBX 12 12 12 -3
BITMAP
FFF0
8000
8000
8000
8000
8000
8000
8000
8000
8000
8000
8000
ENDCHAR
STARTCHAR 250F
ENCODING 9487
SWIDTH 1000 0
DWIDTH 24 0
BBX 13 14 11 -3
BITMAP
FFF8
FFF8
FFF8
C000
C000
C000
C000
C000
C000
C000
C000
C000
C000
C000
ENDCHAR
STARTCHAR 2510
ENCODING 9488
SWIDTH 1000 0
DWIDTH 24 0
BBX 12 12 0 -3
BITMAP
FFF0
0010
0010
0010
0010
0010
0010
0010
0010
0010
0010
0010
ENDCHAR
STARTCHAR 2513
ENCODING 9491
SWIDTH 1000 0
DWIDTH 24 0
BBX 13 14 0 -3
BITMAP
FFF8
FFF8
FFF8
0018
0018
0018
0018
0018
0018
0018
0018
0018
0018
0018
ENDCHAR
STARTCHAR 2514
ENCODING 9492
SWIDTH 1000 0
DWIDTH 24 0
BBX 12 12 12 10
BITMAP
8000
8000
8000
8000
8000
8000
8000
8000
8000
8000
8000
FFF0
ENDCHAR
STARTCHAR 2517
ENCODING 9495
SWIDTH 1000 0
DWIDTH 24 0
BBX 13 13 11 8
BITMAP
C000
C000
C000
C000
C000
C000
C000
C000
C000
C000
FFF8
FFF8
FFF8
ENDCHAR
STARTCHAR 2518
ENCODING 9496
SWIDTH 1000 0
DWIDTH 24 0
BBX 12 12 0 10
BITMAP
0010
0010
0010
0010
0010
0010
0010
0010
0010
0010
0010
FFF0
ENDCHAR
STARTCHAR 251B
ENCODING 9499
SWIDTH 1000 0
DWIDTH 24 0
BBX 13 13 0 8
BITMAP
0018
0018
0018
0018
0018
0018
0018
0018
0018
0018
FFF8
FFF8
FFF8
ENDCHAR
STARTCHAR 251C
ENCODING 9500
SWIDTH 1000 0
DWIDTH 24 0
BBX 12 23 12 -2
BITMAP
8000
8000
8000
8000
8000
8000
8000
8000
8000
8000
8000
FFF0
8000
8000
8000
8000
8000
8000
8000
8000
8000
8000
8000
ENDCHAR
STARTCHAR 251D
ENCODING 9501
SWIDTH 1000 0
DWIDTH 24 0
BBX 12 23 12 -2
BITMAP
8000
8000
8000
8000
8000
8000
8000
8000
8000
8000
FFF0
FFF0
FFF0
8000
8000
8000
8000
8000
8000
8000
8000
8000
8000
ENDCHAR
STARTCHAR 2520
ENCODING 9504
SWIDTH 1000 0
DWIDTH 24 0
BBX 13 24 11 -3
BITMAP
C000
C000
C000
C000
C000
C000
C000
C000
C000
C000
C000
FFF8
C000
C000
C000
C000
C000
C000
C000
C000
C000
C000
C000
C000
ENDCHAR
STARTCHAR 2523
ENCODING 9507
SWIDTH 1000 0
DWIDTH 24 0
BBX 13 24 11 -3
BITMAP
C000
C000
C000
C000
C000
C000
C000
C000
C000
C000
FFF8
FFF8
FFF8
C000
C000
C000
C000
C000
C000
C000
C000
C000
C000
C000
ENDCHAR
STARTCHAR 2524
ENCODING 9508
SWIDTH 1000 0
DWIDTH 24 0
BBX 12 23 0 -2
BITMAP
0010
0010
0010
0010
0010
0010
0010
0010
0010
0010
0010
FFF0
0010
0010
0010
0010
0010
0010
0010
0010
0010
0010
0010
ENDCHAR
STARTCHAR 2525
ENCODING 9509
SWIDTH 1000 0
DWIDTH 24 0
BBX 12 23 0 -2
BITMAP
0010
0010
0010
0010
0010
0010
0010
0010
0010
0010
FFF0
FFF0
FFF0
0010
0010
0010
0010
0010
0010
0010
0010
0010
0010
ENDCHAR
STARTCHAR 2528
ENCODING 9512
SWIDTH 1000 0
DWIDTH 24 0
BBX 13 24 0 -3
BITMAP
0018
0018
0018
0018
0018
0018
0018
0018
0018
0018
0018
FFF8
0018
0018
0018
0018
0018
0018
0018
0018
0018
0018
0018
0018
ENDCHAR
STARTCHAR 252B
ENCODING 9515
SWIDTH 1000 0
DWIDTH 24 0
BBX 13 24 0 -3
BITMAP
0018
0018
0018
0018
0018
0018
0018
0018
0018
0018
FFF8
FFF8
FFF8
0018
0018
0018
0018
0018
0018
0018
0018
0018
0018
0018
ENDCHAR
STARTCHAR 252C
ENCODING 9516
SWIDTH 1000 0
DWIDTH 24 0
BBX 24 12 0 -3
BITMAP
FFFFFF
001000
001000
001000
001000
001000
001000
001000
001000
001000
001000
001000
ENDCHAR
STARTCHAR 252F
ENCODING 9519
SWIDTH 1000 0
DWIDTH 24 0
BBX 24 13 0 -3
BITMAP
FFFFFF
FFFFFF
FFFFFF
001000
001000
001000
001000
001000
001000
001000
001000
001000
001000
ENDCHAR
STARTCHAR 2530
ENCODING 9520
SWIDTH 1000 0
DWIDTH 24 0
BBX 24 13 0 -3
BITMAP
FFFFFF
001800
001800
001800
001800
001800
001800
001800
001800
001800
001800
001800
001800
ENDCHAR
STARTCHAR 2533
ENCODING 9523
SWIDTH 1000 0
DWIDTH 24 0
BBX 24 14 0 -3
BITMAP
FFFFFF
FFFFFF
FFFFFF
001800
001800
001800
001800
001800
001800
001800
001800
001800
001800
001800
ENDCHAR
STARTCHAR 2534
ENCODING 9524
SWIDTH 1000 0
DWIDTH 24 0
BBX 24 12 0 10
BITMAP
001000
001000
001000
001000
001000
001000
001000
001000
001000
001000
001000
FFFFFF
ENDCHAR
STARTCHAR 2537
ENCODING 9527
SWIDTH 1000 0
DWIDTH 24 0
BBX 24 13 0 9
BITMAP
001000
001000
001000
001000
001000
001000
001000
001000
001000
001000
FFFFFF
FFFFFF
FFFFFF
ENDCHAR
STARTCHAR 2538
ENCODING 9528
SWIDTH 1000 0
DWIDTH 24 0
BBX 24 12 0 9
BITMAP
001800
001800
001800
001800
001800
001800
001800
001800
001800
001800
001800
FFFFFF
ENDCHAR
STARTCHAR 253B
ENCODING 9531
SWIDTH 1000 0
DWIDTH 24 0
BBX 24 13 0 8
BITMAP
001800
001800
001800
001800
001800
001800
001800
001800
001800
001800
FFFFFF
FFFFFF
FFFFFF
ENDCHAR
STARTCHAR 253C
ENCODING 9532
SWIDTH 1000 0
DWIDTH 24 0
BBX 24 23 0 -2
BITMAP
001000
001000
001000
001000
001000
001000
001000
001000
001000
001000
001000
FFFFFF
001000
001000
001000
001000
001000
001000
001000
001000
001000
001000
001000
ENDCHAR
STARTCHAR 253F
ENCODING 9535
SWIDTH 1000 0
DWIDTH 24 0
BBX 24 23 0 -2
BITMAP
001000
001000
001000
001000
001000
001000
001000
001000
001000
001000
FFFFFF
FFFFFF
FFFFFF
001000
001000
001000
001000
001000
001000
001000
001000
001000
001000
ENDCHAR
STARTCHAR 2542
ENCODING 9538
SWIDTH 1000 0
DWIDTH 24 0
BBX 24 24 0 -3
BITMAP
001800
001800
001800
001800
001800
001800
001800
001800
001800
001800
001800
FFFFFF
001800
001800
001800
001800
001800
001800
001800
001800
001800
001800
001800
001800
ENDCHAR
STARTCHAR 254B
ENCODING 9547
SWIDTH 1000 0
DWIDTH 24 0
BBX 24 24 0 -3
BITMAP
001800
001800
001800
001800
001800
001800
001800
001800
001800
001800
FFFFFF
FFFFFF
FFFFFF
001800
001800
001800
001800
001800
001800
001800
001800
001800
001800
001800
ENDCHAR
STARTCHAR 25A0
ENCODING 9632
SWIDTH 1000 0
DWIDTH 24 0
BBX 18 18 3 0
BITMAP
FFFFC0
FFFFC0
FFFFC0
FFFFC0
FFFFC0
FFFFC0
FFFFC0
FFFFC0
FFFFC0
FFFFC0
FFFFC0
FFFFC0
FFFFC0
FFFFC0
FFFFC0
FFFFC0
FFFFC0
FFFFC0
ENDCHAR
STARTCHAR 25A1
ENCODING 9633
SWIDTH 1000 0
DWIDTH 24 0
BBX 18 18 3 0
BITMAP
FFFFC0
FFFFC0
C000C0
C000C0
C000C0
C000C0
C000C0
C000C0
C000C0
C000C0
C000C0
C000C0
C000C0
C000C0
C000C0
C000C0
FFFFC0
FFFFC0
ENDCHAR
STARTCHAR 25B1
ENCODING 9649
SWIDTH 1000 0
DWIDTH 24 0
BBX 22 10 1 4
BITMAP
0FFFFC
08000C
180018
100018
300030
300030
600020
600060
400040
FFFFC0
ENDCHAR
STARTCHAR 25B2
ENCODING 9650
SWIDTH 1000 0
DWIDTH 24 0
BBX 18 18 3 1
BITMAP
00C000
00C000
01E000
01E000
03F000
03F000
07F800
07F800
0FFC00
0FFC00
1FFE00
1FFE00
3FFF00
3FFF00
7FFF80
7FFF80
FFFFC0
FFFFC0
ENDCHAR
STARTCHAR 25B3
ENCODING 9651
SWIDTH 1000 0
DWIDTH 24 0
BBX 18 18 3 1
BITMAP
00C000
00C000
01E000
01E000
033000
031000
061800
040800
0C0C00
080400
180600
100200
300300
200100
600180
400080
FFFFC0
FFFFC0
ENDCHAR
STARTCHAR 25B6
ENCODING 9654
SWIDTH 1000 0
DWIDTH 24 0
BBX 18 19 3 0
BITMAP
800000
C00000
F00000
FC0000
FF0000
FFC000
FFF000
FFFC00
FFFF00
FFFFC0
FFFF80
FFFE00
FFFC00
FFF000
FFC000
FF0000
FC0000
F00000
C00000
ENDCHAR
STARTCHAR 25B7
ENCODING 9655
SWIDTH 1000 0
DWIDTH 24 0
BBX 18 19 3 0
BITMAP
800000
C00000
F00000
DC0000
C70000
C1C000
C07000
C03C00
C00F00
C003C0
C00380
C00E00
C03C00
C0F000
C3C000
CF0000
FC0000
F00000
C00000
ENDCHAR
STARTCHAR 25BC
ENCODING 9660
SWIDTH 1000 0
DWIDTH 24 0
BBX 18 18 3 -1
BITMAP
FFFFC0
FFFFC0
7FFF80
7FFF80
3FFF00
3FFF00
1FFE00
1FFE00
0FFC00
0FFC00
07F800
07F800
03F000
03F000
01E000
01E000
00C000
00C000
ENDCHAR
STARTCHAR 25BD
ENCODING 9661
SWIDTH 1000 0
DWIDTH 24 0
BBX 18 18 3 -1
BITMAP
FFFFC0
FFFFC0
400080
600180
200100
300300
100200
180600
080400
0C0C00
040800
061800
023000
033000
01E000
01E000
00C000
00C000
ENDCHAR
STARTCHAR 25C0
ENCODING 9664
SWIDTH 1000 0
DWIDTH 24 0
BBX 18 19 3 0
BITMAP
000040
0000C0
0003C0
000FC0
003FC0
00FFC0
03FFC0
0FFFC0
3FFFC0
FFFFC0
7FFFC0
1FFFC0
0FFFC0
03FFC0
00FFC0
003FC0
000FC0
0003C0
0000C0
ENDCHAR
STARTCHAR 25C1
ENCODING 9665
SWIDTH 1000 0
DWIDTH 24 0
BBX 18 19 3 0
BITMAP
000040
0000C0
0003C0
000EC0
0038C0
00E0C0
0380C0
0F00C0
3C00C0
F000C0
7000C0
1C00C0
0F00C0
03C0C0
00F0C0
003CC0
000FC0
0003C0
0000C0
ENDCHAR
STARTCHAR 25C6
ENCODING 9670
SWIDTH 1000 0
DWIDTH 24 0
BBX 20 20 2 -1
BITMAP
006000
00F000
01F800
03FC00
07FE00
0FFF00
1FFF80
3FFFC0
7FFFE0
FFFFF0
FFFFF0
7FFFE0
3FFFC0
1FFF80
0FFF00
07FE00
03FC00
01F800
00F000
006000
ENDCHAR
STARTCHAR 25C7
ENCODING 9671
SWIDTH 1000 0
DWIDTH 24 0
BBX 20 20 2 -1
BITMAP
006000
00F000
019800
030C00
060600
0C0300
180180
3000C0
600060
C00030
C00030
600060
3000C0
180180
0C0300
060600
030C00
019800
00F000
006000
ENDCHAR
STARTCHAR 25C9
ENCODING 9673
SWIDTH 1000 0
DWIDTH 24 0
BBX 20 20 2 -1
BITMAP
01F800
07FE00
1E0780
3801C0
30F0C0
63FC60
47FE20
CFFF30
CFFF30
CFFF30
CFFF30
CFFF30
CFFF30
47FE20
63FC60
30F0C0
3801C0
1E0780
07FE00
01F800
ENDCHAR
STARTCHAR 25CB
ENCODING 9675
SWIDTH 1000 0
DWIDTH 24 0
BBX 20 20 2 -1
BITMAP
01F800
07FE00
1E0780
3801C0
3000C0
600060
400020
C00030
C00030
C00030
C00030
C00030
C00030
400060
600060
3000C0
3801C0
1E0780
07FE00
01F800
ENDCHAR
STARTCHAR 25CE
ENCODING 9678
SWIDTH 1000 0
DWIDTH 24 0
BBX 20 20 2 -1
BITMAP
01F800
07FE00
1E0780
3801C0
30F0C0
63FC60
460E20
CC0330
C80330
C80130
C80130
CC0330
CC0330
470E20
63FC60
30F0C0
3801C0
1E0780
07FE00
01F800
ENDCHAR
STARTCHAR 25CF
ENCODING 9679
SWIDTH 1000 0
DWIDTH 24 0
BBX 20 20 2 -1
BITMAP
01F800
07FE00
1FFF80
3FFFC0
3FFFC0
7FFFE0
7FFFE0
FFFFF0
FFFFF0
FFFFF0
FFFFF0
FFFFF0
FFFFF0
7FFFE0
7FFFE0
3FFFC0
3FFFC0
1FFF80
07FE00
01F800
ENDCHAR
STARTCHAR 25D0
ENCODING 9680
SWIDTH 1000 0
DWIDTH 24 0
BBX 20 20 2 -1
BITMAP
01F800
07DE00
1FC380
3FC1C0
3FC0C0
7FC060
7FC020
FFC030
FFC030
FFC030
FFC030
FFC030
FFC030
7FC020
7FC060
3FC0C0
3FC1C0
1FC380
07FE00
01F800
ENDCHAR
STARTCHAR 25D1
ENCODING 9681
SWIDTH 1000 0
DWIDTH 24 0
BBX 20 20 2 -1
BITMAP
01F800
07FE00
1C3F80
383FC0
203FC0
603FE0
403FE0
C03FF0
C03FF0
C03FF0
C03FF0
C03FF0
C03FF0
403FE0
603FE0
303FC0
383FC0
1C3F80
07FE00
01F800
ENDCHAR
STARTCHAR 25D2
ENCODING 9682
SWIDTH 1000 0
DWIDTH 24 0
BBX 20 20 2 -1
BITMAP
01F800
07FE00
1E0780
3801C0
3000C0
600060
C00020
C00030
C00030
C00030
FFFFF0
FFFFF0
FFFFF0
7FFFE0
7FFFE0
3FFFC0
3FFFC0
1FFF80
07FE00
01F800
ENDCHAR
STARTCHAR 25D3
ENCODING 9683
SWIDTH 1000 0
DWIDTH 24 0
BBX 20 20 2 -1
BITMAP
01F800
07FE00
1FFF80
3FFFC0
3FFFC0
7FFFE0
7FFFE0
FFFFF0
FFFFF0
FFFFF0
C00030
C00030
C00030
400020
600060
3000C0
3801C0
1E0780
07FE00
01F800
ENDCHAR
STARTCHAR 25E6
ENCODING 9702
SWIDTH 1000 0
DWIDTH 24 0
BBX 8 8 8 5
BITMAP
3C
7E
C3
81
81
C3
7E
3C
ENDCHAR
STARTCHAR 25EF
ENCODING 9711
SWIDTH 1000 0
DWIDTH 24 0
BBX 22 22 1 -2
BITMAP
01FC00
070380
1C00C0
300020
200010
600008
C00008
800004
800004
800004
800004
800004
800004
800004
800004
400008
400018
200010
100020
0C00C0
070380
00FC00
ENDCHAR
STARTCHAR 2600
ENCODING 9728
SWIDTH 1000 0
DWIDTH 24 0
BBX 22 21 1 -1
BITMAP
002000
002000
102020
180060
0C00C0
047880
01FE00
03FF00
03FF80
07FF80
F7FFBC
07FF80
07FF80
03FF00
03FE00
05FE80
0C78C0
180060
102020
002000
002000
ENDCHAR
STARTCHAR 2601
ENCODING 9729
SWIDTH 1000 0
DWIDTH 24 0
BBX 20 16 2 -1
BITMAP
03E000
07F800
0FF800
0FFC00
0FFCE0
0FFDF0
0FFFF0
7FFFF0
FFFFF0
FFFFE0
FFFFF0
FFFFF0
FFBFF0
FF3FF0
3C1FF0
0007C0
ENDCHAR
STARTCHAR 2602
ENCODING 9730
SWIDTH 1000 0
DWIDTH 24 0
BBX 22 22 1 -2
BITMAP
002000
002000
01FE00
07FF80
1FFFE0
3FFFF0
7FFFF8
7FFFF8
CE31CC
843084
842084
002000
002000
002000
002000
002000
002000
002000
002000
012000
012000
00E000
ENDCHAR
STARTCHAR 2603
ENCODING 9731
SWIDTH 1000 0
DWIDTH 24 0
BBX 22 22 1 -2
BITMAP
80620C
802514
0E0888
041040
002020
60E040
031058
0C0F80
08CC40
08CC40
E80040
440080
02790C
0C00C0
D00020
203020
203010
200010
203010
203020
180060
07FF80
ENDCHAR
STARTCHAR 2605
ENCODING 9733
SWIDTH 1000 0
DWIDTH 24 0
BBX 20 20 2 0
BITMAP
006000
006000
006000
00F000
00F000
00F000
01F800
FFFFF0
7FFFE0
1FFF80
0FFF00
07FE00
03FE00
07FE00
07FE00
0F9F00
0F0F00
0E0700
180180
100080
ENDCHAR
STARTCHAR 2606
ENCODING 9734
SWIDTH 1000 0
DWIDTH 24 0
BBX 20 20 2 0
BITMAP
006000
006000
006000
00F000
009000
009000
019800
FF0FF0
7000E0
180180
0C0300
020400
060600
040200
04F200
0D9B00
0B0D00
0C0300
180180
100080
ENDCHAR
STARTCHAR 260E
ENCODING 9742
SWIDTH 1000 0
DWIDTH 24 0
BBX 22 18 1 0
BITMAP
1FFFE0
3FFFF0
7FFFF8
7986F8
F1863C
F1FE3C
03FF00
078780
070380
0E01C0
0E01C0
1E01E0
3E01F0
3E01F0
7F03F8
7F87F8
7FFFF8
7FFFF8
ENDCHAR
STARTCHAR 2616
ENCODING 9750
SWIDTH 1000 0
DWIDTH 24 0
BBX 18 19 3 1
BITMAP
01E000
073800
0E1C00
380700
600180
600180
400080
400080
400080
400080
C000C0
C000C0
C000C0
C000C0
C000C0
800040
800040
FFFFC0
FFFFC0
ENDCHAR
STARTCHAR 2617
ENCODING 9751
SWIDTH 1000 0
DWIDTH 24 0
BBX 18 19 3 0
BITMAP
00C000
03F000
0FFC00
1FFE00
7FFF80
7FFF80
7FFF80
7FFF80
7FFF80
7FFF80
FFFFC0
FFFFC0
FFFFC0
FFFFC0
FFFFC0
FFFFC0
FFFFC0
FFFFC0
FFFFC0
ENDCHAR
STARTCHAR 261E
ENCODING 9758
SWIDTH 1000 0
DWIDTH 24 0
BBX 20 10 2 4
BITMAP
61E000
961FF0
980C10
9053E0
9FBD00
902C80
903300
986900
9E2600
F1FC00
ENDCHAR
STARTCHAR 2640
ENCODING 9792
SWIDTH 1000 0
DWIDTH 24 0
BBX 14 21 5 -1
BITMAP
0780
1FE0
3870
3030
2010
2010
2010
3030
1860
0FC0
0300
0300
0300
FFFC
FFFC
0300
0300
0300
0300
0300
0300
ENDCHAR
STARTCHAR 2642
ENCODING 9794
SWIDTH 1000 0
DWIDTH 24 0
BBX 20 19 2 0
BITMAP
001FF0
001FF0
0000F0
0001F0
0003B0
000730
000E30
001C30
003830
0F7000
3FE000
70C000
606000
C06000
C06000
606000
70C000
3FC000
1F0000
ENDCHAR
STARTCHAR 2660
ENCODING 9824
SWIDTH 1000 0
DWIDTH 24 0
BBX 18 22 3 -2
BITMAP
00C000
01E000
01E000
03F000
07F800
0FFC00
1FFE00
1FFE00
3FFF00
7FFF80
7FFF80
FFFFC0
FFFFC0
FFFFC0
FFFFC0
FFFFC0
7EDF80
3CCF00
00C000
01E000
01E000
03E000
ENDCHAR
STARTCHAR 2661
ENCODING 9825
SWIDTH 1000 0
DWIDTH 24 0
BBX 20 20 2 -2
BITMAP
1F0F80
3198C0
40F020
406020
C06030
C00030
C00030
400020
400020
600060
200040
100080
180180
0C0300
040200
020600
030C00
019800
00F000
006000
ENDCHAR
STARTCHAR 2662
ENCODING 9826
SWIDTH 1000 0
DWIDTH 24 0
BBX 18 22 3 -2
BITMAP
00C000
01E000
033000
021000
040800
0C0C00
180600
300200
200100
600180
C000C0
400080
600180
300300
100200
080400
0C0C00
061800
021000
012000
01E000
00C000
ENDCHAR
STARTCHAR 2663
ENCODING 9827
SWIDTH 1000 0
DWIDTH 24 0
BBX 20 22 2 -2
BITMAP
00F000
01F800
03FC00
07FC00
07FE00
07FE00
03FC00
03FC00
3DFBC0
7EF7E0
FFFFF0
FFFFF0
FFFFF0
FFFFF0
FFFFF0
FF6FF0
7E67E0
3C63C0
006000
00E000
00F000
01F000
ENDCHAR
STARTCHAR 2664
ENCODING 9828
SWIDTH 1000 0
DWIDTH 24 0
BBX 18 22 3 -2
BITMAP
00C000
01E000
033000
061000
040800
080400
180600
300300
200100
400080
400080
800040
800040
800040
800040
C120C0
633180
3D2F00
012000
012000
021000
03F000
ENDCHAR
STARTCHAR 2665
ENCODING 9829
SWIDTH 1000 0
DWIDTH 24 0
BBX 20 20 2 -1
BITMAP
1E0780
3F9FC0
7F9FE0
7FFFE0
FFFFF0
FFFFF0
7FFFE0
7FFFE0
7FFFE0
3FFFC0
3FFFC0
1FFF80
0FFF00
0FFF00
07FE00
03FC00
01F800
00F000
006000
006000
ENDCHAR
STARTCHAR 2666
ENCODING 9830
SWIDTH 1000 0
DWIDTH 24 0
BBX 18 22 3 -2
BITMAP
00C000
01E000
03F000
03F000
07F800
0FFC00
1FFE00
1FFE00
3FFF00
7FFF80
FFFFC0
7FFF80
3FFF00
3FFF00
1FFE00
0FFC00
0FFC00
07F800
03F000
01E000
01E000
00C000
ENDCHAR
STARTCHAR 2667
ENCODING 9831
SWIDTH 1000 0
DWIDTH 24 0
BBX 20 22 2 -2
BITMAP
00F000
030C00
020400
040200
040200
040200
040200
060600
3F0FC0
619860
800010
800010
800010
800010
809010
C19830
639C60
3C93C0
009000
009000
010800
01F800
ENDCHAR
STARTCHAR 2668
ENCODING 9832
SWIDTH 1000 0
DWIDTH 24 0
BBX 22 20 1 -1
BITMAP
002000
006000
046200
046200
0C6200
0C6200
046300
063300
063180
033180
031980
231990
631998
421108
C4310C
602018
700038
3C00F0
1FFFE0
03FF00
ENDCHAR
STARTCHAR 2669
ENCODING 9833
SWIDTH 1000 0
DWIDTH 24 0
BBX 8 20 6 -1
BITMAP
03
03
03
03
03
03
03
03
03
03
03
03
03
03
03
3F
7F
FF
7E
7C
ENDCHAR
STARTCHAR 266A
ENCODING 9834
SWIDTH 1000 0
DWIDTH 24 0
BBX 15 20 5 -1
BITMAP
0200
0300
0380
02E0
0270
023C
020C
0206
0206
0202
0206
0206
0204
0208
0210
7A00
FE00
FE00
FC00
7800
ENDCHAR
STARTCHAR 266B
ENCODING 9835
SWIDTH 1000 0
DWIDTH 24 0
BBX 19 22 1 -2
BITMAP
0001E0
003FE0
03FFE0
03FE60
03C060
030060
030060
030060
030060
030060
030060
030060
030060
030060
030760
030FE0
031FC0
3F1FC0
7F0F00
FE0000
FE0000
780000
ENDCHAR
STARTCHAR 266C
ENCODING 9836
SWIDTH 1000 0
DWIDTH 24 0
BBX 19 22 1 -2
BITMAP
0001E0
003FE0
03FFE0
03FC60
038060
0307E0
03FFE0
03FF60
03E060
030060
030060
030060
030060
030060
030760
030FE0
031FC0
3F1FC0
7F0F00
FE0000
FE0000
780000
ENDCHAR
STARTCHAR 266D
ENCODING 9837
SWIDTH 1000 0
DWIDTH 24 0
BBX 10 20 8 -1
BITMAP
C000
C000
C000
C000
C000
C000
C000
CF00
DF80
F1C0
E0C0
C0C0
C0C0
C180
C180
C300
CE00
DC00
F000
C000
ENDCHAR
STARTCHAR 266E
ENCODING 9838
SWIDTH 1000 0
DWIDTH 24 0
BBX 8 20 8 -1
BITMAP
C0
C0
C0
C0
C1
CF
FF
FB
C3
C3
C3
C7
FF
FF
E3
03
03
03
03
03
ENDCHAR
STARTCHAR 266F
ENCODING 9839
SWIDTH 1000 0
DWIDTH 24 0
BBX 14 20 5 -1
BITMAP
1860
1860
1860
1860
186C
1BFC
FFE0
F860
1860
1860
1860
1860
18FC
3FF0
FC60
1860
1860
1860
1860
1800
ENDCHAR
STARTCHAR 2713
ENCODING 10003
SWIDTH 1000 0
DWIDTH 24 0
BBX 16 16 5 1
BITMAP
0001
0002
0004
000C
0008
0010
0020
0060
40C0
C180
6300
6700
3E00
3C00
3800
1000
ENDCHAR
STARTCHAR 2756
ENCODING 10070
SWIDTH 1000 0
DWIDTH 24 0
BBX 20 20 2 -1
BITMAP
006000
00F000
01F800
03FC00
03FC00
01F800
18F180
3C63C0
7E07E0
FF0FF0
FF0FF0
7E07E0
3C63C0
18F180
01F800
03FC00
03FC00
01F800
00F000
006000
ENDCHAR
STARTCHAR 2776
ENCODING 10102
SWIDTH 1000 0
DWIDTH 24 0
BBX 22 22 1 -2
BITMAP
01FC00
07FF80
1FFFC0
3FCFE0
3F8FF0
7F0FF8
FFCFF8
FFCFFC
FFCFFC
FFCFFC
FFCFFC
FFCFFC
FFCFFC
FFCFFC
FFCFFC
7FCFF8
7FCFF8
3FCFF0
1FCFE0
0FFFC0
07FF80
00FC00
ENDCHAR
STARTCHAR 2777
ENCODING 10103
SWIDTH 1000 0
DWIDTH 24 0
BBX 22 23 1 -2
BITMAP
00FC00
03FF80
0FFFC0
1FFFE0
3F83F0
7E39F8
7E7CF8
FCFCFC
FCFCFC
FFFCFC
FFF9FC
FFE1FC
FFC7FC
FF9FFC
FF3FFC
FE7FFC
7EFFF8
7C00F8
3C00F0
1FFFE0
0FFFC0
07FF80
00FC00
ENDCHAR
STARTCHAR 2778
ENCODING 10104
SWIDTH 1000 0
DWIDTH 24 0
BBX 22 22 1 -2
BITMAP
01FC00
07FF80
1FFFC0
3F87E0
3E01F0
7C78F8
FCFCF8
FFFCFC
FFFDFC
FFE1FC
FF83FC
FFF1FC
FFFCFC
FFFE7C
F8FE7C
7CFCF8
7C78F8
3E01F0
1F83E0
0FFFC0
07FF80
00FC00
ENDCHAR
STARTCHAR 2779
ENCODING 10105
SWIDTH 1000 0
DWIDTH 24 0
BBX 22 23 1 -2
BITMAP
00FC00
03FF00
0FFFC0
1FFFE0
3FE3F0
7FE3F0
7FC3F8
FF93FC
FF13FC
FF33FC
FE73FC
FCF3FC
FCF3FC
F9F3FC
F8007C
F8007C
7FF3F8
7FF3F8
3FF3F0
1FF3E0
0FFFC0
07FF80
00FC00
ENDCHAR
STARTCHAR 277A
ENCODING 10106
SWIDTH 1000 0
DWIDTH 24 0
BBX 22 23 1 -2
BITMAP
00FC00
03FF80
0FFFC0
1FFFE0
3E00F0
7E00F8
7E7FF8
FE7FFC
FE7FFC
FEC3FC
FE01FC
FE78FC
FEFCFC
FFFCFC
FFFCFC
FFFCFC
7CFCF8
7E79F8
3F83F0
1FFFE0
0FFFC0
07FF80
00FC00
ENDCHAR
STARTCHAR 277B
ENCODING 10107
SWIDTH 1000 0
DWIDTH 24 0
BBX 22 22 1 -2
BITMAP
01FC00
07FF80
1FFFC0
3F87E0
3F01F0
7E38F8
FE7CF8
FCFFFC
FCFFFC
FC83FC
FC79FC
FCFCFC
FCFCFC
FCFCFC
FCFCFC
7CFCF8
7E78F8
3F01F0
1F87E0
0FFFC0
07FF80
00FC00
ENDCHAR
STARTCHAR 277C
ENCODING 10108
SWIDTH 1000 0
DWIDTH 24 0
BBX 22 22 1 -2
BITMAP
01FC00
07FF80
1FFFC0
3FFFE0
3C00F0
7C00F8
FFFCF8
FFF9FC
FFF9FC
FFF3FC
FFF3FC
FFF3FC
FFE7FC
FFE7FC
FFCFFC
7FCFF8
7FCFF8
3F9FF0
1F9FE0
0FFFC0
07FF80
00FC00
ENDCHAR
STARTCHAR 277D
ENCODING 10109
SWIDTH 1000 0
DWIDTH 24 0
BBX 22 22 1 -2
BITMAP
01FC00
07FF80
1FFFC0
3F83E0
3E01F0
7C78F8
FCFCF8
FCFCFC
FCFCFC
FE79FC
FF03FC
FE79FC
FCFCFC
F9FEFC
F9FE7C
7CFCF8
7C78F8
3E01F0
1F03E0
0FFFC0
07FF80
00FC00
ENDCHAR
STARTCHAR 277E
ENCODING 10110
SWIDTH 1000 0
DWIDTH 24 0
BBX 22 22 1 -2
BITMAP
01FC00
07FF80
1FFFC0
3F87E0
3F01F0
7E79F8
FCFCF8
FCFCFC
FCFCFC
FCFCFC
FE787C
FE027C
FF86FC
FFFCFC
FCFCFC
7E7CF8
7E79F8
3F01F0
1F87E0
0FFFC0
07FF80
00FC00
ENDCHAR
STARTCHAR 277F
ENCODING 10111
SWIDTH 1000 0
DWIDTH 24 0
BBX 22 22 1 -2
BITMAP
01FC00
07FF80
1FFFC0
3DF0E0
31E070
61E638
E9CF38
F9CF3C
F9CF3C
F9CF9C
F9CF9C
F9CF9C
F9CF9C
F9CFBC
F9CF3C
79CF38
79E638
39E070
1FF0E0
0FFFC0
07FF80
00FC00
ENDCHAR
STARTCHAR 2934
ENCODING 10548
SWIDTH 1000 0
DWIDTH 24 0
BBX 20 19 2 0
BITMAP
000100
000380
0007C0
0007E0
000DE0
0019B0
001190
000180
000180
000180
000180
000180
000100
000300
000300
000700
000E00
FFFC00
FFF000
ENDCHAR
STARTCHAR 2935
ENCODING 10549
SWIDTH 1000 0
DWIDTH 24 0
BBX 20 19 2 -1
BITMAP
FFF000
FFFC00
000E00
000700
000300
000300
000100
000180
000180
000180
000180
000180
001190
0019B0
000DE0
0007E0
0003C0
000380
000100
ENDCHAR
STARTCHAR 29BF
ENCODING 10687
SWIDTH 1000 0
DWIDTH 24 0
BBX 20 20 2 -1
BITMAP
01F800
07FE00
1E0780
3801C0
7000C0
600060
C0F020
C1F830
C1F830
C1F830
C1F830
C1F830
C0F030
400020
600060
3000C0
3801C0
1E0780
07FE00
01F800
ENDCHAR
STARTCHAR 29FA
ENCODING 10746
SWIDTH 666 0
DWIDTH 16 0
BBX 13 13 2 1
BITMAP
1080
1080
1080
1080
1080
1080
FFF8
1080
1080
1080
1080
1080
1080
ENDCHAR
STARTCHAR 29FB
ENCODING 10747
SWIDTH 666 0
DWIDTH 16 0
BBX 13 13 2 1
BITMAP
2640
2640
2640
2640
2640
2640
FFF8
2640
2640
2640
2640
2640
2640
ENDCHAR
STARTCHAR 2E83
ENCODING 11907
SWIDTH 1000 0
DWIDTH 24 0
BBX 15 18 6 0
BITMAP
8000
8000
8000
8000
8000
8000
8000
8000
8000
8000
8000
8000
8006
8006
8006
C00E
FFFC
FFFC
ENDCHAR
STARTCHAR 2E85
ENCODING 11909
SWIDTH 1000 0
DWIDTH 24 0
BBX 12 21 5 -2
BITMAP
0030
0070
0060
00C0
0180
0380
0700
0F00
1D00
3100
E100
4100
0100
0100
0100
0100
0100
0100
0100
0100
0100
ENDCHAR
STARTCHAR 2E87
ENCODING 11911
SWIDTH 1000 0
DWIDTH 24 0
BBX 21 19 2 -1
BITMAP
3FFF80
300080
300080
300080
300080
300080
300080
300080
300080
300080
3000C0
2000C0
2000C0
6000D8
6000D8
600078
C00078
C00070
800030
ENDCHAR
STARTCHAR 2E89
ENCODING 11913
SWIDTH 1000 0
DWIDTH 24 0
BBX 10 20 7 -1
BITMAP
00C0
00C0
C0C0
C0C0
C0C0
C0C0
C0C0
C0C0
C0C0
C0C0
C0C0
C0C0
C0C0
C0C0
C0C0
00C0
00C0
00C0
1FC0
1F80
ENDCHAR
STARTCHAR 2E8E
ENCODING 11918
SWIDTH 1000 0
DWIDTH 24 0
BBX 22 19 1 -2
BITMAP
7FFFF8
7FFFF8
018600
018600
018600
018600
018600
018600
010600
010600
030600
030600
03060C
06060C
06060C
1C060C
3807F8
F003F8
400000
ENDCHAR
STARTCHAR 2E8F
ENCODING 11919
SWIDTH 1000 0
DWIDTH 24 0
BBX 20 19 2 0
BITMAP
060C00
060600
0C0300
0C0180
1800C0
3000E0
630870
C30820
030800
030800
030800
030800
020800
060800
060810
0C0810
1C0C30
780FF0
E00FE0
ENDCHAR
STARTCHAR 2E90
ENCODING 11920
SWIDTH 1000 0
DWIDTH 24 0
BBX 20 20 2 -1
BITMAP
00C000
00C000
00C000
00C000
00C000
FFFFF0
00F000
00F000
00F000
00B000
01B000
01B000
03B000
033000
063030
0E3030
1C3030
383FF0
F01FE0
C00000
ENDCHAR
STARTCHAR 2E92
ENCODING 11922
SWIDTH 1000 0
DWIDTH 24 0
BBX 18 18 4 0
BITMAP
FFFF00
C00300
C00300
C00300
C00300
C00300
C00300
FFFF00
C00300
C00300
C00000
C00000
C000C0
C000C0
C000C0
C000C0
FFFFC0
7FFF80
ENDCHAR
STARTCHAR 2E93
ENCODING 11923
SWIDTH 1000 0
DWIDTH 24 0
BBX 20 19 2 0
BITMAP
004000
006000
00C000
018000
038300
230700
360600
1C0C00
0E1800
073800
03B000
01E000
00C600
018300
030180
0600C0
0C3FC0
FFFF60
7C0030
ENDCHAR
STARTCHAR 2E94
ENCODING 11924
SWIDTH 1000 0
DWIDTH 24 0
BBX 22 18 1 1
BITMAP
030000
030000
030000
07FFC0
0600C0
060080
060180
040180
0C0180
0C0180
0FFF80
080180
180180
180100
000300
000300
000300
FFFFFC
ENDCHAR
STARTCHAR 2E96
ENCODING 11926
SWIDTH 1000 0
DWIDTH 24 0
BBX 10 22 7 -2
BITMAP
0C00
0C00
0C00
0C00
0C00
4D00
6D80
4D80
4C80
CCC0
CC80
CC00
CC00
0C00
0C00
0C00
0C00
0C00
0C00
0C00
0C00
0C00
ENDCHAR
STARTCHAR 2E97
ENCODING 11927
SWIDTH 1000 0
DWIDTH 24 0
BBX 22 20 1 -1
BITMAP
018000
018000
018000
018000
018000
018040
19B0C0
199860
319860
318C30
318C30
318618
618618
61871C
C18000
018000
018000
018000
1F8000
1F8000
ENDCHAR
STARTCHAR 2E98
ENCODING 11928
SWIDTH 1000 0
DWIDTH 24 0
BBX 11 21 6 -1
BITMAP
0400
0400
0400
0400
0400
FFE0
0400
0400
0400
0400
05E0
3FC0
FC00
8400
0400
0400
0400
0400
0400
7C00
3C00
ENDCHAR
STARTCHAR 2E99
ENCODING 11929
SWIDTH 1000 0
DWIDTH 24 0
BBX 19 20 3 -1
BITMAP
060000
040000
0C0000
0C0000
1FFFE0
180600
380C00
680C00
6C0C00
C41800
861800
033000
01B000
00E000
00E000
01B800
071E00
1E0780
F801E0
E00040
ENDCHAR
STARTCHAR 2E9B
ENCODING 11931
SWIDTH 1000 0
DWIDTH 24 0
BBX 20 19 2 -1
BITMAP
7FFFE0
003000
183000
183000
183000
183000
302000
3FFFF0
306000
204000
00D000
00D000
019000
031030
071030
0E1030
381FF0
F01FE0
400000
ENDCHAR
STARTCHAR 2E9E
ENCODING 11934
SWIDTH 1000 0
DWIDTH 24 0
BBX 19 21 3 -1
BITMAP
006000
006000
006000
007FE0
006000
036000
066000
07FF80
0C0300
180300
3C0600
670E00
C18C00
00F800
007000
007000
01C000
038000
0F0000
7C0000
700000
ENDCHAR
STARTCHAR 2E9F
ENCODING 11935
SWIDTH 1000 0
DWIDTH 24 0
BBX 22 21 1 -2
BITMAP
0FFFE0
0C0060
084060
08E060
083060
181860
180860
180060
FFFFFC
180060
18C040
18E040
187040
103840
301840
3000C0
3FFFF8
3000C0
3000C0
000FC0
000F80
ENDCHAR
STARTCHAR 2EA0
ENCODING 11936
SWIDTH 1000 0
DWIDTH 24 0
BBX 20 19 2 -1
BITMAP
3FFFC0
3000C0
3000C0
3000C0
3FFFC0
3020C0
3030C0
303000
303000
3FFFF0
301000
301800
301800
300C10
306C10
37E630
FF0330
F001F0
0000E0
ENDCHAR
STARTCHAR 2EA1
ENCODING 11937
SWIDTH 1000 0
DWIDTH 24 0
BBX 8 19 8 -1
BITMAP
70
38
1C
04
00
C0
E0
38
18
08
00
03
06
0E
0C
18
30
60
40
ENDCHAR
STARTCHAR 2EA3
ENCODING 11939
SWIDTH 1000 0
DWIDTH 24 0
BBX 20 8 2 4
BITMAP
101180
191980
3198C0
319860
718C60
618C30
C18C20
400000
ENDCHAR
STARTCHAR 2EA4
ENCODING 11940
SWIDTH 1000 0
DWIDTH 24 0
BBX 18 11 2 5
BITMAP
000080
007FC0
FFFC00
7C0080
0080C0
30C180
18C180
184300
0C6300
0C6600
080000
ENDCHAR
STARTCHAR 2EA6
ENCODING 11942
SWIDTH 1000 0
DWIDTH 24 0
BBX 9 22 6 -2
BITMAP
0180
0180
0180
0180
6180
6180
3180
3980
1980
0180
0180
0180
0780
1D80
F980
E180
0180
0180
0180
0180
0180
0180
ENDCHAR
STARTCHAR 2EA8
ENCODING 11944
SWIDTH 1000 0
DWIDTH 24 0
BBX 9 21 6 -2
BITMAP
2180
3180
1B00
0E00
0C00
1E00
3200
E300
4300
0700
0780
0D80
1980
3180
E180
C180
0180
0180
0300
3F00
1E00
ENDCHAR
STARTCHAR 2EAA
ENCODING 11946
SWIDTH 1000 0
DWIDTH 24 0
BBX 13 19 5 -1
BITMAP
7FF8
0070
00E0
01C0
0300
3300
3300
3300
33F8
3300
3300
3300
3300
3308
3378
33E0
3F00
F800
4000
ENDCHAR
STARTCHAR 2EAB
ENCODING 11947
SWIDTH 1000 0
DWIDTH 24 0
BBX 18 9 3 5
BITMAP
FFFFC0
8610C0
8610C0
8610C0
8610C0
8610C0
8610C0
FFFFC0
8000C0
ENDCHAR
STARTCHAR 2EAD
ENCODING 11949
SWIDTH 1000 0
DWIDTH 24 0
BBX 13 20 6 -1
BITMAP
0600
0600
0600
0600
7FF0
0060
00C0
0180
0300
0700
0F80
3AE0
7270
C218
0200
0200
0200
0200
0200
0200
ENDCHAR
STARTCHAR 2EB2
ENCODING 11954
SWIDTH 1000 0
DWIDTH 24 0
BBX 18 9 3 5
BITMAP
FFFFC0
8610C0
8610C0
8610C0
8610C0
8610C0
8610C0
FFFFC0
8000C0
ENDCHAR
STARTCHAR 2EB9
ENCODING 11961
SWIDTH 1000 0
DWIDTH 24 0
BBX 22 16 1 2
BITMAP
006000
006030
006070
1FFFE0
0061C0
006180
006300
006600
FFFFFC
003800
006000
01C000
078000
1E0000
780000
E00000
ENDCHAR
STARTCHAR 2EBD
ENCODING 11965
SWIDTH 1000 0
DWIDTH 24 0
BBX 18 19 3 0
BITMAP
0F0000
F87FC0
C000C0
C000C0
C000C0
C000C0
C000C0
C000C0
C000C0
FF3FC0
C000C0
C000C0
C000C0
C000C0
C000C0
C000C0
C000C0
FF3FC0
C000C0
ENDCHAR
STARTCHAR 2EBE
ENCODING 11966
SWIDTH 1000 0
DWIDTH 24 0
BBX 22 8 1 7
BITMAP
030300
030300
030300
FFFFFC
FFFFFC
030300
030300
030300
ENDCHAR
STARTCHAR 2EBF
ENCODING 11967
SWIDTH 1000 0
DWIDTH 24 0
BBX 22 8 1 7
BITMAP
060180
060180
060180
FFDFFC
FFDFFC
060180
060180
060180
ENDCHAR
STARTCHAR 2EC0
ENCODING 11968
SWIDTH 1000 0
DWIDTH 24 0
BBX 22 9 1 7
BITMAP
030200
030200
030200
030200
FF03FC
FF03FC
030200
030200
030200
ENDCHAR
STARTCHAR 2EC1
ENCODING 11969
SWIDTH 1000 0
DWIDTH 24 0
BBX 22 22 1 -2
BITMAP
002000
002000
003FC0
002000
002000
3FFFFC
306018
306018
307F88
37E020
306020
307FE0
303FE0
300000
304600
304600
304600
30C608
20C60C
61860C
EF07F8
4C03F0
ENDCHAR
STARTCHAR 2EC2
ENCODING 11970
SWIDTH 1000 0
DWIDTH 24 0
BBX 13 21 5 -1
BITMAP
0200
0200
0200
0200
7FF0
0030
0060
00C0
0180
0318
0630
1FE0
3AE0
E230
8218
0200
0200
0200
0200
0200
0200
ENDCHAR
STARTCHAR 2EC3
ENCODING 11971
SWIDTH 1000 0
DWIDTH 24 0
BBX 20 11 2 5
BITMAP
FFFFF0
010800
010800
010800
7FFFE0
610860
610860
610860
610860
7FFFE0
600060
ENDCHAR
STARTCHAR 2EC4
ENCODING 11972
SWIDTH 1000 0
DWIDTH 24 0
BBX 20 20 2 -2
BITMAP
FFFFF0
011800
011800
011800
011800
7FFFE0
631860
631860
631860
631860
6219E0
6619E0
6C1FE0
780F60
600060
600060
600060
7FFFE0
600060
600060
ENDCHAR
STARTCHAR 2ECA
ENCODING 11978
SWIDTH 1000 0
DWIDTH 24 0
BBX 13 20 5 -1
BITMAP
3FF0
3030
3030
3030
3030
3030
3FF0
0300
0300
3300
3300
33F0
3300
3300
3300
3308
3378
3FE0
FE00
6000
ENDCHAR
STARTCHAR 2ECC
ENCODING 11980
SWIDTH 1000 0
DWIDTH 24 0
BBX 21 18 2 -1
BITMAP
600000
300000
180000
0C0000
080000
000000
000000
000000
F80000
080000
080000
080000
080000
080000
1C0000
370000
73FFF0
C0FFF8
ENDCHAR
STARTCHAR 2ECD
ENCODING 11981
SWIDTH 1000 0
DWIDTH 24 0
BBX 21 19 2 0
BITMAP
300000
380000
0C0000
000000
400000
700000
380000
080000
000000
000000
F80000
080000
080000
080000
080000
1C0000
360000
E3FFF8
C0FFF0
ENDCHAR
STARTCHAR 2ECF
ENCODING 11983
SWIDTH 1000 0
DWIDTH 24 0
BBX 11 19 8 -1
BITMAP
FFC0
C0C0
C180
C180
C300
C200
C600
C300
C180
C0C0
C0C0
C040
C060
C0E0
CFC0
CFC0
C000
C000
C000
ENDCHAR
STARTCHAR 2ED1
ENCODING 11985
SWIDTH 1000 0
DWIDTH 24 0
BBX 22 20 1 -1
BITMAP
0FFFE0
0C0000
0C0000
0C0000
0FFFC0
0C0000
0C0000
0FFFC0
0C0000
0C0000
FFFFFC
0C3020
0C1070
0C18E0
0C0F80
0C0700
0C3380
0FF1E0
3F807C
380018
ENDCHAR
STARTCHAR 2ED2
ENCODING 11986
SWIDTH 1000 0
DWIDTH 24 0
BBX 22 18 1 -1
BITMAP
07FFE0
040000
040000
07FFC0
040000
040000
040000
07FFC0
040000
040000
FFFFFC
018000
010300
030180
0200C0
0603E0
3FFFF0
3FC038
ENDCHAR
STARTCHAR 2ED6
ENCODING 11990
SWIDTH 1000 0
DWIDTH 24 0
BBX 11 19 8 -1
BITMAP
FFC0
C0C0
C180
C180
C300
C200
C600
C300
C180
C0C0
C0C0
C040
C060
C0E0
CFC0
CFC0
C000
C000
C000
ENDCHAR
STARTCHAR 2ED8
ENCODING 11992
SWIDTH 1000 0
DWIDTH 24 0
BBX 22 22 1 -2
BITMAP
003000
003000
7FFFF0
003000
003000
1FFFE0
003000
003000
FFFFFC
000000
000000
0FFFC0
0C00C0
0C00C0
0FFFC0
0C00C0
0C00C0
0FFFC0
0C00C0
0C00C0
0C0FC0
0C07C0
ENDCHAR
STARTCHAR 2EDE
ENCODING 11998
SWIDTH 1000 0
DWIDTH 24 0
BBX 12 22 6 -2
BITMAP
0600
0600
0F00
19C0
18E0
3F70
6020
C000
BFC0
20C0
3FC0
20C0
20C0
3FC0
2000
2000
3FC0
2000
2000
3FE0
2000
2000
ENDCHAR
STARTCHAR 2EDF
ENCODING 11999
SWIDTH 1000 0
DWIDTH 24 0
BBX 11 21 6 -1
BITMAP
0600
0600
0F00
19C0
1EE0
3660
6600
FFC0
B0C0
30C0
3FC0
30C0
30C0
3FC0
3000
3180
3180
30C0
3FC0
FC60
6040
ENDCHAR
STARTCHAR 2EE4
ENCODING 12004
SWIDTH 1000 0
DWIDTH 24 0
BBX 21 21 2 -1
BITMAP
00C000
00C000
018000
3FFFC0
3060C0
3060C0
3060C0
3FFFC0
3060C0
3060C0
3060C0
3FFFC0
033200
033300
0332C0
023640
063FE0
0C3418
1C3018
703FF0
E01FF0
ENDCHAR
STARTCHAR 2EE8
ENCODING 12008
SWIDTH 1000 0
DWIDTH 24 0
BBX 20 21 2 -1
BITMAP
006000
006000
006000
7FFFE0
006000
006000
3FFFC0
006000
006000
FFFFF0
018000
030000
07FF80
0F0300
398600
E0DC00
407800
00FE00
0787E0
FE01F0
600000
ENDCHAR
STARTCHAR 2EE9
ENCODING 12009
SWIDTH 1000 0
DWIDTH 24 0
BBX 22 22 1 -2
BITMAP
010600
010600
010600
3FFFF0
010600
010600
FFFFFC
003000
003000
1FFFE0
183060
183060
183060
1FFFE0
183060
183060
183060
1FFFE0
010300
0707E0
3C0078
700018
ENDCHAR
STARTCHAR 2EEB
ENCODING 12011
SWIDTH 1000 0
DWIDTH 24 0
BBX 22 22 1 -2
BITMAP
003000
003000
003000
7FFFF8
060380
030700
01CC00
007800
00FE00
0F87F0
FE00FC
4600C0
07FFC0
0600C0
0600C0
0600C0
07FFC0
0C00C0
0C00C0
1800C0
3000C0
200000
ENDCHAR
STARTCHAR 2EED
ENCODING 12013
SWIDTH 1000 0
DWIDTH 24 0
BBX 22 22 1 -2
BITMAP
003000
003000
0C3FE0
0C3000
0C3000
0C3000
FFFFFC
000000
323130
333330
313230
313630
37FFB0
307030
30F830
31BE30
33B330
3731B0
3430B0
300030
3FFFF0
300030
ENDCHAR
STARTCHAR 2EEF
ENCODING 12015
SWIDTH 1000 0
DWIDTH 24 0
BBX 22 21 1 -1
BITMAP
003000
003000
003000
3FFFF0
020300
030300
030200
FFFFFC
000000
000000
1FFFE0
183060
183060
1FFFE0
183060
183060
1FFFE0
18300C
18300C
003FFC
001FF8
ENDCHAR
STARTCHAR 2EF2
ENCODING 12018
SWIDTH 1000 0
DWIDTH 24 0
BBX 22 22 1 -2
BITMAP
030000
07FE00
040C00
0C0C00
1FFFE0
383060
783060
DFFFE0
183060
1FFFE0
003000
3FFFF0
303030
303030
3FFFF0
303030
303030
3FFFF0
30300C
00300C
003FFC
001FF8
ENDCHAR
STARTCHAR 2F00
ENCODING 12032
SWIDTH 1000 0
DWIDTH 24 0
BBX 20 2 2 9
BITMAP
FFFFF0
FFFFF0
ENDCHAR
STARTCHAR 2F01
ENCODING 12033
SWIDTH 1000 0
DWIDTH 24 0
BBX 2 20 11 -1
BITMAP
C0
C0
C0
C0
C0
C0
C0
C0
C0
C0
C0
C0
C0
C0
C0
C0
C0
C0
C0
C0
ENDCHAR
STARTCHAR 2F02
ENCODING 12034
SWIDTH 1000 0
DWIDTH 24 0
BBX 11 10 6 4
BITMAP
E000
7000
3800
1C00
0E00
0700
0380
01C0
00E0
0060
ENDCHAR
STARTCHAR 2F03
ENCODING 12035
SWIDTH 1000 0
DWIDTH 24 0
BBX 8 20 6 -2
BITMAP
03
03
03
03
03
03
03
03
03
03
03
07
06
06
06
0C
1C
38
70
E0
ENDCHAR
STARTCHAR 2F04
ENCODING 12036
SWIDTH 1000 0
DWIDTH 24 0
BBX 19 17 3 0
BITMAP
7FFE00
001C00
003800
007000
00E000
01C000
038000
070000
0C0000
180000
380000
300060
600060
C00060
E000C0
FFFFC0
3FFF80
ENDCHAR
STARTCHAR 2F05
ENCODING 12037
SWIDTH 1000 0
DWIDTH 24 0
BBX 6 20 7 -1
BITMAP
0C
0C
0C
0C
0C
0C
0C
0C
0C
0C
0C
0C
0C
0C
0C
0C
0C
0C
FC
FC
ENDCHAR
STARTCHAR 2F06
ENCODING 12038
SWIDTH 1000 0
DWIDTH 24 0
BBX 20 15 2 1
BITMAP
3FFFC0
3FFFC0
000000
000000
000000
000000
000000
000000
000000
000000
000000
000000
000000
FFFFF0
FFFFF0
ENDCHAR
STARTCHAR 2F07
ENCODING 12039
SWIDTH 1000 0
DWIDTH 24 0
BBX 20 7 2 9
BITMAP
006000
006000
006000
006000
006000
FFFFF0
FFFFF0
ENDCHAR
STARTCHAR 2F08
ENCODING 12040
SWIDTH 1000 0
DWIDTH 24 0
BBX 20 20 2 -1
BITMAP
006000
006000
006000
006000
006000
006000
006000
00F000
00F000
00D000
009800
019800
018C00
030600
060700
0E0380
1C01C0
3800F0
F00070
C00000
ENDCHAR
STARTCHAR 2F09
ENCODING 12041
SWIDTH 1000 0
DWIDTH 24 0
BBX 20 19 2 -1
BITMAP
000C00
060C00
060C00
060C00
060C00
060C00
060C00
060C00
060C00
060C00
060C00
060C00
040C00
0C0C30
0C0C30
180C30
300FF0
E00FE0
C00000
ENDCHAR
STARTCHAR 2F0A
ENCODING 12042
SWIDTH 1000 0
DWIDTH 24 0
BBX 20 19 2 0
BITMAP
0FE000
006000
006000
006000
006000
007000
007000
00F000
00D000
00D800
018800
018C00
030600
070700
0E0380
1C01C0
3800F0
F00070
E00000
ENDCHAR
STARTCHAR 2F0B
ENCODING 12043
SWIDTH 1000 0
DWIDTH 24 0
BBX 21 19 2 -1
BITMAP
03FC00
000C00
000C00
060C00
060400
060600
060600
060600
040300
0C0300
0C0300
0C0180
180180
1800C0
3000C0
300060
600070
E00038
C00010
ENDCHAR
STARTCHAR 2F0C
ENCODING 12044
SWIDTH 1000 0
DWIDTH 24 0
BBX 18 19 3 -1
BITMAP
FFFFC0
C000C0
C000C0
C000C0
C000C0
C000C0
C000C0
C000C0
C000C0
C000C0
C000C0
C000C0
C000C0
C000C0
C000C0
C000C0
C000C0
C00FC0
C007C0
ENDCHAR
STARTCHAR 2F0D
ENCODING 12045
SWIDTH 1000 0
DWIDTH 24 0
BBX 20 5 2 8
BITMAP
FFFFF0
C00030
C00030
C00030
C00030
ENDCHAR
STARTCHAR 2F0E
ENCODING 12046
SWIDTH 1000 0
DWIDTH 24 0
BBX 11 19 7 -1
BITMAP
4000
E000
7000
3800
1C00
0800
0040
00E0
00C0
0180
0380
0700
0600
0C00
1800
3800
7000
E000
4000
ENDCHAR
STARTCHAR 2F0F
ENCODING 12047
SWIDTH 1000 0
DWIDTH 24 0
BBX 21 18 2 -1
BITMAP
0FFE00
0C0600
0C0600
0C0600
0C0600
0C0600
0C0600
0C0600
0C0600
0C0600
0C0600
0C0600
180618
180618
380618
700630
E007F0
C007E0
ENDCHAR
STARTCHAR 2F10
ENCODING 12048
SWIDTH 1000 0
DWIDTH 24 0
BBX 18 18 3 -1
BITMAP
C000C0
C000C0
C000C0
C000C0
C000C0
C000C0
C000C0
C000C0
C000C0
C000C0
C000C0
C000C0
C000C0
C000C0
C000C0
FFFFC0
C000C0
C000C0
ENDCHAR
STARTCHAR 2F11
ENCODING 12049
SWIDTH 1000 0
DWIDTH 24 0
BBX 18 18 3 0
BITMAP
FFFFC0
0180C0
0180C0
0180C0
0300C0
0300C0
0300C0
0300C0
0300C0
0300C0
0600C0
0600C0
0C0180
1C0180
380180
704180
E07F80
C03F00
ENDCHAR
STARTCHAR 2F12
ENCODING 12050
SWIDTH 1000 0
DWIDTH 24 0
BBX 19 20 2 0
BITMAP
00C000
00C000
00C000
00C000
00C000
FFFFE0
00C060
00C060
00C060
00C060
00C060
018060
018060
038060
030060
060060
0E0060
1C00C0
701FC0
E01F80
ENDCHAR
STARTCHAR 2F13
ENCODING 12051
SWIDTH 1000 0
DWIDTH 24 0
BBX 19 21 2 -1
BITMAP
040000
060000
060000
0C0000
0FFFE0
180060
380060
300060
600060
E00060
400060
000060
000060
000060
000040
0000C0
0000C0
0000C0
0000C0
003FC0
001F80
ENDCHAR
STARTCHAR 2F14
ENCODING 12052
SWIDTH 1000 0
DWIDTH 24 0
BBX 16 18 5 0
BITMAP
C000
C000
C000
C000
C03C
C0F8
C7C0
FF00
F000
C000
C000
C000
C003
C003
C003
C003
FFFE
7FFC
ENDCHAR
STARTCHAR 2F15
ENCODING 12053
SWIDTH 1000 0
DWIDTH 24 0
BBX 19 19 3 -1
BITMAP
FFFFC0
C00000
C00000
C00000
C00000
C00000
C00000
C00000
C00000
C00000
C00000
C00000
C00000
C00000
C00000
C00000
FFFFE0
C00000
C00000
ENDCHAR
STARTCHAR 2F16
ENCODING 12054
SWIDTH 1000 0
DWIDTH 24 0
BBX 20 17 2 0
BITMAP
FFFFF0
300000
300000
300000
300000
300000
300000
300000
300000
300000
300000
300000
300000
300000
300000
1FFFE0
0FFFE0
ENDCHAR
STARTCHAR 2F17
ENCODING 12055
SWIDTH 1000 0
DWIDTH 24 0
BBX 20 21 2 -2
BITMAP
006000
006000
006000
006000
006000
006000
006000
006000
FFFFF0
FFFFF0
006000
006000
006000
006000
006000
006000
006000
006000
006000
006000
006000
ENDCHAR
STARTCHAR 2F18
ENCODING 12056
SWIDTH 1000 0
DWIDTH 24 0
BBX 12 20 8 -1
BITMAP
C000
C000
C000
C000
C000
C000
E000
F800
DE00
CF00
C3C0
C0F0
C070
C000
C000
C000
C000
C000
C000
C000
ENDCHAR
STARTCHAR 2F19
ENCODING 12057
SWIDTH 1000 0
DWIDTH 24 0
BBX 11 19 7 -1
BITMAP
FFE0
C060
C060
C060
C060
C060
C060
C060
C060
C060
C060
C060
C7E0
C7C0
C000
C000
C000
C000
C000
ENDCHAR
STARTCHAR 2F1A
ENCODING 12058
SWIDTH 1000 0
DWIDTH 24 0
BBX 19 19 2 -1
BITMAP
3FFFE0
3FFFE0
300000
300000
300000
300000
300000
300000
300000
300000
300000
300000
300000
600000
600000
600000
E00000
C00000
C00000
ENDCHAR
STARTCHAR 2F1B
ENCODING 12059
SWIDTH 1000 0
DWIDTH 24 0
BBX 20 18 2 0
BITMAP
00C000
00C000
00C000
00C000
018000
018000
018000
030000
030200
020600
060300
060180
0C0180
0C00C0
180FC0
1FFE60
FFC060
600030
ENDCHAR
STARTCHAR 2F1C
ENCODING 12060
SWIDTH 1000 0
DWIDTH 24 0
BBX 21 19 1 -1
BITMAP
3FFFE0
0400C0
0600C0
0600C0
020180
030180
038300
018300
00C600
00EE00
006C00
003800
003C00
006E00
01C780
0783E0
1E00F8
FC0038
600000
ENDCHAR
STARTCHAR 2F1D
ENCODING 12061
SWIDTH 1000 0
DWIDTH 24 0
BBX 16 18 4 -1
BITMAP
FFFF
FFFF
C003
C003
C003
C003
C003
C003
C003
C003
C003
C003
C003
C003
C003
FFFF
C003
C003
ENDCHAR
STARTCHAR 2F1E
ENCODING 12062
SWIDTH 1000 0
DWIDTH 24 0
BBX 18 19 3 -1
BITMAP
FFFFC0
800040
800040
800040
800040
800040
800040
800040
800040
800040
800040
800040
800040
800040
800040
800040
800040
FFFFC0
800040
ENDCHAR
STARTCHAR 2F1F
ENCODING 12063
SWIDTH 1000 0
DWIDTH 24 0
BBX 20 19 2 0
BITMAP
006000
006000
006000
006000
006000
006000
7FFFE0
006000
006000
006000
006000
006000
006000
006000
006000
006000
006000
006000
FFFFF0
ENDCHAR
STARTCHAR 2F20
ENCODING 12064
SWIDTH 1000 0
DWIDTH 24 0
BBX 20 19 2 0
BITMAP
006000
006000
006000
006000
006000
006000
FFFFF0
006000
006000
006000
006000
006000
006000
006000
006000
006000
006000
006000
7FFFE0
ENDCHAR
STARTCHAR 2F21
ENCODING 12065
SWIDTH 1000 0
DWIDTH 24 0
BBX 20 20 2 -1
BITMAP
018000
018000
030000
03FF80
060180
060300
0F0300
1B0600
398600
718C00
60CC00
007800
007000
007800
00FC00
01CE00
070380
1E01F0
F80070
600000
ENDCHAR
STARTCHAR 2F22
ENCODING 12066
SWIDTH 1000 0
DWIDTH 24 0
BBX 21 19 2 1
BITMAP
008000
018000
09FF80
1B0180
0F0300
0E0300
0E0300
0F0600
1B0600
318C00
60D800
C07800
003000
00F800
01CE00
038780
0E01E0
7C00F8
700030
ENDCHAR
STARTCHAR 2F23
ENCODING 12067
SWIDTH 1000 0
DWIDTH 24 0
BBX 17 20 3 0
BITMAP
010000
018000
038000
03FF80
060180
060180
0C0300
1C0300
3F0700
738600
E0CC00
C07C00
003800
003000
007000
00E000
038000
0F0000
3E0000
380000
ENDCHAR
STARTCHAR 2F24
ENCODING 12068
SWIDTH 1000 0
DWIDTH 24 0
BBX 20 20 2 0
BITMAP
006000
006000
006000
006000
006000
006000
FFFFF0
006000
007000
00F000
00D800
00D800
018C00
018E00
030700
060380
0C01C0
3800F0
F00070
600000
ENDCHAR
STARTCHAR 2F25
ENCODING 12069
SWIDTH 1000 0
DWIDTH 24 0
BBX 20 20 2 0
BITMAP
008000
00C000
00C000
018000
018000
018000
FFFFF0
030300
060300
060200
0C0600
0C0600
1F0C00
1BCC00
10F800
003C00
00EF00
03C3C0
3F00F0
F80060
ENDCHAR
STARTCHAR 2F26
ENCODING 12070
SWIDTH 1000 0
DWIDTH 24 0
BBX 20 18 2 0
BITMAP
3FFFC0
000380
000700
001C00
007800
006000
006000
006000
FFFFF0
006000
006000
006000
006000
006000
006000
006000
07E000
07E000
ENDCHAR
STARTCHAR 2F27
ENCODING 12071
SWIDTH 1000 0
DWIDTH 24 0
BBX 20 9 2 8
BITMAP
006000
006000
006000
006000
FFFFF0
C00030
C00030
C00030
C00030
ENDCHAR
STARTCHAR 2F28
ENCODING 12072
SWIDTH 1000 0
DWIDTH 24 0
BBX 20 21 2 -1
BITMAP
000600
000600
000600
000600
000600
FFFFF0
FFFFF0
000600
000600
080600
1C0600
0E0600
060600
030600
038600
010600
000600
000600
000600
00FE00
007E00
ENDCHAR
STARTCHAR 2F29
ENCODING 12073
SWIDTH 1000 0
DWIDTH 24 0
BBX 20 20 2 -1
BITMAP
006000
006000
006000
006000
006000
0C6300
186380
186180
1860C0
3060C0
306060
706060
606070
E06030
C06030
006000
006000
006000
07E000
07C000
ENDCHAR
STARTCHAR 2F2A
ENCODING 12074
SWIDTH 1000 0
DWIDTH 24 0
BBX 20 20 2 -1
BITMAP
00C000
00C000
00C000
00C000
00C000
FFFFF0
00F000
00F000
00F000
00B000
01B000
01B000
03B000
033000
063030
0E3030
1C3030
383FF0
F01FE0
C00000
ENDCHAR
STARTCHAR 2F2B
ENCODING 12075
SWIDTH 1000 0
DWIDTH 24 0
BBX 19 20 2 -2
BITMAP
3FFFE0
300060
300060
300060
300060
300060
3FFFE0
300060
300000
300000
300000
300000
300000
300000
300000
600000
600000
600000
C00000
400000
ENDCHAR
STARTCHAR 2F2C
ENCODING 12076
SWIDTH 1000 0
DWIDTH 24 0
BBX 18 21 3 -2
BITMAP
00C000
00C000
00C000
C0C0C0
C0C0C0
C0C0C0
C0C0C0
C0C0C0
C0C0C0
C0C0C0
C0C0C0
FFFFC0
C0C0C0
C0C0C0
00C000
018000
018000
070000
0E0000
1C0000
100000
ENDCHAR
STARTCHAR 2F2D
ENCODING 12077
SWIDTH 1000 0
DWIDTH 24 0
BBX 18 20 3 -1
BITMAP
00C000
00C000
00C000
00C000
C0C0C0
C0C0C0
C0C0C0
C0C0C0
C0C0C0
C0C0C0
C0C0C0
C0C0C0
C0C0C0
C0C0C0
C0C0C0
C0C0C0
C0C0C0
FFFFC0
C000C0
C000C0
ENDCHAR
STARTCHAR 2F2E
ENCODING 12078
SWIDTH 1000 0
DWIDTH 24 0
BBX 20 19 2 -1
BITMAP
0C3060
183060
1830C0
1860C0
306180
30C180
20C300
618300
618600
C18600
618300
60C180
30C180
3060C0
1860C0
183060
183060
0C1830
081000
ENDCHAR
STARTCHAR 2F2F
ENCODING 12079
SWIDTH 1000 0
DWIDTH 24 0
BBX 20 16 2 1
BITMAP
7FFFE0
7FFFE0
006000
006000
006000
006000
006000
006000
006000
006000
006000
006000
006000
006000
006000
FFFFF0
ENDCHAR
STARTCHAR 2F30
ENCODING 12080
SWIDTH 1000 0
DWIDTH 24 0
BBX 19 18 3 0
BITMAP
FFFF00
000300
000300
000300
000300
000300
000300
7FFF00
600300
600300
600000
600000
600060
600060
600060
600060
7FFFE0
3FFFC0
ENDCHAR
STARTCHAR 2F31
ENCODING 12081
SWIDTH 1000 0
DWIDTH 24 0
BBX 18 20 3 -1
BITMAP
00C000
00C000
00C000
00C000
FFFFC0
C0C0C0
C0C0C0
C0C0C0
C0C0C0
C0C0C0
C0C0C0
C0C0C0
C0C0C0
C0C0C0
C0CFC0
C0C7C0
C0C000
00C000
00C000
00C000
ENDCHAR
STARTCHAR 2F32
ENCODING 12082
SWIDTH 1000 0
DWIDTH 24 0
BBX 20 19 2 -1
BITMAP
7FFFE0
006000
006000
006000
006000
006000
006000
006000
FFFFF0
006000
006000
006000
006000
006000
006000
006000
006000
006000
006000
ENDCHAR
STARTCHAR 2F33
ENCODING 12083
SWIDTH 1000 0
DWIDTH 24 0
BBX 20 19 2 0
BITMAP
004000
006000
00C000
018000
038300
230700
360600
1C0C00
0E1800
073800
03B000
01E000
00C600
018300
030180
0600C0
0C3FC0
FFFF60
7C0030
ENDCHAR
STARTCHAR 2F34
ENCODING 12084
SWIDTH 1000 0
DWIDTH 24 0
BBX 19 20 2 -1
BITMAP
003000
003000
003000
3FFFE0
300000
300000
300000
300000
300000
300000
300000
300000
300000
300000
600000
600000
600000
E00000
C00000
400000
ENDCHAR
STARTCHAR 2F35
ENCODING 12085
SWIDTH 1000 0
DWIDTH 24 0
BBX 21 19 2 -1
BITMAP
7F0000
030000
060000
0E0000
0C0000
180000
3F8000
318000
018000
318000
110000
1B0000
0F0000
060000
0F0000
1DE000
38FFF8
F01FF0
400000
ENDCHAR
STARTCHAR 2F36
ENCODING 12086
SWIDTH 1000 0
DWIDTH 24 0
BBX 21 20 1 -1
BITMAP
030300
030300
030300
030300
030300
030300
030300
030300
FFFFF8
030300
030300
030300
030300
030300
060300
060300
0C0300
180300
700300
600300
ENDCHAR
STARTCHAR 2F37
ENCODING 12087
SWIDTH 1000 0
DWIDTH 24 0
BBX 21 20 2 -1
BITMAP
018400
018E00
018300
018180
008000
008000
07FFF0
FFFE00
00C000
00C000
006000
006000
006000
003000
003800
001C18
000E30
000730
0003F0
0000E0
ENDCHAR
STARTCHAR 2F38
ENCODING 12088
SWIDTH 1000 0
DWIDTH 24 0
BBX 18 19 3 -1
BITMAP
FFFF00
000100
000100
000100
000100
7FFF00
600100
600100
600000
600000
7FFFC0
C00180
C00180
000180
000180
000180
008380
00FF00
007E00
ENDCHAR
STARTCHAR 2F39
ENCODING 12089
SWIDTH 1000 0
DWIDTH 24 0
BBX 20 16 2 0
BITMAP
7FFE00
000200
000200
000200
000200
000200
000200
3FFE00
000200
000200
000200
000200
000200
000200
000200
FFFFF0
ENDCHAR
STARTCHAR 2F3A
ENCODING 12090
SWIDTH 1000 0
DWIDTH 24 0
BBX 18 20 3 0
BITMAP
001C00
003800
007000
01E000
038000
1F0000
FC0600
E00C00
003800
007000
01E080
0F81C0
3E0380
100700
001C00
003800
00F000
07C000
7F0000
380000
ENDCHAR
STARTCHAR 2F3B
ENCODING 12091
SWIDTH 1000 0
DWIDTH 24 0
BBX 12 21 5 -1
BITMAP
0060
00C0
0380
0700
1E10
7830
6060
00C0
0180
0380
0780
1D80
3980
E180
4180
0180
0180
0180
0180
0180
0180
ENDCHAR
STARTCHAR 2F3C
ENCODING 12092
SWIDTH 1000 0
DWIDTH 24 0
BBX 21 20 1 -1
BITMAP
00C000
01F000
003C00
000E00
018400
018000
018000
1180C0
1980C0
318060
318070
318030
318038
618098
618098
E18188
418180
018180
01FF80
00FF00
ENDCHAR
STARTCHAR 2F3D
ENCODING 12093
SWIDTH 1000 0
DWIDTH 24 0
BBX 20 20 2 -1
BITMAP
018400
018700
018380
018100
018000
00BFF0
FFFFF0
00C000
00C180
00C180
006300
006600
006C00
003800
007800
00FC10
03CE30
0F0730
7C03F0
7000E0
ENDCHAR
STARTCHAR 2F3E
ENCODING 12094
SWIDTH 1000 0
DWIDTH 24 0
BBX 20 19 2 -2
BITMAP
FFFFF0
000000
000000
000000
3FFFC0
3000C0
3000C0
3000C0
3000C0
3000C0
3FFFC0
3000C0
3000C0
300000
300000
600000
600000
E00000
C00000
ENDCHAR
STARTCHAR 2F3F
ENCODING 12095
SWIDTH 1000 0
DWIDTH 24 0
BBX 22 19 1 -1
BITMAP
0007C0
1FFF00
1FF000
003000
003000
003000
3FFFF0
003000
003000
003000
003000
FFFFFC
003000
003000
003000
003000
003000
03F000
03F000
ENDCHAR
STARTCHAR 2F40
ENCODING 12096
SWIDTH 1000 0
DWIDTH 24 0
BBX 20 21 2 -1
BITMAP
006000
006000
006000
006000
FFFFF0
006000
006000
006000
006000
7FFF80
0C0180
060300
030700
030E00
019C00
00F800
007000
01FC00
078F80
FE01F0
F00030
ENDCHAR
STARTCHAR 2F41
ENCODING 12097
SWIDTH 1000 0
DWIDTH 24 0
BBX 20 21 2 -1
BITMAP
004000
004000
004000
004000
007FE0
004000
004000
004000
004000
7FFF80
0C0180
060300
060700
030E00
019C00
00F800
007000
01DE00
0F8FC0
FC01F0
E00020
ENDCHAR
STARTCHAR 2F42
ENCODING 12098
SWIDTH 1000 0
DWIDTH 24 0
BBX 20 20 2 -1
BITMAP
006000
006000
006000
006000
FFFFF0
0C0300
0C0600
060600
060600
030C00
030C00
019800
00F000
007000
00F000
01DC00
070F00
3E03E0
F800F0
400000
ENDCHAR
STARTCHAR 2F43
ENCODING 12099
SWIDTH 1000 0
DWIDTH 24 0
BBX 20 21 2 -2
BITMAP
000600
060600
070600
03C600
00E600
006600
180600
1C0600
0F0600
038600
010600
000600
003FF0
7FFFC0
FF0600
000600
000600
000600
000600
000600
000600
ENDCHAR
STARTCHAR 2F44
ENCODING 12100
SWIDTH 1000 0
DWIDTH 24 0
BBX 20 20 2 -2
BITMAP
000080
003F80
1FFF00
1C0000
180000
180000
180000
180000
1FFFF0
180C00
180C00
180C00
180C00
180C00
100C00
300C00
300C00
700C00
600C00
C00C00
ENDCHAR
STARTCHAR 2F45
ENCODING 12101
SWIDTH 1000 0
DWIDTH 24 0
BBX 20 22 2 -2
BITMAP
006000
006000
006000
006000
FFFFF0
018000
018000
018000
018000
018000
01FFC0
0180C0
0300C0
0300C0
030080
060180
060180
0C0180
180180
703F80
E03F00
400000
ENDCHAR
STARTCHAR 2F46
ENCODING 12102
SWIDTH 1000 0
DWIDTH 24 0
BBX 22 19 1 -1
BITMAP
1FFFE0
003000
003000
003000
003000
003000
7FFFF8
002000
006000
006800
006800
004800
00C800
01C80C
03880C
070808
1E0FF8
F80FF0
600000
ENDCHAR
STARTCHAR 2F47
ENCODING 12103
SWIDTH 1000 0
DWIDTH 24 0
BBX 16 20 4 -2
BITMAP
FFFF
C003
C003
C003
C003
C003
C003
C003
FFFF
C003
C003
C003
C003
C003
C003
C003
C003
FFFF
C003
C003
ENDCHAR
STARTCHAR 2F48
ENCODING 12104
SWIDTH 1000 0
DWIDTH 24 0
BBX 16 19 4 -1
BITMAP
FFFF
C003
C003
C003
C003
C003
C003
C003
FFFB
C003
C003
C003
C003
C003
C003
C003
FFFF
C003
C003
ENDCHAR
STARTCHAR 2F49
ENCODING 12105
SWIDTH 1000 0
DWIDTH 24 0
BBX 16 20 3 -1
BITMAP
1FFF
1003
1003
1003
1003
1003
1FFF
1003
1003
1003
1003
1FFF
3003
3003
3003
3003
6003
607F
C07F
4000
ENDCHAR
STARTCHAR 2F4A
ENCODING 12106
SWIDTH 1000 0
DWIDTH 24 0
BBX 21 20 2 -1
BITMAP
006000
006000
006000
006000
006000
FFFFF0
00F000
00F000
01F800
016C00
036C00
066600
0C6300
1C61C0
3860E0
706078
C06010
006000
006000
006000
ENDCHAR
STARTCHAR 2F4B
ENCODING 12107
SWIDTH 1000 0
DWIDTH 24 0
BBX 20 20 2 0
BITMAP
060000
060000
060000
0C0000
0FFFE0
186060
1860E0
3060C0
706180
606380
40F100
00D000
00D800
018C00
018E00
030700
060380
1C01E0
7800F0
E00020
ENDCHAR
STARTCHAR 2F4C
ENCODING 12108
SWIDTH 1000 0
DWIDTH 24 0
BBX 20 19 2 0
BITMAP
003000
003000
003000
003000
003000
183000
183000
183FE0
183000
183000
183000
183000
183000
183000
183000
183000
183000
183000
FFFFF0
ENDCHAR
STARTCHAR 2F4D
ENCODING 12109
SWIDTH 1000 0
DWIDTH 24 0
BBX 19 19 3 -1
BITMAP
FFFFE0
010000
030000
030000
060000
07FF00
0C0300
180600
3C0600
670C00
C39C00
00D800
007000
006000
01C000
038000
0F0000
7C0000
700000
ENDCHAR
STARTCHAR 2F4E
ENCODING 12110
SWIDTH 1000 0
DWIDTH 24 0
BBX 20 19 2 -1
BITMAP
07FC00
060C00
060C00
060C30
0C0C30
0C0C30
3807E0
F007E0
000000
3FFF80
060300
030600
018C00
00F800
007000
01DE00
0F07E0
FC01F0
E00000
ENDCHAR
STARTCHAR 2F4F
ENCODING 12111
SWIDTH 1000 0
DWIDTH 24 0
BBX 22 20 1 -2
BITMAP
0FFFE0
0C3060
083060
083060
083060
183060
183060
FFFFFC
183060
182060
182040
186040
106040
306040
3060C0
3FFFF8
3000C0
3000C0
000FC0
000F80
ENDCHAR
STARTCHAR 2F50
ENCODING 12112
SWIDTH 1000 0
DWIDTH 24 0
BBX 21 20 1 -1
BITMAP
181800
181800
181800
181800
181830
181870
1819E0
1FDF80
181C00
181800
181800
181800
181800
181808
181808
185818
1BD818
3F0FF8
F80FF0
400000
ENDCHAR
STARTCHAR 2F51
ENCODING 12113
SWIDTH 1000 0
DWIDTH 24 0
BBX 20 20 2 -1
BITMAP
000380
003F80
1FF800
7EC000
00C000
00C000
00FFE0
7FFF00
78C000
00C000
00C000
00DFF0
FFFF80
FCC000
00C020
00C030
00C030
00C030
00FFF0
007FE0
ENDCHAR
STARTCHAR 2F52
ENCODING 12114
SWIDTH 1000 0
DWIDTH 24 0
BBX 20 19 2 0
BITMAP
000180
001FC0
3FFC00
3FA000
302000
303000
303000
303000
3FFFF0
303000
301000
301800
301800
300C00
300C30
30E630
3FC330
FE01F0
F000E0
ENDCHAR
STARTCHAR 2F53
ENCODING 12115
SWIDTH 1000 0
DWIDTH 24 0
BBX 20 21 2 -1
BITMAP
080000
0C0000
1C0000
1FFFE0
300000
300000
6FFF00
C00000
000000
7FFF00
000300
000300
000300
000100
000180
000190
0001B0
0001B0
0000F0
0000F0
000060
ENDCHAR
STARTCHAR 2F54
ENCODING 12116
SWIDTH 1000 0
DWIDTH 24 0
BBX 22 21 1 -2
BITMAP
003000
003000
003000
003020
003070
7FB8E0
01B980
01BF00
033E00
033600
033600
063300
063180
0C31C0
1C30E0
383070
70303C
E03008
403000
01F000
01E000
ENDCHAR
STARTCHAR 2F55
ENCODING 12117
SWIDTH 1000 0
DWIDTH 24 0
BBX 20 20 2 -1
BITMAP
006000
006000
006000
006040
086060
1860E0
1860C0
1861C0
306180
30F300
70F300
20D800
019800
018C00
030E00
030700
0E0380
1C01E0
780070
E00020
ENDCHAR
STARTCHAR 2F56
ENCODING 12118
SWIDTH 1000 0
DWIDTH 24 0
BBX 20 21 2 -2
BITMAP
0000C0
003FC0
1FFF00
1E4300
184300
184300
184300
184300
184300
184100
184100
104180
104180
304080
3040C0
3040C0
604060
604070
C04030
C04010
004000
ENDCHAR
STARTCHAR 2F57
ENCODING 12119
SWIDTH 1000 0
DWIDTH 24 0
BBX 20 19 2 -2
BITMAP
060C00
060600
0C0300
0C0180
1800C0
3804E0
760670
E60C20
430C00
031C00
019800
00F000
007000
00F000
01DC00
038F00
0E03C0
7C01F0
F00030
ENDCHAR
STARTCHAR 2F58
ENCODING 12120
SWIDTH 1000 0
DWIDTH 24 0
BBX 20 21 2 -2
BITMAP
000100
1C0300
0F0600
01FC00
007800
00FE00
03C780
3F01E0
780070
0C0320
060600
030C00
018C00
01D800
00F000
00F800
01DE00
070780
3E03F0
F80070
400000
ENDCHAR
STARTCHAR 2F59
ENCODING 12121
SWIDTH 1000 0
DWIDTH 24 0
BBX 12 20 5 -1
BITMAP
0030
3030
3030
3030
3030
3030
3FF0
3030
0030
0030
FFF0
1830
1830
1830
1830
3030
3030
6030
E030
C030
ENDCHAR
STARTCHAR 2F5A
ENCODING 12122
SWIDTH 1000 0
DWIDTH 24 0
BBX 18 20 3 -1
BITMAP
003000
303000
303000
303000
303000
303000
3FFFC0
300000
300000
300000
3FFC00
300C00
300C00
300C00
300C00
200C00
600C00
600C00
C00C00
400C00
ENDCHAR
STARTCHAR 2F5B
ENCODING 12123
SWIDTH 1000 0
DWIDTH 24 0
BBX 20 20 2 -2
BITMAP
3FFFC0
000C00
0C0C00
0C0C00
0C0C00
0C0C00
180C00
1FFFF0
181C00
303400
006400
00C400
038400
070400
0E0400
380400
F00400
400C00
007C00
007800
ENDCHAR
STARTCHAR 2F5C
ENCODING 12124
SWIDTH 1000 0
DWIDTH 24 0
BBX 20 21 2 -1
BITMAP
006000
006000
086000
0C6000
186000
186000
3FFFE0
306000
606000
E06000
406000
006000
FFFFF0
006000
006000
006000
006000
006000
006000
006000
006000
ENDCHAR
STARTCHAR 2F5D
ENCODING 12125
SWIDTH 1000 0
DWIDTH 24 0
BBX 20 20 2 -1
BITMAP
006200
006700
006300
006180
006000
006000
FFFFF0
00E000
00E000
00F000
009800
019800
018C00
030E00
070700
0E0380
1C01E0
7800F0
F00030
400000
ENDCHAR
STARTCHAR 2F5E
ENCODING 12126
SWIDTH 1000 0
DWIDTH 24 0
BBX 20 21 2 -1
BITMAP
006000
006000
006000
006000
FFFFF0
00C000
00C000
018000
018300
330600
1E0C00
0E1C00
073800
03B000
01E300
00C180
0180C0
0301E0
FFFFE0
FFE030
000020
ENDCHAR
STARTCHAR 2F5F
ENCODING 12127
SWIDTH 1000 0
DWIDTH 24 0
BBX 20 17 2 0
BITMAP
7FFFE0
006000
006000
006000
006000
006000
006000
3FFFC0
006000
006000
006E00
006700
006300
006180
006100
006000
FFFFF0
ENDCHAR
STARTCHAR 2F60
ENCODING 12128
SWIDTH 1000 0
DWIDTH 24 0
BBX 21 19 2 -2
BITMAP
000FC0
3FFF80
3FC300
304100
304100
304100
304180
304180
304180
304180
304080
3040C0
3040C0
304CC0
304660
604660
63FF30
CFF338
C00110
ENDCHAR
STARTCHAR 2F61
ENCODING 12129
SWIDTH 1000 0
DWIDTH 24 0
BBX 21 19 2 -1
BITMAP
FFFFE0
060000
060000
060000
060000
07FE00
0C0200
0C0200
0D8200
0CC200
0C6200
086200
183600
180618
180618
18FE18
3FE618
FE07F0
8003F0
ENDCHAR
STARTCHAR 2F62
ENCODING 12130
SWIDTH 1000 0
DWIDTH 24 0
BBX 20 21 2 -1
BITMAP
0C0300
0C0300
0C0300
0C0300
0C0300
FFFFF0
0C0300
0C0300
0C0300
0C0300
0C0300
0FFF00
0C0300
0C0300
0C0300
0C0300
0C0300
0C0300
0FFF00
0C0300
0C0300
ENDCHAR
STARTCHAR 2F63
ENCODING 12131
SWIDTH 1000 0
DWIDTH 24 0
BBX 20 20 2 -1
BITMAP
006000
086000
186000
186000
186000
3FFFE0
306000
606000
C06000
406000
006000
1FFFC0
006000
006000
006000
006000
006000
006000
006000
FFFFF0
ENDCHAR
STARTCHAR 2F64
ENCODING 12132
SWIDTH 1000 0
DWIDTH 24 0
BBX 19 18 2 -1
BITMAP
3FFFE0
306060
306060
306060
306060
3FFFE0
306060
306060
306060
306060
3FFFE0
206060
206060
206060
606060
606060
6067E0
C003E0
ENDCHAR
STARTCHAR 2F65
ENCODING 12133
SWIDTH 1000 0
DWIDTH 24 0
BBX 18 20 3 -2
BITMAP
FFFFC0
C0C0C0
C0C0C0
C0C0C0
C0C0C0
C0C0C0
C0C0C0
C0C0C0
FFFFC0
C0C0C0
C0C0C0
C0C0C0
C0C0C0
C0C0C0
C0C0C0
C0C0C0
C0C0C0
FFFFC0
C000C0
C00000
ENDCHAR
STARTCHAR 2F66
ENCODING 12134
SWIDTH 1000 0
DWIDTH 24 0
BBX 20 19 2 -1
BITMAP
7FFFE0
006060
0060E0
0060C0
0061C0
086000
186000
186000
187FE0
186000
186000
186000
3C6000
3C6000
366000
63E000
61F000
C07FF0
C00FF0
ENDCHAR
STARTCHAR 2F67
ENCODING 12135
SWIDTH 1000 0
DWIDTH 24 0
BBX 22 21 1 -1
BITMAP
000C00
000C00
000C00
0FFFFC
0C0000
4C0000
6C0000
6C0000
2C0000
0C0000
0C0000
1C0000
FC0000
CC0000
080000
180000
180000
180000
300000
700000
200000
ENDCHAR
STARTCHAR 2F68
ENCODING 12136
SWIDTH 1000 0
DWIDTH 24 0
BBX 22 12 1 4
BITMAP
0FF000
0038C0
006D80
38CF08
1CC618
0F8370
0301E0
0700C0
0E0070
380038
F0001C
600000
ENDCHAR
STARTCHAR 2F69
ENCODING 12137
SWIDTH 1000 0
DWIDTH 24 0
BBX 16 21 4 -1
BITMAP
0300
0300
0300
0300
FFFF
C003
C003
C003
C003
C003
C003
FFFF
C003
C003
C003
C003
C003
C003
C003
FFFF
C003
ENDCHAR
STARTCHAR 2F6A
ENCODING 12138
SWIDTH 1000 0
DWIDTH 24 0
BBX 20 22 2 -2
BITMAP
003000
003000
003000
003000
3FFFF0
303030
303060
303060
3030C0
303000
3FFF80
330180
318300
318300
30C600
306C00
303800
603C00
60E700
C3C3F0
CF00F0
080000
ENDCHAR
STARTCHAR 2F6B
ENCODING 12139
SWIDTH 1000 0
DWIDTH 24 0
BBX 22 17 1 0
BITMAP
1FFFE0
108420
108420
108420
108420
108420
108420
108420
108420
108420
108420
108420
108420
108420
108420
108420
FFFFFC
ENDCHAR
STARTCHAR 2F6C
ENCODING 12140
SWIDTH 1000 0
DWIDTH 24 0
BBX 16 20 4 -2
BITMAP
FFFF
C003
C003
C003
C003
FFFF
C003
C003
C003
C003
C003
FFFF
C003
C003
C003
C003
C003
FFFF
C003
C003
ENDCHAR
STARTCHAR 2F6D
ENCODING 12141
SWIDTH 1000 0
DWIDTH 24 0
BBX 21 21 1 -2
BITMAP
1FFFC0
000380
000700
038E00
01D800
007000
003800
001800
7FFFF8
007030
00F070
01F0E0
03B1C0
073380
0E3100
1C3000
783000
E03000
403000
03F000
03F000
ENDCHAR
STARTCHAR 2F6E
ENCODING 12142
SWIDTH 1000 0
DWIDTH 24 0
BBX 20 20 2 -1
BITMAP
0C0000
0C0000
0C0000
1FFFC0
186000
306000
606000
206000
006000
FFFFF0
007000
00D000
00D800
018C00
018600
030700
0E03C0
1C00F0
F80070
600000
ENDCHAR
STARTCHAR 2F6F
ENCODING 12143
SWIDTH 1000 0
DWIDTH 24 0
BBX 20 20 2 -2
BITMAP
FFFFF0
018000
018000
030000
030000
030000
060000
0E0000
0FFFE0
1C0060
340060
740060
E40060
C40060
040060
040060
040060
07FFE0
040060
040060
ENDCHAR
STARTCHAR 2F70
ENCODING 12144
SWIDTH 1000 0
DWIDTH 24 0
BBX 20 19 2 -1
BITMAP
3FFFC0
000000
000000
000000
000000
000000
FFFFF0
006000
006000
086300
0C6380
1861C0
3860C0
706060
E06030
C06030
006000
07E000
07E000
ENDCHAR
STARTCHAR 2F71
ENCODING 12145
SWIDTH 1000 0
DWIDTH 24 0
BBX 18 21 3 -1
BITMAP
00C000
008000
008000
018000
FFFFC0
8180C0
8100C0
8300C0
8310C0
8310C0
8218C0
8608C0
860CC0
87FCC0
9F86C0
8006C0
8000C0
8000C0
800FC0
800FC0
800000
ENDCHAR
STARTCHAR 2F72
ENCODING 12146
SWIDTH 1000 0
DWIDTH 24 0
BBX 20 21 2 -2
BITMAP
000F80
03FF00
7FE000
006000
006000
006000
006000
FFFFF0
00F000
01F800
016800
036C00
066600
0E6300
0C6380
3861E0
7060F0
E06030
C06010
006000
006000
ENDCHAR
STARTCHAR 2F73
ENCODING 12147
SWIDTH 1000 0
DWIDTH 24 0
BBX 19 21 3 -1
BITMAP
00C000
00C000
00C000
00C000
FFFFC0
800040
800040
841040
861840
061800
061800
0C0C00
0C0C00
0C0600
180600
180300
300380
6001C0
E000E0
C00040
800000
ENDCHAR
STARTCHAR 2F74
ENCODING 12148
SWIDTH 1000 0
DWIDTH 24 0
BBX 22 19 1 0
BITMAP
003000
003000
003000
003000
7FFFF8
000000
040180
0C0180
060180
060180
060300
060300
030300
030300
030600
030600
018600
000400
FFFFFC
ENDCHAR
STARTCHAR 2F75
ENCODING 12149
SWIDTH 1000 0
DWIDTH 24 0
BBX 21 20 1 -1
BITMAP
0C0600
0C0600
180600
180C00
3FEFF8
3618C0
6618C0
6630C0
C670C0
0600C0
0600C0
0600C0
0600C0
0600C0
0600C0
0600C0
0600C0
0600C0
060FC0
060780
ENDCHAR
STARTCHAR 2F76
ENCODING 12150
SWIDTH 1000 0
DWIDTH 24 0
BBX 22 22 1 -2
BITMAP
003000
003000
083060
1830E0
0C30C0
0C3180
063180
043100
003000
7FFFF8
007800
00FC00
00FC00
01B600
033300
073180
0E30E0
1C3070
38303C
F03018
403008
003000
ENDCHAR
STARTCHAR 2F77
ENCODING 12151
SWIDTH 1000 0
DWIDTH 24 0
BBX 20 22 2 -2
BITMAP
004000
006000
00C000
01C200
138700
1B0600
0E0C00
071800
03B180
01E0C0
01C0E0
FFFFF0
FFF830
006000
086700
0C6380
1861C0
3860E0
706070
E06030
406000
006000
ENDCHAR
STARTCHAR 2F78
ENCODING 12152
SWIDTH 1000 0
DWIDTH 24 0
BBX 22 22 1 -2
BITMAP
060000
060000
060000
0FFFE0
0C3000
183000
383000
303000
003000
FFFFFC
003000
003000
183060
183060
183060
183060
183060
183060
183060
1FFFE0
180060
180060
ENDCHAR
STARTCHAR 2F79
ENCODING 12153
SWIDTH 1000 0
DWIDTH 24 0
BBX 18 20 3 -2
BITMAP
FFFFC0
800040
800040
830640
830440
936440
9B6C40
9E3C40
8E1C40
860C40
871E40
8D9640
8DB340
983040
B86040
B0C040
800040
800FC0
800FC0
800000
ENDCHAR
STARTCHAR 2F7A
ENCODING 12154
SWIDTH 1000 0
DWIDTH 24 0
BBX 20 21 2 -2
BITMAP
0C0700
060600
030600
020C00
7FFFE0
006000
006000
006000
3FFFC0
006000
006000
006000
006000
006000
FFFFF0
006000
006000
006000
006000
006000
006000
ENDCHAR
STARTCHAR 2F7B
ENCODING 12155
SWIDTH 1000 0
DWIDTH 24 0
BBX 20 19 2 -1
BITMAP
FFBFF0
018030
018030
619830
318C30
398630
198630
018030
0180B0
0781B0
0D8730
398E30
F1BC30
C19030
818030
018030
018030
1F87F0
1F83E0
ENDCHAR
STARTCHAR 2F7C
ENCODING 12156
SWIDTH 1000 0
DWIDTH 24 0
BBX 22 20 1 0
BITMAP
006000
006030
006070
1FFFE0
0061C0
006380
006300
006600
FFFFFC
003800
00E000
01C040
0783E0
1FBF00
79F800
E18018
018018
018030
01FFF0
00FFE0
ENDCHAR
STARTCHAR 2F7D
ENCODING 12157
SWIDTH 1000 0
DWIDTH 24 0
BBX 20 19 2 -1
BITMAP
FFFFF0
006000
004000
00C000
00C000
7FFFE0
630860
630860
630860
630860
630860
630860
630860
630860
630860
630860
630860
630BE0
6001C0
ENDCHAR
STARTCHAR 2F7E
ENCODING 12158
SWIDTH 1000 0
DWIDTH 24 0
BBX 20 22 2 -2
BITMAP
006000
006000
0061C0
7FFFE0
7FE000
006000
006000
3FFFC0
006000
006000
006000
FFFFF0
00F000
01F800
036C00
066600
0E6380
1C61C0
7060F0
E06030
C06010
006000
ENDCHAR
STARTCHAR 2F7F
ENCODING 12159
SWIDTH 1000 0
DWIDTH 24 0
BBX 22 19 1 -1
BITMAP
7FFFF8
040080
040080
040080
07FF80
040080
040080
040080
040080
07FF80
040080
040080
040080
040FFC
FFFF80
FE0080
000080
000080
000080
ENDCHAR
STARTCHAR 2F80
ENCODING 12160
SWIDTH 1000 0
DWIDTH 24 0
BBX 22 22 1 -2
BITMAP
003000
003000
003000
1FFFC0
003040
003040
FFFFFC
003040
003040
003040
1FFFC0
003000
003000
3FFFF0
003000
003000
003000
FFFFFC
003000
003000
003000
003000
ENDCHAR
STARTCHAR 2F81
ENCODING 12161
SWIDTH 1000 0
DWIDTH 24 0
BBX 18 21 3 -1
BITMAP
00C000
00C000
00C000
00C000
FFFFC0
C080C0
C1C0C0
C1F0C0
C338C0
C60EC0
DCC7C0
F8C2C0
C180C0
C1E0C0
C338C0
C61CC0
DC07C0
F002C0
C000C0
C00FC0
C00FC0
ENDCHAR
STARTCHAR 2F82
ENCODING 12162
SWIDTH 1000 0
DWIDTH 24 0
BBX 19 19 3 -1
BITMAP
FFFFC0
C0C000
C0C000
C0C000
C0C000
FFFF80
C00180
C00180
C00180
C00180
C00180
FFFF80
C0C180
C0C180
C0C000
C0C000
C0C000
FFFFE0
C00000
ENDCHAR
STARTCHAR 2F83
ENCODING 12163
SWIDTH 1000 0
DWIDTH 24 0
BBX 16 20 4 0
BITMAP
0300
0300
0300
FFFF
C003
C003
C003
C003
FFFF
C003
C003
C003
C003
FFFF
C003
C003
C003
C003
FFFF
C003
ENDCHAR
STARTCHAR 2F84
ENCODING 12164
SWIDTH 1000 0
DWIDTH 24 0
BBX 20 19 2 -1
BITMAP
FFFFF0
018000
018000
030600
030300
060180
3FFFC0
7FFEE0
000060
006000
006000
006000
3FFFC0
006000
006000
006000
006000
006000
FFFFF0
ENDCHAR
STARTCHAR 2F85
ENCODING 12165
SWIDTH 1000 0
DWIDTH 24 0
BBX 18 20 3 -1
BITMAP
0F0000
F87FC0
C000C0
C000C0
C000C0
C000C0
C000C0
C000C0
C000C0
FF3FC0
C000C0
C000C0
C000C0
C000C0
C000C0
C000C0
C000C0
FFFFC0
C000C0
C000C0
ENDCHAR
STARTCHAR 2F86
ENCODING 12166
SWIDTH 1000 0
DWIDTH 24 0
BBX 22 22 1 -2
BITMAP
000080
001FC0
3FFF00
3FB000
003000
003000
003000
FFFFFC
003000
003000
003000
003000
003000
1FFFE0
180060
180060
180060
180060
180060
1FFFE0
180060
180060
ENDCHAR
STARTCHAR 2F87
ENCODING 12167
SWIDTH 1000 0
DWIDTH 24 0
BBX 22 20 1 -1
BITMAP
0C00C0
0C00C0
0C00C0
0FC0C0
18C0C0
18DFF8
18C0C0
30CCC0
3888C0
7D88C0
6798C0
C318C0
031FFC
0310C0
0630C0
0600C0
0C00C0
1800C0
7000C0
2000C0
ENDCHAR
STARTCHAR 2F88
ENCODING 12168
SWIDTH 1000 0
DWIDTH 24 0
BBX 22 21 1 -1
BITMAP
003000
003000
006000
07FFC0
0640C0
0660C0
0630C0
0638C0
0618C0
0600C0
FFFFFC
0400C0
0430C0
0C30C0
0C30C0
0C30C0
0C30C0
1830C0
180FC0
3007C0
100000
ENDCHAR
STARTCHAR 2F89
ENCODING 12169
SWIDTH 1000 0
DWIDTH 24 0
BBX 20 19 2 -1
BITMAP
1FFF80
180180
180180
180180
1FFF80
180180
180180
180180
1FFF80
186000
186060
1831C0
183B80
181F00
180E00
18E700
1FC3C0
FE00F0
600030
ENDCHAR
STARTCHAR 2F8A
ENCODING 12170
SWIDTH 1000 0
DWIDTH 24 0
BBX 20 20 2 0
BITMAP
030000
060000
07FE00
0C0C00
180800
181800
303000
7FFFC0
D02040
902040
102040
102040
1FFFC0
100040
100000
100010
100010
100030
1FFFF0
1FFFE0
ENDCHAR
STARTCHAR 2F8B
ENCODING 12171
SWIDTH 1000 0
DWIDTH 24 0
BBX 20 21 2 -2
BITMAP
080300
080300
080300
C99330
C99330
C99330
C99330
C99330
C99330
C99330
C99330
FF9FF0
FF9FF0
C99330
080300
180300
180300
300300
700300
E00300
400000
ENDCHAR
STARTCHAR 2F8C
ENCODING 12172
SWIDTH 1000 0
DWIDTH 24 0
BBX 20 20 2 -1
BITMAP
006000
006000
007FC0
006000
006000
006000
3FFFF0
300030
306060
306060
306000
306FE0
37FFE0
206000
206020
606030
606030
607FE0
C07FE0
400000
ENDCHAR
STARTCHAR 2F8D
ENCODING 12173
SWIDTH 1000 0
DWIDTH 24 0
BBX 21 20 2 0
BITMAP
006000
006000
006000
006000
006000
3FFFC0
206040
206040
206040
206040
206040
3FFFC0
206000
206100
006180
0060C0
0060E0
007FF0
FFFF30
FC0018
ENDCHAR
STARTCHAR 2F8E
ENCODING 12174
SWIDTH 1000 0
DWIDTH 24 0
BBX 22 19 1 0
BITMAP
007000
006000
006000
004000
1FFFE0
108420
108420
108420
108420
108420
108420
108420
108420
108420
108420
108420
108420
108420
FFFFFC
ENDCHAR
STARTCHAR 2F8F
ENCODING 12175
SWIDTH 1000 0
DWIDTH 24 0
BBX 21 20 2 -1
BITMAP
0C0000
1CFFE0
380000
700000
E40000
C60000
0C0000
19FFF8
180180
380180
780180
D80180
980180
180180
180180
180180
180180
180180
183F80
181F00
ENDCHAR
STARTCHAR 2F90
ENCODING 12176
SWIDTH 1000 0
DWIDTH 24 0
BBX 22 20 1 0
BITMAP
003000
003000
003000
003000
7FFFF8
007000
00D800
019830
018860
030DC0
070F80
1F0600
3B0700
F30300
430180
030CC0
037C70
03F038
3F801C
1C0008
ENDCHAR
STARTCHAR 2F91
ENCODING 12177
SWIDTH 1000 0
DWIDTH 24 0
BBX 22 17 1 0
BITMAP
FFFFFC
018400
018400
018400
018400
3FFFF0
318430
318430
318430
318430
318430
318430
31FC30
318430
300030
300030
300030
ENDCHAR
STARTCHAR 2F92
ENCODING 12178
SWIDTH 1000 0
DWIDTH 24 0
BBX 20 20 2 -1
BITMAP
1FFF80
180180
180180
180180
1FFF80
180180
180180
180180
1FFF80
180180
180180
1FFF80
031800
031800
031830
031830
061830
1C1FF0
F80FE0
400000
ENDCHAR
STARTCHAR 2F93
ENCODING 12179
SWIDTH 1000 0
DWIDTH 24 0
BBX 18 21 2 -2
BITMAP
020000
060000
07FC00
0C0C00
181800
383000
7FFFC0
D060C0
9060C0
1060C0
1FFFC0
1060C0
1060C0
1060C0
1FFFC0
3000C0
3000C0
3000C0
2000C0
600FC0
C00FC0
ENDCHAR
STARTCHAR 2F94
ENCODING 12180
SWIDTH 1000 0
DWIDTH 24 0
BBX 20 20 2 -1
BITMAP
1FFF80
000000
000000
FFFFF0
000000
000000
000000
1FFF80
000000
000000
1FFF80
000000
000000
3FFFC0
3000C0
3000C0
3000C0
3000C0
3FFFC0
3000C0
ENDCHAR
STARTCHAR 2F95
ENCODING 12181
SWIDTH 1000 0
DWIDTH 24 0
BBX 21 21 2 -1
BITMAP
000400
060E00
0E0300
1C0180
3860C0
70F060
41F800
039C00
070E00
0E0700
1C03C0
7800E0
FFFFB8
D80180
180180
180180
180180
180180
180180
1FFF80
180180
ENDCHAR
STARTCHAR 2F96
ENCODING 12182
SWIDTH 1000 0
DWIDTH 24 0
BBX 20 19 2 -1
BITMAP
FFFFF0
000000
000000
000000
1FFF80
180180
180180
180180
180180
180180
1FFF80
000400
0E0600
060600
060600
030C00
030C00
020800
FFFFF0
ENDCHAR
STARTCHAR 2F97
ENCODING 12183
SWIDTH 1000 0
DWIDTH 24 0
BBX 21 20 2 -2
BITMAP
FFFFF0
00F000
01B000
031000
0F1840
3D98E0
F18980
C3CF00
066E00
0C6600
38E700
F1F300
C3B180
0730C0
0E10E0
381078
F01030
C03000
03F000
01E000
ENDCHAR
STARTCHAR 2F98
ENCODING 12184
SWIDTH 1000 0
DWIDTH 24 0
BBX 14 22 4 -2
BITMAP
0020
00F0
03C0
3E04
F8CC
0878
0C70
07C0
0780
1EC0
F8E0
C1B0
0710
1E38
7878
60C8
0388
0608
1C18
7018
01F8
00F0
ENDCHAR
STARTCHAR 2F99
ENCODING 12185
SWIDTH 1000 0
DWIDTH 24 0
BBX 20 20 2 -2
BITMAP
3FFFC0
3000C0
3000C0
3000C0
3000C0
3FFFC0
3000C0
3000C0
3000C0
3FFFC0
3000C0
3000C0
3000C0
3000C0
3FFFC0
020400
070F00
1E03C0
7800F0
E00070
ENDCHAR
STARTCHAR 2F9A
ENCODING 12186
SWIDTH 1000 0
DWIDTH 24 0
BBX 20 20 2 -1
BITMAP
006000
006000
006000
3FFFC0
006000
006000
006000
FFFFF0
019800
019800
199B80
199980
3118C0
3118E0
631860
E31870
461820
0E1800
1CF800
18F800
ENDCHAR
STARTCHAR 2F9B
ENCODING 12187
SWIDTH 1000 0
DWIDTH 24 0
BBX 22 21 1 -2
BITMAP
003000
003000
003000
1FFFE0
003000
003000
003000
003000
7FFFF8
003000
003000
0C3000
0C3000
0C3FE0
1C3000
1C3000
3E3000
33B000
60FFFC
E03FF8
400000
ENDCHAR
STARTCHAR 2F9C
ENCODING 12188
SWIDTH 1000 0
DWIDTH 24 0
BBX 21 19 2 -1
BITMAP
3FFFC0
3000C0
3000C0
3000C0
3000C0
3000C0
3FFFC0
3060C0
006000
186000
186000
187FE0
186000
386000
3C6000
676000
61FFF8
C07FF0
800000
ENDCHAR
STARTCHAR 2F9D
ENCODING 12189
SWIDTH 1000 0
DWIDTH 24 0
BBX 20 21 2 0
BITMAP
00C000
00C000
1FFF00
180100
180100
180100
1FFF00
180130
180130
1FFF60
1801C0
180180
1FFF00
FFC700
001D00
003100
00E100
078100
1E0100
783F00
401F00
ENDCHAR
STARTCHAR 2F9E
ENCODING 12190
SWIDTH 1000 0
DWIDTH 24 0
BBX 20 22 2 -2
BITMAP
006000
006000
006000
FFFFF0
006000
006000
3FFFC0
3060C0
3060C0
3FFFC0
3060C0
3060C0
3060C0
3FFFC0
006000
006000
006000
FFFFF0
006000
006000
006000
006000
ENDCHAR
STARTCHAR 2F9F
ENCODING 12191
SWIDTH 1000 0
DWIDTH 24 0
BBX 22 21 1 -2
BITMAP
003000
003000
003000
3FFFF0
060180
030300
030300
010200
018600
FFFFFC
003000
003000
003000
003000
7FFFF8
003000
003000
003000
003000
003000
003000
ENDCHAR
STARTCHAR 2FA0
ENCODING 12192
SWIDTH 1000 0
DWIDTH 24 0
BBX 20 19 2 -1
BITMAP
3FFFE0
200000
200000
200000
27FF80
200000
200000
200000
7FFFF0
631000
6318C0
6319C0
630F80
630E00
630700
C30B80
C3F9E0
DFE070
8C0000
ENDCHAR
STARTCHAR 2FA1
ENCODING 12193
SWIDTH 1000 0
DWIDTH 24 0
BBX 21 21 2 -2
BITMAP
000080
0007C0
00FC00
7FC080
2007C0
007E00
3FE020
1803F0
003F00
3FF000
7C6000
006000
086000
187FE0
186000
186000
3C6000
676000
63FFF8
C07FF0
800000
ENDCHAR
STARTCHAR 2FA2
ENCODING 12194
SWIDTH 1000 0
DWIDTH 24 0
BBX 19 19 3 -1
BITMAP
3FFF00
200300
200300
200300
3FFF00
000000
000000
FFFFC0
C080C0
C080C0
C080C0
FFFFC0
C00000
C00000
C00020
C00060
C00060
FFFFE0
3FFFC0
ENDCHAR
STARTCHAR 2FA3
ENCODING 12195
SWIDTH 1000 0
DWIDTH 24 0
BBX 20 19 2 -1
BITMAP
FFFFF0
031800
031800
031800
7FFFE0
631860
631860
631860
6618E0
6E19E0
7C0F60
680060
600060
7FFFE0
600060
600060
600060
7FFFE0
600060
ENDCHAR
STARTCHAR 2FA4
ENCODING 12196
SWIDTH 1000 0
DWIDTH 24 0
BBX 20 21 2 -2
BITMAP
000180
00FFC0
7FFC00
406100
186180
186300
0C6300
0C6600
046200
FFFFF0
00F000
01F800
036C00
066600
0E6300
1C61C0
3860E0
F06070
C06030
006000
006000
ENDCHAR
STARTCHAR 2FA5
ENCODING 12197
SWIDTH 1000 0
DWIDTH 24 0
BBX 20 20 2 -1
BITMAP
3FFFC0
3060C0
3060C0
3060C0
3060C0
3FFFC0
3060C0
3060C0
3060C0
3060C0
3FFFC0
006000
006000
006000
7FFFE0
006000
006000
006000
006000
FFFFF0
ENDCHAR
STARTCHAR 2FA6
ENCODING 12198
SWIDTH 1000 0
DWIDTH 24 0
BBX 21 21 1 -1
BITMAP
003000
007800
00CC00
01CE00
038700
0703C0
0E00E0
3FFFF8
F03038
603008
403000
003000
3FFFF0
003000
0C30C0
0E30C0
063180
063180
033300
003000
7FFFF8
ENDCHAR
STARTCHAR 2FA7
ENCODING 12199
SWIDTH 1000 0
DWIDTH 24 0
BBX 22 20 1 -1
BITMAP
0FFFE0
0C0000
0C0000
0C0000
0FFFC0
0C0000
0C0000
0FFFC0
0C0000
0C0000
FFFFFC
0C3020
0C1070
0C18E0
0C0F80
0C0700
0C3380
0FF1E0
3F807C
380018
ENDCHAR
STARTCHAR 2FA8
ENCODING 12200
SWIDTH 1000 0
DWIDTH 24 0
BBX 20 20 2 -1
BITMAP
FF9FF0
C19830
C19830
C19830
FF9FF0
C19830
C19830
FF9FF0
C19830
C00030
C00030
C00030
C00030
C00030
C00030
C00030
C00030
C00030
C007E0
C003E0
ENDCHAR
STARTCHAR 2FA9
ENCODING 12201
SWIDTH 1000 0
DWIDTH 24 0
BBX 22 22 1 -2
BITMAP
004000
006000
006000
1FFFC0
1800C0
1800C0
1FFFC0
180000
180000
1FFFE0
180020
180020
180020
1FFFE0
003000
003000
003000
FFFFFC
003000
003000
003000
003000
ENDCHAR
STARTCHAR 2FAA
ENCODING 12202
SWIDTH 1000 0
DWIDTH 24 0
BBX 22 22 1 -2
BITMAP
003000
003000
003000
1FFFC0
003040
003040
FFFFFC
003040
003040
003040
1FFFC0
003020
183870
0E38E0
063DC0
00B700
03B300
0E31C0
3C30E0
703078
01F010
01E000
ENDCHAR
STARTCHAR 2FAB
ENCODING 12203
SWIDTH 1000 0
DWIDTH 24 0
BBX 20 20 2 -1
BITMAP
0C0C00
0C0C00
181800
181800
3FFFF0
303000
703000
D03000
9FFFC0
103000
103000
103000
103000
1FFFC0
103000
103000
103000
103000
1FFFF0
100000
ENDCHAR
STARTCHAR 2FAC
ENCODING 12204
SWIDTH 1000 0
DWIDTH 24 0
BBX 21 19 1 -1
BITMAP
FFFFF8
003000
003000
003000
3FFFF0
203010
243410
2E3710
233390
21B190
203010
263610
273310
23B190
203090
203010
2031F0
2031F0
200000
ENDCHAR
STARTCHAR 2FAD
ENCODING 12205
SWIDTH 1000 0
DWIDTH 24 0
BBX 22 22 1 -2
BITMAP
003000
003000
7FFFF0
003000
003000
1FFFE0
003000
003000
FFFFFC
000000
000000
0FFFC0
0C30C0
0C30C0
0C30C0
0C30C0
0FFFC0
0C00C0
0C00C0
0C00C0
0C0FC0
0C0FC0
ENDCHAR
STARTCHAR 2FAE
ENCODING 12206
SWIDTH 1000 0
DWIDTH 24 0
BBX 22 22 1 -2
BITMAP
018400
018400
018400
018400
7F87F8
018400
018400
018400
018400
7F87F0
018400
018400
018400
019400
01F400
3FC7FC
F98400
030400
070400
0E0400
1C0400
180400
ENDCHAR
STARTCHAR 2FAF
ENCODING 12207
SWIDTH 1000 0
DWIDTH 24 0
BBX 22 19 1 -1
BITMAP
FFFFFC
003000
006000
006000
3FFFF0
318630
318630
318630
318630
31FE30
318630
318630
318630
31FE30
318630
318630
318630
3FFFF0
300030
ENDCHAR
STARTCHAR 2FB0
ENCODING 12208
SWIDTH 1000 0
DWIDTH 24 0
BBX 20 22 2 -2
BITMAP
060600
060600
060600
FFFFF0
060600
060600
07FE00
006000
006000
3FFFC0
3060C0
3060C0
3060C0
3FFFC0
006000
006000
006000
FFFFF0
006000
006000
006000
006000
ENDCHAR
STARTCHAR 2FB1
ENCODING 12209
SWIDTH 1000 0
DWIDTH 24 0
BBX 22 21 1 -1
BITMAP
006000
006000
0FFF80
00C180
00C180
7FFFF8
000000
000000
0FFFC0
0C00C0
0C00C0
0FFFC0
001800
001800
0FFFE0
0C1800
0C1800
FFFFFC
001800
001800
001800
ENDCHAR
STARTCHAR 2FB2
ENCODING 12210
SWIDTH 1000 0
DWIDTH 24 0
BBX 22 20 1 -1
BITMAP
00CC00
00CC00
00CC00
00CC00
7FCFF8
00CC00
00CC00
00CC00
00CC00
3FCFF0
00CC00
00CC00
00CC00
00CC00
3FCFF0
00CC00
00CC00
00CC00
00CC00
FFFFFC
ENDCHAR
STARTCHAR 2FB3
ENCODING 12211
SWIDTH 1000 0
DWIDTH 24 0
BBX 20 22 2 -2
BITMAP
006000
006000
006000
7FFFE0
040600
060600
060600
030C00
FFFFF0
000000
000000
1FFF80
180180
180180
180180
180180
1FFF80
180180
180180
180180
1FFF80
180180
ENDCHAR
STARTCHAR 2FB4
ENCODING 12212
SWIDTH 1000 0
DWIDTH 24 0
BBX 20 21 2 -2
BITMAP
FFFFF0
00C000
00C000
00C000
3FFFC0
3000C0
3000C0
3000C0
3FFFC0
3000C0
3000C0
3FFFC0
3000C0
3000C0
3000C0
3FFFC0
020400
0E0F80
3C01E0
F00070
C00000
ENDCHAR
STARTCHAR 2FB5
ENCODING 12213
SWIDTH 1000 0
DWIDTH 24 0
BBX 22 21 1 -2
BITMAP
1FFFE0
100060
100060
101E60
17FE60
13A060
102060
102060
13FE60
122260
122260
122260
33FE60
322060
302668
302224
302334
61FFB4
67F19C
C0009C
400008
ENDCHAR
STARTCHAR 2FB6
ENCODING 12214
SWIDTH 1000 0
DWIDTH 24 0
BBX 21 21 2 -2
BITMAP
7FFC40
000440
0046C0
074780
3E46E0
FC4260
0C4310
0C4190
0C40F0
0C4060
FFFE00
0C4660
0846C0
0843C0
184260
184320
184318
304198
6040F0
E04070
404000
ENDCHAR
STARTCHAR 2FB7
ENCODING 12215
SWIDTH 1000 0
DWIDTH 24 0
BBX 22 20 1 -1
BITMAP
007800
00FC00
01CE00
038700
0733C0
0E30E0
3FFFF8
F4009C
440080
07FF80
040080
040080
07FFA0
043060
0419C0
040F00
040600
04F3C0
1FE0F8
3E0038
ENDCHAR
STARTCHAR 2FB8
ENCODING 12216
SWIDTH 1000 0
DWIDTH 24 0
BBX 22 21 1 -1
BITMAP
020300
030300
030600
010600
FFFFFC
003000
006000
006000
1FFFE0
180060
180060
1FFFE0
180060
180060
180060
180060
1FFFE0
180060
180060
1FFFE0
180060
ENDCHAR
STARTCHAR 2FB9
ENCODING 12217
SWIDTH 1000 0
DWIDTH 24 0
BBX 22 22 1 -2
BITMAP
000080
03FFC0
1FF800
003000
003000
FFFFFC
00FC00
01B600
033380
0E31C0
183078
F0001C
0FFFC0
0C0040
0C0040
0C0040
0FFFC0
0C0040
0C0040
0C0040
0FFFC0
0C0040
ENDCHAR
STARTCHAR 2FBA
ENCODING 12218
SWIDTH 1000 0
DWIDTH 24 0
BBX 20 21 2 -2
BITMAP
3FFFE0
302000
302000
302000
3FFFC0
302000
302000
3FFFC0
302000
302000
302000
3FFFF0
000030
002630
266630
662330
623330
C33020
C32060
8007E0
0007C0
ENDCHAR
STARTCHAR 2FBB
ENCODING 12219
SWIDTH 1000 0
DWIDTH 24 0
BBX 20 21 2 -2
BITMAP
1FFF80
180180
180180
187F80
184180
184180
184180
FFFFF0
C00030
C00030
DFFFB0
180180
180180
1FFF80
180180
180180
1FFF80
180180
180180
180F80
180F00
ENDCHAR
STARTCHAR 2FBC
ENCODING 12220
SWIDTH 1000 0
DWIDTH 24 0
BBX 20 22 2 -2
BITMAP
006000
006000
006000
FFFFF0
000000
0FFF00
080100
080100
080100
0FFF00
000000
7FFFE0
400020
400020
47FE20
460620
460620
460620
47FE20
460020
4003E0
4003E0
ENDCHAR
STARTCHAR 2FBD
ENCODING 12221
SWIDTH 1000 0
DWIDTH 24 0
BBX 22 20 1 -1
BITMAP
000020
3FF030
300060
3000C0
3FE380
300718
300C18
3FE030
300060
3000C0
3001C0
FFF70C
18060C
188018
18C030
106070
33E0E0
3F31C0
782700
400600
ENDCHAR
STARTCHAR 2FBE
ENCODING 12222
SWIDTH 1000 0
DWIDTH 24 0
BBX 20 20 2 -1
BITMAP
C00030
DFBFB0
C60430
C60430
DF9FB0
C60430
C60430
DFBFB0
C00030
C00030
C00030
C00030
C00030
C00030
C00030
C00030
C00030
C00030
C003F0
C003E0
ENDCHAR
STARTCHAR 2FBF
ENCODING 12223
SWIDTH 1000 0
DWIDTH 24 0
BBX 19 20 3 -1
BITMAP
C186C0
D8CCC0
CE18C0
D330C0
F9EEC0
C9F3C0
C718C0
CE8EC0
F8E6C0
C020C0
FFFFC0
000000
600100
603F80
7FF800
7C0000
600060
600060
7FFFC0
7FFFC0
ENDCHAR
STARTCHAR 2FC0
ENCODING 12224
SWIDTH 1000 0
DWIDTH 24 0
BBX 20 20 2 -1
BITMAP
FFFFF0
000000
000000
1FFF80
180180
180180
1FFF80
000000
000000
7FFFE0
411820
4318A0
4718A0
4E1FA0
580020
47FE20
406020
406020
4063E0
4063E0
ENDCHAR
STARTCHAR 2FC1
ENCODING 12225
SWIDTH 1000 0
DWIDTH 24 0
BBX 21 21 2 -1
BITMAP
00C000
00C000
018000
3FFFC0
3060C0
3060C0
3060C0
3FFFC0
3060C0
3060C0
3060C0
3FFFC0
033200
033300
0332C0
023640
063FE0
0C3418
1C3018
703FF0
E01FF0
ENDCHAR
STARTCHAR 2FC2
ENCODING 12226
SWIDTH 1000 0
DWIDTH 24 0
BBX 20 20 2 -1
BITMAP
070000
07FC00
0C0C00
181800
383000
7FFFC0
D060C0
9060C0
1060C0
1FFFC0
1060C0
1060C0
1060C0
1FFFC0
000000
3118C0
311860
618C70
618C30
C18C10
ENDCHAR
STARTCHAR 2FC3
ENCODING 12227
SWIDTH 1000 0
DWIDTH 24 0
BBX 22 22 1 -2
BITMAP
004000
006000
006000
1FFFC0
180040
1FFFC0
180040
180040
1FFFC0
180000
180000
1FFFFC
180000
1FFFF8
000218
326318
333318
333198
631110
631830
C303F0
0003E0
ENDCHAR
STARTCHAR 2FC4
ENCODING 12228
SWIDTH 1000 0
DWIDTH 24 0
BBX 18 22 3 -2
BITMAP
008000
008000
00FF80
008000
008000
FFFFC0
810040
918640
B8CC40
8CD840
863840
B3B440
B1E640
99E340
83B140
871840
8CCC40
B8C740
B06240
804040
FFFFC0
800040
ENDCHAR
STARTCHAR 2FC5
ENCODING 12229
SWIDTH 1000 0
DWIDTH 24 0
BBX 21 22 1 -2
BITMAP
003000
003000
003000
3FFFF8
308400
308400
3FFFF0
308430
308430
308430
3FFFF0
300000
330600
330610
330670
33F7E0
230700
630608
631618
6FF7F8
CF07F8
400000
ENDCHAR
STARTCHAR 2FC6
ENCODING 12230
SWIDTH 1000 0
DWIDTH 24 0
BBX 22 21 1 -1
BITMAP
003000
003000
7FFFF8
003080
063080
0C3180
0E7BC0
1BFE60
71B630
233300
0641C0
1C6060
78FF3C
E38308
07C600
1CFC00
003C00
007700
03C1C0
3F00F0
180020
ENDCHAR
STARTCHAR 2FC7
ENCODING 12231
SWIDTH 1000 0
DWIDTH 24 0
BBX 22 22 1 -2
BITMAP
001000
001000
001000
3FFFF8
200000
218180
218180
218180
218180
2FFFF8
218180
2181C0
23C3C0
23E3E0
67B7A0
6795B0
6D8D98
7D998C
699988
C18180
C18180
418180
ENDCHAR
STARTCHAR 2FC8
ENCODING 12232
SWIDTH 1000 0
DWIDTH 24 0
BBX 22 22 1 -2
BITMAP
010200
010200
3FFFF0
010200
010200
01FE00
000000
FFFFFC
003000
003000
1FFFE0
183060
183060
1FFFE0
183060
183060
183060
1FFFE0
010200
0707C0
3C0078
700010
ENDCHAR
STARTCHAR 2FC9
ENCODING 12233
SWIDTH 1000 0
DWIDTH 24 0
BBX 20 21 2 -2
BITMAP
000300
7FFF80
3FE000
006000
FFFFF0
01F800
036E00
0E6380
78E1F0
E1F830
838C00
0E6700
1C61E0
F46270
C66710
057E00
037E00
1E63C0
7860E0
63E000
03C000
ENDCHAR
STARTCHAR 2FCA
ENCODING 12234
SWIDTH 1000 0
DWIDTH 24 0
BBX 22 21 1 -2
BITMAP
1FFFE0
183060
183060
183060
1FFFE0
183060
183060
1FFFE0
003000
003000
3FFFF0
003000
003000
003000
FFFFFC
000000
198C60
188C30
30C618
70C618
20C400
ENDCHAR
STARTCHAR 2FCB
ENCODING 12235
SWIDTH 1000 0
DWIDTH 24 0
BBX 22 22 1 -2
BITMAP
08CC40
18CC60
0CCCC0
0CCCC0
04CC80
FFFFFC
023100
0733C0
1C30F0
78303C
DFFFE0
103020
113220
113220
113220
113220
113220
133220
133220
123020
1031E0
1001E0
ENDCHAR
STARTCHAR 2FCC
ENCODING 12236
SWIDTH 1000 0
DWIDTH 24 0
BBX 21 21 2 -2
BITMAP
7FFFC0
619840
619840
619840
7F9FC0
019800
019800
FF9FE0
C19820
C19820
C19820
FF9FE0
C19820
C19820
C19820
FF9FE0
C19800
C19818
018018
01FFF8
00FFF0
ENDCHAR
STARTCHAR 2FCD
ENCODING 12237
SWIDTH 1000 0
DWIDTH 24 0
BBX 22 21 1 -2
BITMAP
33FF30
320130
320130
33FF30
320130
33FF30
320130
320130
33FF30
300030
3FCFF0
00CC00
00CC00
00CC00
FFCFFC
08CC60
08CC60
18CC60
18CC60
30CC60
60CC60
ENDCHAR
STARTCHAR 2FCE
ENCODING 12238
SWIDTH 1000 0
DWIDTH 24 0
BBX 22 20 1 -2
BITMAP
040180
040180
FFE180
043FFC
040180
7FC180
000180
000180
7FDFF8
60C410
60C430
60C630
7FC260
110360
3181C0
1101C0
1B23E0
07E670
FF1C3C
703808
ENDCHAR
ENDFONT
